<mxfile host="Electron" modified="2023-06-15T00:51:56.263Z" agent="Mozilla/5.0 (Macintosh; Intel Mac OS X 10_15_7) AppleWebKit/537.36 (KHTML, like Gecko) draw.io/21.4.0 Chrome/112.0.5615.204 Electron/24.5.1 Safari/537.36" etag="tQcgWNbmST_MVeL3C-Dp" version="21.4.0" type="device">
  <diagram id="2Ng9uHPLQcIO1qpIosog" name="Page-1">
    <mxGraphModel dx="2363" dy="1052" grid="1" gridSize="10" guides="1" tooltips="1" connect="1" arrows="1" fold="1" page="1" pageScale="1" pageWidth="827" pageHeight="1169" math="1" shadow="0">
      <root>
        <mxCell id="0" />
        <mxCell id="1" parent="0" />
        <mxCell id="d4KqfhxiLh6mlPKJPNHN-1" value="" style="rounded=0;whiteSpace=wrap;html=1;fillColor=#d5e8d4;strokeColor=#82b366;" parent="1" vertex="1">
          <mxGeometry x="80" y="120" width="40" height="40" as="geometry" />
        </mxCell>
        <mxCell id="d4KqfhxiLh6mlPKJPNHN-2" value="" style="rounded=0;whiteSpace=wrap;html=1;fillColor=#d5e8d4;strokeColor=#82b366;" parent="1" vertex="1">
          <mxGeometry x="120" y="120" width="40" height="40" as="geometry" />
        </mxCell>
        <mxCell id="d4KqfhxiLh6mlPKJPNHN-3" value="" style="rounded=0;whiteSpace=wrap;html=1;fillColor=#d5e8d4;strokeColor=#82b366;" parent="1" vertex="1">
          <mxGeometry x="160" y="120" width="40" height="40" as="geometry" />
        </mxCell>
        <mxCell id="d4KqfhxiLh6mlPKJPNHN-5" value="" style="rounded=0;whiteSpace=wrap;html=1;fillColor=#fff2cc;strokeColor=#d6b656;" parent="1" vertex="1">
          <mxGeometry x="240" y="120" width="40" height="40" as="geometry" />
        </mxCell>
        <mxCell id="d4KqfhxiLh6mlPKJPNHN-6" value="" style="rounded=0;whiteSpace=wrap;html=1;fillColor=#fff2cc;strokeColor=#d6b656;" parent="1" vertex="1">
          <mxGeometry x="280" y="120" width="40" height="40" as="geometry" />
        </mxCell>
        <mxCell id="d4KqfhxiLh6mlPKJPNHN-7" value="" style="rounded=0;whiteSpace=wrap;html=1;fillColor=#fff2cc;strokeColor=#d6b656;" parent="1" vertex="1">
          <mxGeometry x="320" y="120" width="40" height="40" as="geometry" />
        </mxCell>
        <mxCell id="d4KqfhxiLh6mlPKJPNHN-8" value="" style="rounded=0;whiteSpace=wrap;html=1;fillColor=#fff2cc;strokeColor=#d6b656;" parent="1" vertex="1">
          <mxGeometry x="360" y="120" width="40" height="40" as="geometry" />
        </mxCell>
        <mxCell id="d4KqfhxiLh6mlPKJPNHN-9" value="" style="rounded=0;whiteSpace=wrap;html=1;fillColor=#dae8fc;strokeColor=#6c8ebf;" parent="1" vertex="1">
          <mxGeometry x="640" y="120" width="40" height="40" as="geometry" />
        </mxCell>
        <mxCell id="d4KqfhxiLh6mlPKJPNHN-10" value="" style="rounded=1;whiteSpace=wrap;html=1;fillColor=#dae8fc;strokeColor=#6c8ebf;arcSize=5;" parent="1" vertex="1">
          <mxGeometry x="680" y="120" width="40" height="40" as="geometry" />
        </mxCell>
        <mxCell id="d4KqfhxiLh6mlPKJPNHN-13" value="" style="shape=curlyBracket;whiteSpace=wrap;html=1;rounded=1;rotation=90;size=0.5;" parent="1" vertex="1">
          <mxGeometry x="110" y="-20" width="20" height="240" as="geometry" />
        </mxCell>
        <mxCell id="d4KqfhxiLh6mlPKJPNHN-14" value="&lt;font style=&quot;font-size: 14px;&quot;&gt;prop_hash&lt;/font&gt;" style="text;html=1;strokeColor=none;fillColor=none;align=center;verticalAlign=middle;whiteSpace=wrap;rounded=0;fontFamily=SF Mono;" parent="1" vertex="1">
          <mxGeometry x="70" y="60" width="100" height="30" as="geometry" />
        </mxCell>
        <mxCell id="d4KqfhxiLh6mlPKJPNHN-15" value="" style="shape=curlyBracket;whiteSpace=wrap;html=1;rounded=1;rotation=-90;" parent="1" vertex="1">
          <mxGeometry x="370" y="40" width="20" height="280" as="geometry" />
        </mxCell>
        <mxCell id="d4KqfhxiLh6mlPKJPNHN-16" value="&lt;font style=&quot;font-size: 14px;&quot;&gt;JSShape::header ~ JSShape::proto&lt;/font&gt;" style="text;html=1;strokeColor=none;fillColor=none;align=center;verticalAlign=middle;whiteSpace=wrap;rounded=0;fontFamily=SF Mono;" parent="1" vertex="1">
          <mxGeometry x="215" y="190" width="330" height="30" as="geometry" />
        </mxCell>
        <mxCell id="d4KqfhxiLh6mlPKJPNHN-17" value="" style="shape=curlyBracket;whiteSpace=wrap;html=1;rounded=1;rotation=90;" parent="1" vertex="1">
          <mxGeometry x="610" y="10" width="20" height="200" as="geometry" />
        </mxCell>
        <mxCell id="d4KqfhxiLh6mlPKJPNHN-19" value="" style="rounded=0;whiteSpace=wrap;html=1;fillColor=#fff2cc;strokeColor=#d6b656;" parent="1" vertex="1">
          <mxGeometry x="400" y="120" width="40" height="40" as="geometry" />
        </mxCell>
        <mxCell id="d4KqfhxiLh6mlPKJPNHN-20" value="" style="rounded=0;whiteSpace=wrap;html=1;fillColor=#fff2cc;strokeColor=#d6b656;" parent="1" vertex="1">
          <mxGeometry x="440" y="120" width="40" height="40" as="geometry" />
        </mxCell>
        <mxCell id="d4KqfhxiLh6mlPKJPNHN-21" value="" style="rounded=0;whiteSpace=wrap;html=1;fillColor=#fff2cc;strokeColor=#d6b656;" parent="1" vertex="1">
          <mxGeometry x="480" y="120" width="40" height="40" as="geometry" />
        </mxCell>
        <mxCell id="d4KqfhxiLh6mlPKJPNHN-23" value="" style="rounded=0;whiteSpace=wrap;html=1;fillColor=#dae8fc;strokeColor=#6c8ebf;" parent="1" vertex="1">
          <mxGeometry x="520" y="120" width="40" height="40" as="geometry" />
        </mxCell>
        <mxCell id="d4KqfhxiLh6mlPKJPNHN-24" value="" style="rounded=0;whiteSpace=wrap;html=1;fillColor=#dae8fc;strokeColor=#6c8ebf;" parent="1" vertex="1">
          <mxGeometry x="560" y="120" width="40" height="40" as="geometry" />
        </mxCell>
        <mxCell id="d4KqfhxiLh6mlPKJPNHN-25" value="" style="rounded=0;whiteSpace=wrap;html=1;fillColor=#dae8fc;strokeColor=#6c8ebf;" parent="1" vertex="1">
          <mxGeometry x="600" y="120" width="40" height="40" as="geometry" />
        </mxCell>
        <mxCell id="d4KqfhxiLh6mlPKJPNHN-26" value="" style="rounded=1;whiteSpace=wrap;html=1;fillColor=#d5e8d4;strokeColor=#82b366;arcSize=5;" parent="1" vertex="1">
          <mxGeometry y="120" width="40" height="40" as="geometry" />
        </mxCell>
        <mxCell id="d4KqfhxiLh6mlPKJPNHN-27" value="" style="rounded=0;whiteSpace=wrap;html=1;fillColor=#d5e8d4;strokeColor=#82b366;" parent="1" vertex="1">
          <mxGeometry x="40" y="120" width="40" height="40" as="geometry" />
        </mxCell>
        <mxCell id="d4KqfhxiLh6mlPKJPNHN-31" value="JSAtom" style="text;html=1;strokeColor=none;fillColor=none;align=center;verticalAlign=middle;whiteSpace=wrap;rounded=0;fontSize=14;fontFamily=SF Mono;" parent="1" vertex="1">
          <mxGeometry x="70" y="440" width="70" height="30" as="geometry" />
        </mxCell>
        <mxCell id="d4KqfhxiLh6mlPKJPNHN-32" value="" style="endArrow=classic;html=1;rounded=0;fontSize=14;exitX=0;exitY=0.5;exitDx=0;exitDy=0;strokeColor=#3399FF;" parent="1" source="d4KqfhxiLh6mlPKJPNHN-31" edge="1">
          <mxGeometry width="50" height="50" relative="1" as="geometry">
            <mxPoint x="180" y="470" as="sourcePoint" />
            <mxPoint x="-30" y="455" as="targetPoint" />
          </mxGeometry>
        </mxCell>
        <mxCell id="d4KqfhxiLh6mlPKJPNHN-33" value="" style="endArrow=classic;html=1;rounded=0;fontSize=14;strokeColor=#3399FF;exitX=0.5;exitY=0;exitDx=0;exitDy=0;entryX=0.5;entryY=0;entryDx=0;entryDy=0;" parent="1" source="d4KqfhxiLh6mlPKJPNHN-1" target="d4KqfhxiLh6mlPKJPNHN-24" edge="1">
          <mxGeometry width="50" height="50" relative="1" as="geometry">
            <mxPoint x="410" y="400" as="sourcePoint" />
            <mxPoint x="400" y="20" as="targetPoint" />
            <Array as="points">
              <mxPoint x="100" y="40" />
              <mxPoint x="580" y="40" />
            </Array>
          </mxGeometry>
        </mxCell>
        <mxCell id="d4KqfhxiLh6mlPKJPNHN-18" value="&lt;font style=&quot;font-size: 14px;&quot;&gt;JSShapeProperty[]&lt;/font&gt;" style="text;html=1;strokeColor=none;fillColor=none;align=center;verticalAlign=middle;whiteSpace=wrap;rounded=0;fontFamily=SF Mono;" parent="1" vertex="1">
          <mxGeometry x="530" y="70" width="180" height="30" as="geometry" />
        </mxCell>
        <mxCell id="d4KqfhxiLh6mlPKJPNHN-35" value="" style="shape=image;verticalLabelPosition=bottom;labelBackgroundColor=default;verticalAlign=top;aspect=fixed;imageAspect=0;image=data:image/png,iVBORw0KGgoAAAANSUhEUgAAAm4AAAGjCAIAAAAaVA6zAAAMbGlDQ1BJQ0MgUHJvZmlsZQAASImVVwdYU8kWnluSkJDQAhGQEnoTRHqREkKLVKmCjZAEEkqMCUHFhsqigmsXUbChqyCKrq6ALCpiL4ti74sFFWVd1EVRVN6EBHTdV753vm/u/PfMmf+UO3PvHQA0+7gSSQ6qBUCuOE8aFxbEnJCSyiQ9BSRAAxTgAty4PJmEFRsbCaAM9X+XdzcAouivOiq4/jn+X0WHL5DxAEAmQZzOl/FyIW4BAK/kSaR5ABAVeosZeRIFLoRYVwoDhHitAmcqcbUCpytx86BNQhwb4ssAqFG5XGkmABr3oJ6Zz8uEPBqfIHYW80ViADRHQezPE3L5ECtiH5WbO02ByyG2hfYSiGE8wCv9G87Mv/GnD/NzuZnDWJnXoKgFi2SSHO6s/7M0/1tyc+RDPqxhowql4XGK/GENb2VPi1BgKsTd4vToGEWtIe4T8ZV1BwClCOXhiUp71IgnY8P6AQbEznxucATERhCHinOiI1X69AxRKAdiuFrQmaI8TgLE+hAvEchC4lU2W6XT4lS+0PoMKZul0p/lSgf9Knw9kGcnslT8b4QCjoof0ygQJiRDTIHYMl+UFA2xBsROsuz4CJXN2AIhO3rIRiqPU8RvCXGcQBwWpOTH8jOkoXEq+5Jc2VC+2FahiBOtwgfyhAnhyvpgJ3ncwfhhLthlgZiVOMQjkE2IHMqFLwgOUeaOPReIE+NVPH2SvKA45VycIsmJVdnj5oKcMIXeHGI3WX68ai6elAcXp5Ifz5DkxSYo48QLsrjjYpXx4CtBJGCDYMAEctjSwTSQBURt3Q3d8E45Egq4QAoygQA4qjRDM5IHR8TwGg8KwB8QCYBseF7Q4KgA5EP952Gt8uoIMgZH8wdnZIOnEOeCCJAD7+WDs8TD3pLAE6gR/cM7FzYejDcHNsX4v9cPab9qWFATqdLIhzwyNYcsiSHEYGI4MZRohxvi/rgvHgmvgbC54F6491AeX+0JTwnthEeE64QOwu2pooXS76KMAh2QP1RVi/Rva4FbQ053PAj3g+yQGWfghsARd4N+WHgA9OwOtWxV3IqqML/j/lsG3zwNlR3ZmYySR5ADybbfz9Sw13AfZlHU+tv6KGNNH643e3jke//sb6rPh33E95bYEuwgdgY7jp3DmrEGwMSOYY3YReyIAg+vrieDq2vIW9xgPNmQR/QPf0NPVlFJmXOtc5fzJ+VYnmBmnmLjsadJZklFmcI8Jgt+HQRMjpjnNIrp4uziAoDiW6N8fb1lDH5DEMb5r7pFZgD4zRoYGGj+qouA79yDR+D2v/NVZ9MJXxPnATi7nieX5it1uOJCgG8JTbjTDIAJsAC2MB8X4AF8QSAIAeNADEgAKWAKjF4I17kUzABzwAJQDErBSrAObARbwHZQDfaCA6ABNIPj4DS4AC6D6+AuXD2d4CXoAe9AP4IgJISG0BEDxBSxQhwQF8QL8UdCkEgkDklB0pBMRIzIkTnIIqQUWY1sRLYhNcjPyGHkOHIOaUduIw+RLuQN8hHFUCqqixqj1uho1AtloRFoAjoZzUSnowVoEbocLUer0D1oPXocvYBeRzvQl2gvBjB1jIGZYY6YF8bGYrBULAOTYvOwEqwMq8LqsCb4nK9iHVg39gEn4nSciTvCFRyOJ+I8fDo+D1+Gb8Sr8Xr8JH4Vf4j34F8INIIRwYHgQ+AQJhAyCTMIxYQywk7CIcIpuJc6Ce+IRCKDaEP0hHsxhZhFnE1cRtxE3EdsIbYTHxN7SSSSAcmB5EeKIXFJeaRi0gbSHtIx0hVSJ6lPTV3NVM1FLVQtVU2stlCtTG232lG1K2rP1PrJWmQrsg85hswnzyKvIO8gN5EvkTvJ/RRtig3Fj5JAyaIsoJRT6iinKPcob9XV1c3VvdXHq4vUC9XL1fern1V/qP6BqkO1p7Kpk6hy6nLqLmoL9Tb1LY1Gs6YF0lJpebTltBraCdoDWp8GXcNJg6PB15ivUaFRr3FF45UmWdNKk6U5RbNAs0zzoOYlzW4tspa1FluLqzVPq0LrsNZNrV5tuvYY7RjtXO1l2ru1z2k/1yHpWOuE6PB1inS265zQeUzH6BZ0Np1HX0TfQT9F79Ql6trocnSzdEt19+q26fbo6ei56SXpzdSr0Dui18HAGNYMDiOHsYJxgHGD8XGE8QjWCMGIpSPqRlwZ8V5/pH6gvkC/RH+f/nX9jwZMgxCDbINVBg0G9w1xQ3vD8YYzDDcbnjLsHqk70nckb2TJyAMj7xihRvZGcUazjbYbXTTqNTYxDjOWGG8wPmHcbcIwCTTJMllrctSky5Ru6m8qMl1resz0BVOPyWLmMMuZJ5k9ZkZm4WZys21mbWb95jbmieYLzfeZ37egWHhZZFistWi16LE0tYyynGNZa3nHimzlZSW0Wm91xuq9tY11svVi6wbr5zb6NhybAptam3u2NNsA2+m2VbbX7Ih2XnbZdpvsLtuj9u72QvsK+0sOqIOHg8hhk0P7KMIo71HiUVWjbjpSHVmO+Y61jg+dGE6RTgudGpxejbYcnTp61egzo784uzvnOO9wvjtGZ8y4MQvHNI1542LvwnOpcLnmSnMNdZ3v2uj62s3BTeC22e2WO909yn2xe6v7Zw9PD6lHnUeXp6Vnmmel500vXa9Yr2VeZ70J3kHe872bvT/4ePjk+Rzw+dPX0Tfbd7fv87E2YwVjd4x97Gfux/Xb5tfhz/RP89/q3xFgFsANqAp4FGgRyA/cGfiMZcfKYu1hvQpyDpIGHQp6z/Zhz2W3BGPBYcElwW0hOiGJIRtDHoSah2aG1ob2hLmHzQ5rCSeER4SvCr/JMebwODWcnnGe4+aOOxlBjYiP2BjxKNI+UhrZFIVGjYtaE3Uv2ipaHN0QA2I4MWti7sfaxE6P/XU8cXzs+IrxT+PGxM2JOxNPj58avzv+XUJQwoqEu4m2ifLE1iTNpElJNUnvk4OTVyd3TBg9Ye6ECymGKaKUxlRSalLqztTeiSET103snOQ+qXjSjck2k2dOPjfFcErOlCNTNadypx5MI6Qlp+1O+8SN4VZxe9M56ZXpPTw2bz3vJT+Qv5bfJfATrBY8y/DLWJ3xPNMvc01mlzBAWCbsFrFFG0Wvs8KztmS9z47J3pU9kJOcsy9XLTct97BYR5wtPjnNZNrMae0SB0mxpGO6z/R103ukEdKdMkQ2WdaYpwt/6i/KbeU/yB/m++dX5PfNSJpxcKb2TPHMi7PsZy2d9awgtOCn2fhs3uzWOWZzFsx5OJc1d9s8ZF76vNb5FvOL5ncWhhVWL6AsyF7w20LnhasX/rUoeVFTkXFRYdHjH8J+qC3WKJYW31zsu3jLEnyJaEnbUtelG5Z+KeGXnC91Li0r/bSMt+z8j2N+LP9xYHnG8rYVHis2rySuFK+8sSpgVfVq7dUFqx+viVpTv5a5tmTtX+umrjtX5la2ZT1lvXx9R3lkeeMGyw0rN3zaKNx4vSKoYl+lUeXSyveb+JuubA7cXLfFeEvplo9bRVtvbQvbVl9lXVW2nbg9f/vTHUk7zvzk9VPNTsOdpTs/7xLv6qiOqz5Z41lTs9to94patFZe27Vn0p7Le4P3NtY51m3bx9hXuh/sl+9/8XPazzcORBxoPeh1sO4Xq18qD9EPldQj9bPqexqEDR2NKY3th8cdbm3ybTr0q9Ovu5rNmiuO6B1ZcZRytOjowLGCY70tkpbu45nHH7dObb17YsKJayfHn2w7FXHq7OnQ0yfOsM4cO+t3tvmcz7nD573ON1zwuFB/0f3iod/cfzvU5tFWf8nzUuNl78tN7WPbj14JuHL8avDV09c41y5cj77efiPxxq2bk2523OLfen475/brO/l3+u8W3iPcK7mvdb/sgdGDqt/tft/X4dFx5GHww4uP4h/dfcx7/PKJ7MmnzqKntKdlz0yf1Tx3ed7cFdp1+cXEF50vJS/7u4v/0P6j8pXtq1/+DPzzYs+Ens7X0tcDb5a9NXi76y+3v1p7Y3sfvMt91/++pM+gr/qD14czH5M/Puuf8Yn0qfyz3eemLxFf7g3kDgxIuFLu4K8ABhuakQHAm10A0FIAoMN/CMpE5VlwUBDl+XUQgf+ElefFQfEAoA52it94dgsA+2GzLoTcsFf8wicEAtTVdbipRJbh6qLkosKTEKFvYOCtMQCkJgA+SwcG+jcNDHzeAYO9DUDLdOUZVCFEeGbYGqxAt9dMLgTfifJ8+k2O3/dAEYEb+L7/F7M+kabQcNz6AAAAOGVYSWZNTQAqAAAACAABh2kABAAAAAEAAAAaAAAAAAACoAIABAAAAAEAAAJuoAMABAAAAAEAAAGjAAAAAKvir88AAEAASURBVHgB7F0HYBRV+t+ebHaz6b03Wui9hF4UBBV7u7PenYqnZ/+rd2f3ir2enl0Oe0NFREEUBKmhkwQI6b337fv/fe/NTCYhQNpG0HniZuaVr/ze99732syoh4wYp1KCgoCCgIKAgoCCgIJAbxHQ9LagUk5BQEFAQUBBQEFAQYAQUFypYgcKAgoCCgIKAgoCfUJAcaV9gk8prCCgIKAgoCCgIKC4UsUGFAQUBBQEFAQUBPqEgOJK+wSfUlhBQEFAQUBBQEFAcaWKDSgIKAgoCCgIKAj0CQHFlfYJPqWwgoCCgIKAgoCCwCnqSj0eD+oGv2qPSo1Ad7/y4HGruYZQt3eqctB6V1YppSCgIHB6IdB1e/e0d+nt3aYs0rs6ejS8s25n7V1+pxD1dtxPIaFU5D4hD/lQNTlU/P7qg1ojjBe6biHd0F/ug3Gt9ri7UUjJoiCgIHBaIqBWaSG31MjhvdwqdCIuSZn2blMt5ZIS+/lC8p28s25n3c98Tl1yp5wrlfyBUPk0nvK6HfyC9SPpK9livwhD4w+Vrl9IKUQUBBQETkUEmIOUenB4L7XHJfUnEFh+7W35Bd+pdsuY/pr77WPxlCri2KRfJobPyfCr4YsSqBuV/pcRZUC4SvrCFj29XdrtUlL5+LTLDEqkgoCCwGmKgMxN0SUcGKakmKfqmE9Dr4IYp1uWa0D0hAxut+RNf+WzoE6InnKulMunUcGFMhMhh+Dq3xlbJwhOhVsNX8b2sMUZ7Df0cm+YGTGbx2N1FxieCqopMigIKAj0OwJSx61Wa9Fd0NxD5UZnaWd9B3Z3PB6XjjzsgHYCOpVHo9Hw6QEuf1Nv0zvl1gDhP1EDGFpxW+EXbKTV79Z4ChGEgvQfd35qNIneBWbE1JY0v3rEegeQUkpB4FeGAPkt0V3KPCe6T8xJhWObgm/zvubgiP+E4P0NWpHTKfGXO6xTQhQuhLb3c7JTSIueiuLuuK/Z93WZAWs8PdVUya8goCDQdwR4A8eCqkQKftTiZ5AdNtTwdamB7Qr63nVJCp1mF+01ccoI7saMyoWhFtsrhX0EG0N9tT6njHheEQSLM3qtLi7Ej1PvXa3Aivl6Dn4DTT4h5l85aF6pCYWogsDpgAB3k+g3pM2gWenhz187IdBkgjflpy54b0AdKetLvaoWxPAz6IYkBIMLd6fgLgjgVcanDHFtaER0j4VBxaixq8eWFeiatrhBBMMfumAxjCb17XSBI0QqbN1p1Z1cBMtJmaQi4gWeTkIsCpr15ocXvZgUnLK1YDPFMGrCBd1QtYnLG3AkyKDGlgFfY8CqPTLwOCnnRdPir1uQdt7k+IyhEfuLG5pbXe26EL0ugpwFTwZNYgoZT7wVwdURleqCtBiFh0pvXjz48hnJB4uaapqtYjSjzw5gtevIVPzn78aeMTZ6wejolEjzjiPVEIUCGPHlFbfn2esmLB4Xu3JrkSgkKYEgUWYXWALqHMWrT6hKZOokfKfbjuTkd/5Gn7gI/8Zmu2zFR0hPjA5AtVkd7af2z52d/NhNGR9+d7idHWNEx/1JRqxTMTkl8dvFECpHUI3F8yheR+AuWAVWOwCOREEuKzMibieStXRIP+ZGMgnOl3jBZCUs28XjJaXsxxDiEZ3zC0ZLFFl1I5d4gV6SnprqpAcxkBGhNtkVKzGbyz8sccIVDw8747qUaRf4moOrjuzk2dFkxl32oMHoX1+S0xUBGuNS25TxkrLFjTlj4u8fPbrpYylGfgGLot4fi34e7bHSYWNPDb14ByIr1lEREUbWn4hou10enLfphIeMBF0ehykpIvRdnQqwMsxgxAQBf664TH0ezyXrKL8oLacgKyKSFP4yRTpk5qrJKrQ9VdSaGQDrf8gYPKo5IyOvnpP2xZbCXYW1MEYOh2ADSCYp2Q8rAiKgaNBqUmMCmtucLvF0ksTG4udrNurabE5J1IQI89sPnllQ3lRc0cQi4cJBiy5F+bVP3zX90oVD9uRUVNWxHgzVhH6Ny9K1+sSQg4ZfkRQIkk5EuutSlHK80F4FKIunAYXTWLTQzUnKC0pgyiN7fd3zvVJSDxCIXhEnZaA6zgih5hlqo6LHGbSGHcVb4NGEKlW7NWqNy+PWerQejx375IK4aqpDEIoLiB8eNWZVzmfYNqd2Jtg3tgw9LfaW9blrjlZlMaasHKghD7UCQp/JATJoLhotTvuiCtRa2oEXMpAUVNvU3lTnTIhdPC5+Q3Z5aXVbcoS5rsHK2q+oiyAW9ayIokICC4oQb4kXujOel2egKkcQ9waQE8fYPGot/AAzECpygoDuCfS+31cKYIqqm3lOLgOStOL2A1SgzQ9mET9nV6p1nnkjopMj/Ek2bihMAEJPo/5qR1mwSdgxJfoop9F63E7I1i6JR6dBEfIxJKFLjaEH0w72L0EiKiWU6nj75TOLdToyIdTpxu2Fj761HdeJ0YH/uiXDYqKzhBCspKL1/pc3lVQ14ST2X64YNX9ikgYqeVwuh+q9tTnvfpWFbDFhZqMvbAOXhDipw7Z96cwZpMNgR+MWTnRzOUSxeUVAKeriSQ6yKFQb2SQzDdZpCCqD+lsPzI8IM8JDo/8tLW/ekFn8v1U5iEdgvEGPToBxJuIvVQXJxqCjXzdBBtxIPI+GWT5u2zOgopCN3rkhwMXQZA2H6YgxJbK4uPBkPGr0WVSJt/9+3LYDFZCKCyMxlcSDcoBI0Id4ElfUmgbKMkzAU0vsqVpF7iS/qAuMyaVRa6fd8LyrrSn3pw99LKGNFfliqttgDI5Im2CwBOdv+4JHggMuCE7WBNB0mdujRIEukx/K6E1mH78AXurYXwKElcApQrRxyiCTkJ+dIeU6BqjBI6CWm9wtlSIVyFRxD8U0WtbSQR89gEZFSHakgTuCAv2Th6pDuCDgiJhOTRUBm6EhG4JUlhiIdYpIDjrrLsjMpGy8pjBPIBZicUJLOK8AsjrerBApEFF7fE2hqXMuO/T9CltzLXEBFKh/uiDCfPTpoo6OBw346TX61DlXpEy7sLm6eMOLf2SkaNIA6IL9dVfNTt2YVf7J9iIqgF4H3RWrsVfunRsbaSLF1Oq6urZL//o1Ggqmj0/cMSMxxkIN36NpaXE9uXzHz/vLwC4hyvLQ9ZPD2fJYXaPtqeWZO7IqQNJk8vE1av182QSX1G8/jcGaHtnwVz/knZGRmFfcLGgKQFDRzDx4hcMstW4NqzVBL/xBVUqHfiEkQJicHj17Qtxjr2/FcWDyxajwdlPhBdt/kZ81gfYYfgXVYOgQAeQ7peGeYU2ViSTcosnwqumUs0e3PXelZJTodoEl/KPHRY2YbIvXOrCYkbpQ5XZuL94EjKAmlwbHsvXkTe1aeACMVUhycqhwNiA1JHzk3CHnfJ39KTlj4QgYGQKMCn8+2/sO8yhkrIwa64TgLggBB8tGaFFu1nejwaAUj1F5dG6tU0M9HjWSsSnBlU3WV9eg99RK8LEWCIsXHAlJRY2+nQajTd0Wq2lSlF/zIqyyqdURHDAeagmsUXnQRKnbhVkj8gRBx4Dal9+wt6COBCZotFpoQWfwMDygVy2AKzNB3tZUK7cXo/mNTggyGnwIBywSMKghALoWCPPVjkJqn4wzypJBupwYY3hckJqwJZrAk9koBEYsPC0TEpf0l+t4rNish0YioXHfi9t89OgoXA/dNI3VJ2V/8tYMvVb7zze3F5W2TBoVuXh6YmyEf1lV61nTExdMjv9pT8EHq3OC/c3nz0ueMDRq+aoscONNiH5Rhx40NjQ5sjMmCNGEsTGOouSEKtUyCwAKdUcTJlBADP+FkeIepYg+hBOMR9PW5nnw5R+TokPOnBZz2aLBocHGp5fvRkdAz1zBI1Pzx3RZ4EzdhIc8H2gCHdQLKoWjyopAKgcNEBnO1CVDfjcGjjByOGsnLtxs+MJEc1PnjLxYf0OHghEfFx+KqmkYgdLoQRwuz4bMQnIt4IhqYXrRDQ2xSQ6alpJ1U0C0WMM0/gBvHNqk9klpVBh+HnbN1HeCAbRyq7WWyFStRp/51UtV2T+pML4lzSgvmFpbatc9eYWttZFRE1ggjfpEZhLM2gXBqQZAW80oUxwzDSp03ABS0EVonaQ4VZCANoHghE8ihCELRfNUtAE4T7hP6jqgF1AguGC7NMEFSeCA3BwWGpEg8BpBLhKejQypWyBeXBV0TtQ28SCmmxqMA9hALFgcp04kMGBi7UXEmPKDKW/11KGgMVF94hItSbBGaowqtDHwByL4q6PxNPFkv6yOYFOmsNj4cWcWZX4HVypISyrJjMIjlOfcQ+OHj7/8Aa3e6HLbQFasHbJSdK03Lhxic7jf+f4oiY1AAAmTxn+9tS3YYoJit181njonD3X4f//jlISIwHe+OPDz7pK0xKCL5w8anha0eV+pn0735F9mYqT74CtbbTbH7ZePe+CPk37/t3W1zS1ElNADRgQ4dKYhEask3lQwYli9tfCbLQUsD/2wfKhDYXDDikMyMgCBFOWS+hnWAzMWs8bHZoyNcr9J5kqzImTiTFn+Tj/Ah9mTJtY/dlTMhG+yPqE6JoNgvQdzwxx84sUsAZpQDiYhWOAft5ZOlHt622NXiiat1fpcNPKy8TGT/XSWWnvtzoLNqw+ttDpapibNXjz0IrOPGRb0yKKXoM1rm5/OazgMmcJN4ReNuhbrtJjE5FTsW3P4q/yaQ4iPsMTeNPVuk6/F4DE8etZ/UOS77C9+yPuGq7Fsyl0xQUlAo9Za+8T6v9KaMvWaqEFXhF/UOSMuGRwxEkAfrtj70Z53atsqAQv8DfIAKADEAKUuGfUZHegTHmIy+/nAUMamhIH+kZLmZqsdIGIke/6U5DnDI/yMusratrd/yDtYXINos8Hn6WvHozE+/eXBqenhk9PCDRr13z/cU1DRDHsw6nQ3LEoZHBNg1GuqmuzvrM/dm1cH3lDhyjmJEweFG/Taoqrm5788XNPcxiqO69TF78iEwBsXpbEuUr3ih6MbD1Yy14icmn9fNXrD/upJg0JiQ0wNbdb3NhRuyamhvg9tXkvTC/gQ1nSFvh/N+5LpSTPTQ3mTvvedPbUtdiLk9kSGmh66ePhb3x+9aHoSPHBJbcvLaw4XVqORUPq89IhFk2LCTMayJtvy73IPlNSJMgNgYIn/iSsu8CsmqXYfroaps1vkwRDHgwGTn59mX079jzuLAHxucf1732RTFq17ZFoocj6/Ym9js8OtbdiWVebGbNMDB4begHJcfXb6OTOSNb7qooLmW5/90WYjNe+8cuSk9DijSeeyuncdKn/s9e1WJ3W1KTGWZ++Y9en6w2fNSjPpdfWNbbc/82NpZStvFRfNT7tw7mA/s76xyfHi+7s37CkmHViwu5x7DtfvO1K3elPup8+eMyU96mn1jsUZaX+6IB1d2TUPfffozXNjI8xuh2fJrZ9DYEx6ll0ycvb4BKOvvrq68ZXPD/6UWQLYk2KCn70j4+Pvj54zK9Vo0NU2td359IbSyhaggxHeRQsGnTdnsMVkaGh2/OeDXT/uKUUHi+pa/sAZQYG6H7aWV9e1nDs3FXPxr34sePGjnS/cMTchJgBkF0xNmDshBsZw3m1for+PDPB99f4zPvgu5+2vs2he7rK/+rf56HFvfOx7USHhLxtpUe3wCoNXCDWGPrDw6Wc2PHy05qDKjSGaG0OB8LRxAZGJKGMJi1W5p9jbGmoLMZoheAJiBhtMgbhw223VebuQn49gxl/8N5fLqdeqQwZPBIW8bZ9lrXkT2dCVmvwCx17yYGBCsstqt9aX8e4LSccJNOJBGDTn6vjxC/VGU0t1ycGv/wNe4SmTxlx096aXbm2qL4RN04hGo0medmnCxAXrn7wqbvKSxElLCnetSZ1+udbHUJ23Z9f/HnQ6nbAc8g3Uz0rVK3SLiROXJExeXHN4V9y4hSqdvupo5s4VD6pcDlToyCXLIofPbiwvzFn76silt/oFxtQWZ21+/XaQMIZEjznvTktsmsfeWnp4y76Pn6TRp8eTOH5JwtTF1Ycy48efCWo1uXu3v3u/x+WgYYFalb7ohpgRs3W+xsaSvJ3v/s3a3IgBj8HHNPv2tyBY5gf3R42YHzN8hkZn2PTfv9SX5sy7632tj4/GrZt09T/ULnddee7WN+6CDgkj5w9b8uefXrm5raYYVY3h/oI7V+Rv+zJn/f+szfXVh7cf+OLF8df9S4cuDEMN+HV4AxXOK3pSIwLX7i21wmhQjIZS5LFghRhfHylqUmsakc1udeCZU5aKqafR5rC/jxmFx5NX0bx2SwmzDfVZsxJNJu3fnt+881AVauD2Z3546+GFV587+Knlu7nzmzY6etmF44xGbUND293PbURPCMqY477/z7PYEAYDEfe3m/Ne+GAf4iFIkL/hkZsykmL8XS5XTl7d3c9tIhmZcwzwMzx049TkWAsmDU1Njv9+vnfdtuKRaSGPLptGvRrW1Z5egspav73giRV72msXdDsFWhbC+MUdH5y4ePB5q7M/QTpJy8d5bo/JoL5v7ITPc/PnxsclB/jn1jc+t3dvm4vGvXw2ReMhcqx9DScSskvaGL5lxM+alnjmFwc/f2Ljg2uyVsYFJWG5Dmpnlx1YkflafUttdUP5uzteXbHzlbLmYk6ksbWhuqVkeeYrK7a/HGGOvnrsjciPhlffUvHerjf3lGx3aOzv7njl3cz/7qnYhiIc7zU5X3yw5/WCpqMBvrRwBM2BMS5MPsG3z3440hy9fMd/1mR9FmqKNunN/E0OSCbKLPDqp47f44Yv/MvCIWFmnxCjz7KFg25eODgkwACLRMY56VFnj48prW/7cGNegNlw5zmDQswmxNudjtfXHtLq1H9YOCgjLSy3tAXcbVbaP9CrVfdfOnxUQvCq7UXvbSzAZkNKpAXUUCsXzUycMzx+f17d55sKY4PM91449JgtYiac9OPRFFW1rVif/9GGfHhluHM2SxCSg/2NF0xNKKptefrLHIdHdcXMZLfKgeaCTkTj0sIDsXkLdSRoijz8nF3x3g/FW3KqTAY/ODZEEg4atcHjxhT2TwsGr99T8uzX2RFBxkXj+Ta5Oz3W/3dzUxuaXO/8eBSLr7ctHRJsMogkiQIC96P8UuBKzZj2O5kU5GX5eLOy2j5ySOCjN2QMigpU6QhheH20+7XbCvD7xsNnXDA/1U9tgMBaN/lRdDesWt1LpqcuX73/6x/ykhMsZ05MREGkFpZbf9pb+p93d2/NKp0wInLxzGSWWeWD6bBBc/6CIas35GJF1N/f59Fl03nnMnNswtXnpNc3t73/dTa82v9dNz5ePM9FNKnzpW4YzRsVpkNdenSZ2WVfbSzU+WpeuGdORICxuqYF/RUCfMkli9IWZaRW1LV+su6Iv8X0f9dOjArDYFFt8FFpffQXLBi0amPehszSQH/fR2+cwQWYBQHOHt7UbH//mxwIcPd1E2ODfD1s2+H1Lw60tKqmjou6eNGw0qpm0LG7CYG3Vh18beUe1NSRwvo3Vma99NEeRGJwUlbf1uZyzpsSD+NH5xQUYI6NCs7JryfhOgbJ8nEBC3GqXE6PleZzLjsUhG0i3u1xTrj4vsFzrkLRtDlXjr/o3qGzrhQqWKUac+5fxlx0z4RL7x9/6X3IQGNQ/GLUGBgaP2Kmb0js7o8eLzu6K23qxQYfbCuodG7VhCsfC4lLzdvyTc6a13xDYhB5kuDRxI8/a9Csi5urC498947REjT+dw/rzeHN9SV6X4s5Os6g951374czrn8GsgYnDgU1QGrwMxtD4tOmX3Jg9Ys5a98OSxwTPjwDKqo9Oowduf8WWj06VsjsQRE/c3B85IhZ+756sSFvX0TyuEFzLqOewOPJ37q66uju4IRB4y9/CJNSe1sjZi1IAuup1z1hiUw8/MOKyqN74tLnDl9yExYVIIPObBap/aeh4GBYyphBs69APMaAQ+Zfkzzx7MojWw9/v9wcHpVxwzPkwtB7OFp2f/GM1lc34pw7okdOry08iEiHrRW/+754rnDrVx6tK3fjxxDv0Hc0LkEtVBzdqTH4JE5YhJEEQszQDChemb0DSa21xZkfPW6zN5MZoN3Q/hEGTZBaHWbxw2ivqLoBuqHOkMw7EGSgDhMWIAbkZ6mqrQdrjL6G1/8+f/qYGG5XYIH8gxNC0ULhR0Ef8FbW29usrvhofxDkE7vJI2K+2ZT7064i/wDfR2/JAJiA2uFyv/1V1htfHXxz1T69Whtk8aMOCqBpPc/cPTMx2u+7zQU79lcMSQm7/48TyTChrEbz3D2z0xKCVm/K+2ztUbj8oUkhqEcsDr/2+b6i8ibwRyt47bMDn/1QINmnqEeHv2aD39JhF4SYw62OVgd6GrVmWPio2ckLaQyMgYVGPSwoKCXAcv2I9H01tUfqGsaEBZ+RkABlKbD+/8T0OzA74U2PZ6XwTMHmcLTy7Mq91c0V+XWHNxWsA6aosTpbVX15VfWQs1xO+8HKXYiRpHR4nO/veQcrmTA+m9t+w5Q7w3wjqlrLrS73gYrMuMAEt2tiVtVe0OHSQlWUPVKbDdBTgwbHB6Rw5flYDPMuP73x0XV31LfVIf93h1ZKOsqZ8kiSQaP9eFMR/j1y+RjIcNfyXWzZgK0gqt1LJsdhevroR3the9mlDQ9dMn7q4KAvMu12t2vroeo/nJEG7/vIx3ub2+z/uGJcUyuZQmqMOSbY9Nb6Q+v20kbC6swybsTopBeMjMopqXthDc3Fm22Oa+amBvnrapocuO0yoOHVtlg3ZFnRHq6aO5jlkWAjL7W7qOHlr4+gU0856HfOhHgfrc5Oi0m0CkpdAy3mYLZIa0zUp6jd+ZWteRUtNmfYzGFRvFEhG7lCjR4mu3x97rr95eBSWtWGKTUuMAS5cFoi+l3oiCWmnbm1z1w3YcKgkDWZFVwpKttek+SKMCTmvLA6hr6MGjSTgapPrV72j7X/vGX62PTwMcNm1zc53/7qwLeb8lF9W/eXv/TBnj8sHX7t0vSrlw7fm1P12Gvbm1rRjfGVN9X1j66uqKP1q8XTUiaNiFi58QiE/uDbbI7blz/lf/70koXTEj9ZdxSdJfFye95aefADDHc8qlf+Oi8+0mxQa+0e1xVLBjmd7j8++j3U+X5L8WsPzZ0/LenNLw5wOiSrShMZaLjqnHSssX63MR9qYv35x50F581OMpu0F965+pIFQ86clkD51e7zZ6a1WR03PLoO5XZllT+6bOrSOSkvfbSXliLdzrc+P/ThuhxM+v8bPT8+Cp0azaguXzIEc6Y/PPIdCHy3peCNB+cvyEiGAABh446i3y0cEmvyW7s178nluz97anEV7Y67sSO1/aDn+gvG5Jc2ff7DEcALw8DaCtTcc6By2rhoi9mnocV27qwkncb5/uosrkv7L6t69JWwaWwK/POsl3NrcjKLt8B/JgamzUpdiLWvv3/952ZH0+pHzglKGJZx1dM/v3lrbUE2TT1FKuteuBGSjL7grqhBkxAHEdBVkl25PTZr8+ZX/ozGa22ojho0MSRlVNmBzYagMP+IpMLd6w6sfh5zLJ3JMmTutSKxrv+CXeqMC63NTVveuAPEKwv2Tv/js4lj5h7e+IHHZTNHpDitLXqDWRs1GJNsU2hUQ3kBYIcZYO619vnr25prQHfwvCvDkseW7f7BpXHSTJ0qFONFtizP1AHOWG8ktJ/7o83aWLz72wV//TRmxMyc796GqTaUHWksPxI1ZGpLXcWml5dN+N2DbEHbE5I2zscvaPcXj5dkrkU2v+tfiB41Z98Xz0uagJrV1lSy69sFf/8sZuT0nLVv6tS6xIzzqvL27P34aSx4Olqa0xcv8wuKaqsvhQTlB35yO+80WsI2v36bw9o0Y9nL9ibqryqyN9ttzSmTL6w6vL2hhBbnEKCEvaWhtboobNg09TevoMnFjZtrt7Y0lmaz1otWhqGDsC8D8VgZmpnGhfmilyhvcMpaKa0mkCmQA8S0msyYWCCgnapVz6zYadBpZk6Ive+6iQ67as3W/Bc/2I36jok0YXzpwU4QDSRpYmBzuMIC/cAXBylQ9vXP93+8Dj2b+/m7TGlxgaEBxppGq9Pt+eR7NFLaRr16yXAYDR92D0sJiwj2+3Tdkdc/O4CYZ++aPWZoODwcMkwdGRkeZHz/65y3V2XDub66ErNYOG9NU5tt5Q+5QxNC4iMDqRUwmUnT44coS9ys1EUL0s6xqRwYtz+x5A1sKte0Va8/uprMV6UeExLW6nTeuunneptjTWHh8nmzQg14ZIhwQAYQRrdP3PsceuxK0Yn9lLt+SuLs++c/UdpUuOno91sLN1hdNt4gqYvFcQDYd4felyx9RsLMsfEZQUZMeMyoYR+9LzLT+ggC0Gf9KSkvzikRTVXPemcaJbGAAghJoUOqW6u4H+Xx0m/7QrzYuWC5HScLOB9aDYWEBBwoskM3Kk2wn88BbFIiQeUqqGh1uB0pMYHqnaUUw9gVVDfnlmEC4bnqhc3EyKMZlmCBW9pxhJUimeFfydTCLAaDVufvp79+QRoymnwwt9NhcvZzUxUV7CpwfWGs1GcBF1a7Ukak1rc4MBVHf9aKcQd/TIglA2JkpkE5LeawrRrWYJAI40BBlIJIYqCuGf9XN8NXUYB5+avpjYwYVkaHmB0e1x/mp7IUtDtXaoT/t6oSeGgWQ7/MaVP1UhcPDrxxEpKsjqQ1A7en2eq86V/r0QJ/t2To7HExt1w6xlevXfljLoh8tSH3y425c8bHXXLG4NGDQ197YP7Fd3/FeUCLsjpuRegvaJED+ZE0OC7k+ouHR4WaffRaXx8Nls3Bmlk/mUd9vRV5INCR4rq4KHNYqG9JVUtkkBFrwA9fPwUZyN961IPjg5giVHeonS9fWApE0fdm59f99xOaLoA7Bm1Q79vNRVab842Vu9/8ghapUCNGP8ORQloiQ55dh6rR4pPjiBqmfWqNrq6phXpzjftIcQPG75GhRkmAx26cxuFHkSEJIUCKjJNNWaDeCx/shSJLb+enexjCGKFgtsENgHQkYCHV8m9z4ErPnpm8/OusGePiqhpsFXVtJBoFUGX48arHEq5ardfp1+euHhM96crxNyD6wtFXVLfW/JD7NS9ARcjjwoNSJbLCjBDtTzNbIvthpiXUPqU6HY3oZLHwhjkcBi50ok7tDo4dDH1qjmxnwtIqfSfrFTm2/wU7H0t4zaEdvPU1lR3GRNkcOwg5rC31AWFx0NfWXIPDUJbQeKM5rGTPD/w0HATGIqdACLULB0EC45fiIAY5fcBLsAET3MLxqNqsjeCI+7b6ClNABMWjq0FLZXn2ff4MYra983cwRa6gOEyC3bWHduEXGw71BQcCIpL1vv7wgsiGYLc1QXcYW1tthV9gOGJ8A8O0LjUOW404/y/grjfQAZ/A+KFt9eVw7Wpsd6jVjaW59cXZoPjVA4s52hCMmi1kx16vGKAI5Czc+W36mX/wNYfZWqqDU8YW7lgtKIg6oW12Ug2WywuBOKi02p2YKviwjpwlU7VRjbCg9TiBDMrQPzI/fq3699vbn1mRefGCQYumJ+E0Q3SI6d4Xf8IODZHHFjF1jwQKWKDeKY7mSqq6JjI8uMPs/NrU+MDEaHNNYyuMlBkh6IM6WAhh4vBIXKWnhj50A7XEYH+9Xq81++qa2hzjhkWiIr7enE9jRba/T2tFYEMGTH0Xr0RcnNSiDtdk3fXFdalhw/409Xb0UXn1h97f/mplG80WUBxheGjw7uqaBocdMGBXDjFVDtrXYwEw6T1qzHOgQl9Db0hUtpXet2rZW9tfrGuru2Dk1ffM+7dOtAkICscCoXAhF+2sYedfOu5PZU1Fn+x7F/ua0AQZhDxwvmwOemwpxHDj4Dnxy5HFCWFm/WgZ7fLzJPrlpsbMjtZ/3DAmuSwYreGWH2ygmgfZVvHBDHQm6CS0kIgZFeeO7QTyIdQMWazabdTrQZi7YiYbiQEuPgYduOt1qhB/H/zzNaizSmrrmq2cjlwI6ZqrJjQSKbbDBcwafNHRw6Db6xw0YdPUaDjgJBoCY8XGJVCBcBbiKY3Lz/PAweCW1KfVP7rgMuM3u7TpcHkja4FUigdBQpGdGEl/ffQwUDoBSfTZmgkiq+pbn1q+8/J7v8EwZvH0ZHn+77YX/vHRtWt+LsIp36FJwSSxUBvUG8rrNMjs+9TtGUnRgZt2l+CQIfYdOR0VTUEoYG8GTIE+TuvglgbEIEbb6ergIN+gQB8MnPPKGg4Vib2w2m2zu97+eO/dT29cfMvK2x7/EZNIIiSAo9l/uJpg4UeCcLQEtqBSt9kFvugQkdNAHSBzQjiZApCZd3RgOE+BTA0CYGQUyASADIVljdkFNRCSrbDRkAtrv9isAhHOm/1yk0NpKZC3A8W8koaWVsfMcTHAGRveP+0qRg4AhSQpK69T3CLS5rCuzv70X+vvq2yugDit9pZ/rrtn5YGPMCVlxgABSHgmaTsBNpFhtzQFIfoSTVYprIMjsAkvzhpEEOytrZCFd4Us4kQ/IAWlnE6MmUhpOgSHQ7RajDhVTeX5viHRIXHDsXeLzdrQxOHYXGwsOoR1OmTF4AnTPk6aFl1Zw4cKoEZ0WAOniSm3fEIH0pEzQMCv20m1w+7olkauKlVjOSZYRIEnqfX0HLbDZkUcCNgdbahZPYvkBUlL2D/YwLswHPQGX9iKzsdg8g/3M4fpDX61+XvtDXg4jdomigOw+vLDoA+CQJDTYalcbFbzItCgXLQTcyl1/MQzw5LHQ8iCLV8KRdCncT8qkWCl4H8Lq2ghB4tk0Ij/k2XBJeLo12DADg+kJ5ODMIiyO10YnF16z1cV1W1jhkRCxMLyRq1Wi6U1Mns2A8Y+aEUNABHkxF4oCqIVODCaQY9E0Zy+cIGKAGm4YWCF3g+Km3z0vCU2tTnzSrGLjB0kjcmHXJpOSxNfiITCpJ1sYMcMVTAzSj1hcKicScFp2MzaV7UvOYjmA1Jd+2m0kX7G3TW0mIEwIiQYaVnVNAViIKD5QoT2emG5evnDBjM9LAtBrSrbjpLN+Dcpdvrvxl8fG5yMlV6JDE5/w6OQ4YnWMzEuo6ypBE4UMXGWROQEEQpoWmyAzJuERAFwA2KQESuK4KbsbDJeWHs0NXhQoG9IvVXACKnEC+0HVSL25sz0QYHXC9FGC6B1OQYdKMMcMGVttFqToyycQnSQL+jklfNRv9AUkcTYoy3QXzSRwyWNC0bFTUwLWZ1ZLjfx4upW9A37Cxre/D6XCNLaFGtFaMWwLrEx8yQmBvlHQUtqpUgRgiB8xxgxEX9RDCM6dHoGIttuDCJgrH+BLuDCxUAZgogZOs/EUxFR3YiJr+cfn+xn8LWzpAwymWXc6ZJTA/EFkxPA5VApuSsYpsXXgAVzyuDRNGLM7HQZcYaeHU+w4swPBitMjNLKRhCHs6Q0Gv0AbTIaGkPzjtLjWZSRqNZ73vzwACa1YPTH80ZwprwGUQ4BMUgalhgC6yhFt6JW1Teh8atufGwtBKCxBwcW1sF0wZrVxz8QNbZkJShLHS2ZDW1BEU3qvWneA6fTanMkRlu4aQ1JCISUh4saeI+AnDQLYjYpCMCeZcIRJKz03og1YekpHaIKusyOBElIb0BBnCmN9nVASg/zpEjqqrgwSP1pT/mCyfFL5yaD+0draOGL68KnDlRaaijsBj9LR1wabo54duPDN2T831UTb3z55ycpsygAyUEWSTrSJWs4pDP9oxEbC0wufslbADczXgQLlYdoGy8keUTVke3kY8SFMsgGFYRyjLJwzcS2tTYExtJGBqrAHJ6AnHXF2biuLctJjT3bFaQqW7/JFBoTO3IeiNcVZdEMEdRwLhplWLdAMgp1ik14mn2KTR5Z3BhHMXDInCS+5ohYW3WZdIt8qHF+iyZElFWaBjxKO35xSMrIiuyfcY/9YZhEaxP5RY42qoNppjaHRbfWlqPumqoKkFR5OHP/ly9ADKovmb5sDYxI88BmzDRm5dWKSPgtjhUTgCzZaW+F640aMcMcGo9lZ9DnZWkjRSBDf6SawqJXq9UBXzIk1vIVTsOxPFxaqQpQy/4mXYDZJyu3mWeAg2yx0eiQCaPB0g6efoEHzc6rmz0hYfbE6O+3lwLhtBiL3qA+VFgjfWPKw3ZeUbvD0zDFdx84Sj5JCFxx/DITgo57DlUvnpH8v9X7f9xZxrUGAjS3oaSq6eOiF2YkvbFyv1BJVJzW9rjwItFu/Y0PSFo09Fwcff0268u/nfnUjdP/74Fv/8IhSg8JAsF91XRMGgJfnJJWY7XnNJLYsKvw0IiZs+Zs2/pzYbGAM8vWyx95BXWXxKVjrl2QdnaAb2C4X/iYuImAqaalgmyIHIemrKEoKXhwjCUh0hSdFDyIatSjqWmrCDaGBBlD/Q3+S0deDk7+vkFI4uxLGvOw6zAubkqQX3B6xFiSg/lRfzzgZgw1GSyYhgYbg0N9Q3kT2l64CaBfN/mWQaHD0qPGXDNhWYgfHcplayRUmlcPN1nJcCkDZKVESud1ht8dh2uxfHjJ9MSkCP8bFg1GzJacCtgu8gabfJHTT68JoRM81PYgMwjuL2jGmva5k+MXjAkdHht48+Ih04ex5SO1KqukcXZ6eMbgUItRn5Ee8fvZKVAfRQR2DA1uWMzWKclo0EQHG7CvgOsAP31UoA+OpPIi1FMTS3AmCrh0CcoRcjXN9mCzIS7EmBBmDjTS0B7B36AFhWALLd4G+/vg6DL2RYiI2LvRgiSosVtQRg+7fm9JhMV4xfREHKsbGmO57ayhPhhigC2f5RFVFOB1xW9U15wz/J6rJgyKDTx3bso156ZDtI07SpA2f2Lsh4+fdc/V48YNCR6S5P/wsmk+vpodWTTiefX+ee/+c9HZGckJUQGLpsZftnAYdMQGqkCRGhIL8Ke0JUSKHymqQUcwekgoJmQXLkgLCzb60Zq5END4rlwyclh88HXnDY8NN5fgPCHr5b/bUhwU6Pt/V9LjcdiVefLWmQasFjCCrLun4hxeXim49ffRhwcYcRFi8cXSNEbIyEBB7c7MrsDs+c4rR48fGnHPNRMxEv96Yz4VZH3xVUuGw7/+YemwmHBLUSUdaETSui1FQRafu66cgLNdGSOiIQDkJwA9GhDHYByL1VHYgdfrhA6dJaGgzYG1r6jU2ICM0dHDU4Kp3hnsH67JQidzxcKhFbXN2J0CFwAEXTpUCYkrBCylTYidtvLgh4drsnE0b1D4iEBjkAbrAyzQOACuCNUr5sctzMBkCUUPbjAF4CkQXPgFx0IkyECWw02Qe1kmEpLQ77e1NsRPWBKSOiE8aWzanMsE+uRTxSD6XfFeVXpgg9kSOXTBtQFxQ0ZddDdUKNu3AWg35efo/Cy+Pqa6goNN5XkB8UOx1YLFVW6H3FwhJ/Lz9kDrtFhthWxs6CwISCMBUgvbFoBo9Hm3m8NiRy29Taf2Kdn/IzkznBn0MRl8LCjo6x9i0OOMjBCqcna63I5hZ90YljQqafpFgbFDKrO28jQ++AMd/7CE4Utv1euMZfs20sDP46nJ2xU/dlHMyDk6k3/smHlDl1zPi4C+jyUMzhIniYyWUIqUQdFYehQRSdMuwMZqzLAMfowLKkDm4u2rzUGxEcOmlO1dy0nhV6czBEYm45/Ox0eHHd3oFL+gGMwKcGACQ4GN+yrHJISgo+T5YRjgPiYt7Ok7Zo4bFjFlZCQusIm/blshBA4P8Pvo32e9eNfMGWNj46MtOLswODmworoFffeXG/MwDL3lkvEwP1j7YzfPsNrcb64UnukHzd+flY53NVx7dnpSXEBlDdbyhDZLM0uuHRsIQgwosv1ghcPmvu2yCeOGhEeEmm6+dMwlC1MhAJJ+2l2K0wxLZ6Vec3b6rLGx/7555gXzUsgFs3CoEK7OfdWSYfHhpnNnprCaRaHjhuKG/I/3rPj64Ed2j+2/mx7/X+ZryMppjQoKwfWYsLAYo9+y9BHhfoa3snI4IahzzvnnjR477qJLrzgu6Z4k9HhWiv2JutbaRcPOWzr8MieeA/O4P9q7vMneiJYN+eHM1uZ8OTx89F3zHoPrwY7mw9/c4VY7P93z7l9m/P2hhc8hcmvhTz8c/WbekMU4cETWoHFmlx3cV77z6nE3A0G7x/HY2ruqm6tRN3fP/Xegjz90RgU8dMbzwHTZysvBpLAh79Xtz14y4qqbM+5DUlVLJU7w1qiqhO5PwBGdBRv0eWBtGKJSwJWTmjm7Y9uTKP7290exu7ZwdNyZY2OtDuer3+aU1lnhScy+Ps9cOxZEJg2OmDwk8upnN+DYJ/IjtDhsD763967z06+YMQh9PWTOLuYDH9VTXxy8+/wRf1gwGB0djqBsP1oDRZgK9ESnGk8ZUjdNArAFKxJsenrwZTOGMJncS8Ym4iUS6/eXvf59Lk2gsQRGE1sSHqXBWuuBlyUZgMZnW0pGJAQ/cgVGM65VmUUf/FSAnvfGJenpePiadHfdc/5IlHvqywO78+qwxCUozoweRVAXoIyLb/ZWhQf5zRoRPX90HEAqqmvBQeLWJhtaJJOKOlJh+sIEAXe9TpMxNgZDS1y3OdzPvrOjvLYZz0lt3V2xbWxZxrj4GeMSMLdDV7d9X8VzK3ZCsJfe23vLlaPxYAmfDLW2Oe57ajNfX+VL8qANaugpaXLIPP2Og3WHC+omj4ha+cwSdrrhCJ6WyRgV+9OeYmQAMCZfzZN3zUCpxjbbvS9ggEXhrS/3xof7TR8fN3NCNG6rattCAvSl1dTs0fmiX4Iw6GoBr+QiFs9OxqFf8MWRqEvOGHTBXauQGc0X6j/22s7n7jZhtD5nYjza/6uf7MktYcvFVKkqP1/d0xBArWpott7HBED0W1/ujw+34FjH7AkxoFNd3coEoKWO//5tno+vDsi8+dCZAARHq7DQ5VbRe0tA7aWPdt98xbhn/28GVt2z82tufXwjjQ7V6tJqzFAc8Og/7mifWsm7ZlAmcUTnCJd8/5pbbc42tMpdxduzyvdaXbhGfSKLx4lGBs/sxtY7eSauJlzQ9GUvw82AFCjPvolOvqx6YCHo4ggVfC85dUiDv8waQQrWseeLF8Zdcuek3z2C7e263F0hKTQORi5u8URKCMSES5i96hX/0KikKRcmT73AYWvJ/PTxppoiuPmakoOQDk2sqfxofXFO1MjZ1gY600eBTh/LAowfrQueDPUnas22Psi5AU8UwDY2CoQmj4kZOQ8XNbmZOT++z57V1o1YehvOHCFy7u3/K96/fu8nj7P5otvW0pC54uExF94z8cp/IhVPrez6iC4QID1CeOq42FHzIUrFkR2Hf3wfeiJsf/fBKdf8e+R5d2CsjQcsyrM2UyyMzMc0744VMO/44bNj0metfmSpix0o4ZNgbLvm/fxJ0pTzI4ZMQXM48PULeOiFtMKbQ/asHbnkRqhxdMsq1u6Imo85eNr1L/KdWug4448vYLq89okrgClu39uQNz09YtmioQ/TwW/BZ/tbfJMigx5eNgURaPprNpes2pSLKqtsaP5w7ZHz5ybfc814jl5RZeNdTwpt577nNj/058n3XjsJvQeeUXnkzS14kAHWiF0yBDy48vLfFqCurW2Oe575iSqA2w8bXWEzBaPFmjob2ZVHY7M7bn7yx8dvmfbITVPR44EgDuvSWoHbgwN0dz79w6M3Tcf4mCi4NFl57adJcJYepwsvPmMQ/sH6Dx6tyinEOhAydhG49X6f9w09KIEV8sZ8KCXlGxkWUtPmuC59MBp8i8P1/L4DW+sqYTU8Q3FecVLioNZmYS9cKtW7C/WQEeN6VJKLjr4Au4F4/Li6rQFSovGI6yRQB8uoukBfLIWR06WjptylYfvKENxib7LR5qXbV2tsc1thCMx+YIRao0Zn8rGgCKoK8NLBBLJhajEgRWSpZ0P/SSfg+bIP5rgw1jZ7E3NOWI4Dnu1Dba4XrWtRKVpAYChLpNiQn60UQQi9VhPo61PV0kaMNAbsrpCdoUvAvJHZK3peJhijyh7Qhm2Z9TqTUV/eZMdaIFmL2JfhCYtQf9/qRju8LPWS5B7wQzs5rBp52yRSuGepbJeRkrHMS4TQ83D5WSYIT8u/rDDVAGdEBVUqzDutDk9dqwORxIJJDnYEGtLpaU88iIYkDAjhPGgNk3MkH83NDvMVelpXFRVorGq22XAwl/eFRJ5XeLsshCRaK8M5MtgXeSvrWjAswBlOPDiEekEq6EYG+hp9dHjyTMKEya3x1aoS4yyFZc3NdjyPLwa2cAcBWUWTGjABhicZj9lkwGQxvxTNSW0y+rZabaA5LCn4ydtnPLF85+6sKjy8X93QAvmhEVEUdwcGxQeVlre0ODBBgQnw2hcqHTVLIxMaVdBkkbklQVOCEfMqNuBgkOIYndqo14UF+RZWNqMuudDDkkOevG36k8t37sqq0Gr12BsmzqwKQNytcWrdutR4C540haakGtkPGQMMDNZOtUEVycxSpXfjLWB4xgrV5FGlxAXVN7VW1+FwBNw/mStK4bDl5NExl9y+qsWK0RhVIgWMQeR2wuLwQ6YCvZgKLA4eUM/ncCShMIQi+OUjJGbmwB4nk3EgBg1LGEhBGzxOSnTAlo1guFXAsDAqQX5TQCR6dkzpOGVkZHZF1owAjh2tiITBRpmv0dLUWAUKWD8kc0Kt0Ylc3EulGE9xGRw3HF7kBAKkuNicGH3KDLi47qmzLx4083ffPLjExxJkt7a67K1ozLRQydoX04RygyC6DMFsCDcii1cROdpanE476zFoOJ4661JQW/3AIh9LiMPW5rFjDgfFUFtk7sARr7zwCYmy1ZZgyxw+HkQQ0ChkB6OogyCWYgB62Ig1BUXZ6srtTjoMCMnRi8JfTr/tVY3N9cNLwgSXCYnxlgPAUT+DZ7RpGClMD8AI10OjTRjB786vw0PwEh0YCXohkx81Q6jMekJwIbHBDu++jwz2yytuRH+NyuZND9RQ7xi06bTa2kZsl1ApvMICZ6gx5kapYJOfVk9NnuQQDInEhm44ozsoPuBPD31XVIFUgCtYIN4HHmTR55W00D4p0wEJxFGtQ5J/gK6opB5jH2oj5A1RkvpAHFlHH3IUfasT9i80OhG8jn+ZPTBEhI6RszbrfF6fnfHS/qzNZeX+Bn2NDUcUgSANSFAeKJ1x1uJpGTM/em/F3n2ZrBo7ku3hXY9npcwcYEj6RnsdugT4DOjNvRyXDysoGAbV2esIGjRANx4Mph4BnWyVrQaWjNEbbjFkBj5k9zA5YOhxteJfaxXoU3USqlTfyInGi+mvFs/yE8awWoynyXiBbpO9iXoTNQ3zyZVhwQP1RwFsqA2AspYeT4ALccLAnW5sqiM/z0MjALRy3ivh6aiqFryvAC5FBwYwFBRHKyPLgwEQTeoH4ZmoFUEkPHCvdjfZHc0Oav9kb8hLfKkgjpOXNFrRcPkrWpC0bGEqtiuoC2AWBmGQ7cf95ZtzqoEM+laoRRVNk05ygyQ8CyirYc9lQk5IBY+FDIIdI4NHU1rngMXjEv/j7WoCRzYCZ54FZ8Lo8B+OQBCUmIyyF06BF5oUMpD6UBpNWI2nGKlJU68JowdO1LZZixVbBVKQnXoQQk5VVtMG8QCnTmVw65zsCUkyesBWWW+lQyW8o2edCyoULtrq1mQX0KyOVTRhjGvIz5olwxxmQW8zwFAaCNNOcHOLvbnFyvfAWtrgsUAU2VnwuKsbMNsj9al2eMDSA/XLajx/iefqqDOgFkqMmL3BsbGNZsrMLIF1TKw3IEHhLKUxE7VhD2wGS40uvPtQh4EhG5mRBWAGBSg8nuoGGw6pkMNjTNkmP/wodViHi7BWgaUIEpZecMRagRpjRGZQEFdwlsy0sHjDal6TU1xNhz6ogqjrT4oIvOysodPHxOH8c6vdBsLk2MCY7JOhR4rwViOgAt3R3sh9gzfLh5c7QASKoSkb5ad9U3ZLNyxgcgALIWNX0+oNVlU4DjA54SV21IrQlpCJHDMNBzw60G1qKEMFEGnI4/H4GgNGXfxXsCaU+E4nkjyag6teaK4soFUBeAWHp9lZDfXwVh82iUEObPlpCQJohbpnBkokaTCIQTsaGSanyI8EdK46jcuVMvPi0FRhJkDxTJ3m8kMHvnmVC4PXq7U1CpudOGCLjVUMkah9ISAz+i3MudXk8MRmiWajxiM31JSoqaLvItOigAauVtkaaauC3kQEYBm2jCAe3nW1VhVCOGpRAJG6KOzZUgtjUsECoDXVBYoTfkABi1YOG+2GosmiAAmmCo1NT5v/e4slZtNbdyAPDwQjwAEIaK0UhaPL6ASoU8UNGqBK7dhf2vzPT/f9ZfHQID+fOpz5Z3Mb5K9uslY3scpBcUBI7d+p8+hx/hznGBpbmA2zXosNwdkoipJoEkoooVG5MU3SomMBO0iIJ/dABFVE3SIzJDyEtmBq8hkZCfSuhm+yCytoLYSkZGseuGhottW22GhfmE11+AFB5jVddS3NdXijKDsnSH0RUw88YWYkXiuaFYlB5I4bYOxqTCMw8cLohI9NuQBDg/xRaF9NDZ43rbXhOAg8AWrIgeYDshB+UMpgW5t1777d4IiI43LoXkKPXSlBRA0JwtNKCjc01g8SQzY8IV/DujrIhwUbocqhCeoXW+28PUMTqmGOEj2tQnZBTR+I0psXhRMZjAN5ZBeDAHmQRl0WwUaFyQfhwDeq2eOCu4V9IxJ1Rk2PkmG+MDXqInGng9g0/BGMgPwEcrEilJeZProP4I0yLGCISaaKToPPkvBLXHHskLU0lEVHzbx1u3GhIHoQam3ECbmJBQLVFlkgiJMMSCJMkMiGB6xlghV19MRUNCCUAA+UQCxzNQQVUgXSNGAUXAiBQz0hyjKfDsJk73SyibppIoBf9MLISMMXjhURInxIEer1ISTVFI1SYdokH0mKimV6ozmwFsIlZx0G8kInesyVYUyyEkEMJQkqIsgeUwNehDZjR46AVIC4zAqIBXXCHCzSDzRRGnzBlmWGa3BilAMixADOFksbdMySMGTOknSmFArsDCqqgJLIMxLYnCMpQT1C50AMoSNeGcHGA/JkVhxy0rSS+kVwIWr0kjt6Ep+8IiqAmTz6ejpoqvfAJRB03OXARMlaRRnwaAmhSbTYfyQYkcId6hV4wc/jlqFDkv/+3KET06O+/jH3uQ93Q3ka6rE2BcUhBXLyIF0DFqJC4xm+syhakgAO/SHeMHtm+aIng4XB8hGP4jo0YCd6XUYaLZX1UKQ4nB9rDTBCgQhr6YSAVIOQBCgRolhmpTkwDxgSUoXDFEENlU+2CWI0Sqb6wriBnA+NqchWhToCAGRqHGPKj0D2BNSZ1aOVkYmRIhAW+iIHWQh1KGCoNtB6CRWBGHj3LxYGmEHwNkKmhU4DA3B0rrTviGbJwIL/AIA6NksmDMi2oQ2AAW30YeT5QBRJzOez9kYSUCOBuqACCal9IyPJhpzUAKm/BhHSAdKR1dKBf4wMcMUjR1x0m4/OuPW9B+vzD5IqYuD1xYZnJCJAhaUhkSodQLMFvKzi5j+9wjZ3WUGa4NDjuJADz1syMdBrYrmBegO87ZIbAGSFlKQVE4/UofEK66QwlKXVP3Bi7Z/DiCE563KpKple7vuumxwZ7nfgUO1TKzKr6+jzIDThoHEwkwOSkp3jjAeNC4kyFcXbJml/hSpLi/8gBRJIW2iEgLKoGkhO8gFQuhXtiHLJg4afZEQ685HwONQuUAQbpbVWe629jVwWcrlxZoT1eyQ6RHAXFRXmblxPlsHqUk60F9c9XuBlWnElWefb5fujaUxNxsYQIWgkA+Iiktkx1LqMZyw6A0fGA4NgHQSZKcP9BArLiYAddajSAFlWTMpGAmMKy6qfV5uUhOxU1bzzk/hS8yAdWRL+cp3aL0jX3ZuAAABAAElEQVTnjtVPOam5UeuRAi9OhRlBosjA4RkgCfUOaJIwLLG9IQm3wuxT5MKMDT+shVBh6mAQKDPzonKm4IKWRm5VCgQvxBPWUlCwS7jE7AJxxrxDTUkoUE6mERSkjlIsKTcGFOc+RsqMi2NpCqky8RgxtAy9EyNmQWXOWfglayF/LCxbEYw0MKAuCMKggQqPUzBCwg+TVpJZgos8KJsT8OqWl4AADhe2OaXqZC0C4yB0TkI+EQ8IiT69g/NjfpmUIpOQIGpXn8tDpgsXBzonCe0FRdbkyKE4nJXYU/A8oEU9E7vBDwL6Gpi3GAeshM5IsgHkQSoIi/q0XyIGrQb1yBp7u5XynPQrKIIRXvvYn/kYESQSGBlRQYQkySMLpIIoD5eBJ1I8RhXoBuWBeNHYnRORy4wYqMOXcxHPNKImwCUULB/FafkdLZSOdPEGi3pnmQU7x7VktGwU0q4FI4sfEGcDVhFSLiAKUqMkVwW44T2BRjtcPA80hZByhYSqo66GZsm0LsCMi/cbQk4slWnoXdgY5xJWHBPRfjpQI5BJd9KaJdA16xg5QV6PXFTqQyRD7kgFmSENZcMipFaDMwSoOkSyQQmZNHTkLCRGyCnJjIIQg5HE2AZoYbpAvk3GRF4OBY8riVSE05Qo44Lk4ZMHsm82XBNzd8osRvfpb68+skYuHd4US4IEAGsGHawfqtM9A4tDBtSpoYiNhOfGPUyeFwdyuOLxgIDBSliQC+OlKJZZISjzfExxXlDAAI0LWcTirFuEsVItUyGRu5BZ9gc8MDJiBkZMJfrtxBkBKZ6KQkdGkAbbJKZEX+RF7QTXMDkMv9iYC3egTukUBOLsVvjB3A5kkEbNAHIQTQ4xIyWPp6E3crKCRI1fsj1GHgc6tPgkJdCFiABy0NRHVpgJBqDYehUzdLRJoioFYMu0AElCSCQlpeMCkSBJbozxFX+JD6RlXSp1i1SE5UEujjkiQJ3I06ABDAAp1Qfl5IGyUhkuM5FHSWZgYmPnmYVfGoaK6oMAlwt/qThK0V+qF0FCkpn/T7/ITKhJgUiiQIc4lkhHMZgBc/qUjWTsgCswIzQIOlpWEpViqpAw0BtuSwSHkRV/qLulLAxvwVhADaQQ0wEcsYT0l3WXwBk5MfUkIhCfkSJR6Vb8pSIQBgG2Rw2Fp+CeOLJcLAMlEQJsGwIEEHCLf6DGcvIocBFqTTBbyipAJ0JBGSAVMWVyci6ATuBO2TkHRpPVI5OBPARPEGSjEYbIj+XlvASeJC4iZBlwKayWMCH5YgBytxsbwYRAxsgKc4L8hv8SaxgpfnFP3Q2vX0Fr3qw4nsRfxhx3TFrecJFANUIWSBQ5bQYIqw6QAxzEiaQjaNDZ0i4Vojho7WVYNsqMQiQY1xv3zJJlva6INgmPBgYKJIWYgbPDLwLIUG2IPQCJSpK0Syq/Zc2QNXkUocKsPIEj3DGS/AfIkGqiiJSbVgYRAWlFkVhWwofryIQhUl0GxliWwqqD3xMBZmbUJhljjF8IWCSIxMWS7aqJMT3+2/NZKVV/+wCWM+RV0mPmJyhAiEC99somuPsjSNYjEBQZ9QdtoiGHQuKF5iEMFfuLzfHoiOpIrPsLN4khUYZHoGVn0TFIaX24+CVxY6BJAkgXfdCmi6Jewg2cJIGFC9EGuhCif6O8jBtMl+ZYzNj63Yx/KdyY+/R+/0luj3n0zjUONLH+Cv9NlUfuuj10KMIcmJjWtUV1yC9m9d7fdnaiwbfH9IgruVI2ZAedfuzEuoT7RIKFhOBZePJqcuOWX5+ocLfTQkPpSSyQ7XfKXASJMmfUbblOnlEuML/GL0A7ecn+yOFt3CAj1AEX/MIQ+0NkgQbHit/wa/wODG5hYfRQMg9iKxXv++8v1PEGbhAQlOV1IVen/8TvgpKckTdw4zQ5aF2w73PUL4LbgPSfoo/BGoZsAgJ9sUSMX5px0jQX80whmZJkgflREBEDmzvRDXwqhm5CXjabFLN4/2+7q6KFcax6dD1WOKkgWCvGqjItBhASrBPrpP5JSXSZoV2+LpNPHClvwCfO2btUiX6/qMplkEhJxHsn20lLeZv+CQSQWEvKniBzr5NAXGLUayLHFvQGzWO5yGO4IhyrzjtV8nz9dO0N3LjYckX6SdgTkZGz63fcYAa8Rk4kQZ/TfhHcJKm9Zupirw4XKAx3yS8SO7bvSwLQjjKOabFk5KINYIKckuBjyEvRSrQUKEmcm3KaqB1pD8hrikj82QVz5OwKS7Ykqihvx2wnuSPVoIKIEXLTyaqTFOpGsoxgN3IjC+EtDmF4W+peue7m6lQrcnbdJXGyfMeK3YnpyQicPF0u9rHsTl6+5zk6qSAXoOfETlKC8/IGCznNAcONM5WUOonyfUiWWEC1PpDpoqicMq75bRf5+i+Kc5HqqN85eo+yHAMuNn45u37XQs6LX3Ne/FrS8dhsvY7BuSHuYCQ3AxfZPoHD6RvYHk1GqecntXHLDknRiUua6mFpGA4WJ9Apld1yWdq3qKACcWGrozyNiAxA4Ft+tLONY0TgJw0UesZbQibA6IuStOJN6+F9DT12pUBNbnD9DiInyH+52cnZ9VVdVl5OVs6uX4hzInJYOLt+JN4lKbkicgW7zNzHyH6fgkjyDDxuYC2HTpLEGxfew41LO2CKDCQ7b4MGXQYSN/CSd2icdT8aG52jxuSTnRsCWXIROK0FHdlKJmal9FAycx7sKQDMz5AXB4DZA6Zsjoqz/Ti4S6e+mXOQPAT1KrSmS4Gd1oYm/Mk6oj8AAQIwveiLQDif2T4+6CFvwketHhTp//wfxuO1r1Dnl3GlktiQhl9LF1JSXy44Nf7r1VbEicvZ9UVseVkJEOlCnuqla7kiXsUNlict7PSvLhJc0kX/0u+SGmtI7SneY+093CB9J7E7KdWuXv9ddWLRSYD+40OPlXbi1Y/EO4ntPUbHyiyxli6OzdPrGLYGS24Ux+bZaV0s1woTR+hIJ4FVGoufX3J0gA9eNYWH/fHQJ3O7NOGjjp08Lh5ngeuSxCM35mxv++RYUYTNFNlTPb0WtrsF0a3RMyPw57TT2yerAAiHypt+Plx559IRo+MDj/fMT3clY/l68YoGgb5kdtJFjxgfL7OcGmoRt1JdHq9IL+I7kZUz7QW1TkUkatJFpwzeuJXz8h5ukJwT96oKcl28wegENL3H2nu4QR3viX0CrORJ3hMAlL3RA3DhvSe2HJwuryXW0kWX2XoaSWAJy62YT7r/+9c5sZH00h9E4wswl/71Gzi/hOigf90yHW8HRDzcUlFZ60Ov/FRSacUGKlwv3j3+4eNnIv+Nj36fV9bIH3biYtz5+7E7D9b8kFnEbmkzlc9Z2Ropz+LFX4gE143V51RL4JSI0OWHjvZuNskQooHFf1YfCrnA96bFw5a9sgVvS+2j6NL0vbt0IIeUVX4tRfbXBScu/+0XynKCAyA/l9mrjDrBMmAKgq839JLTlF93UrPfb+W49TvxTgT7Xa+BFL5LXbykUSde/X478LjJgZJf95dq8g4dHu5fb+24/z9b8Q/vCKSdUMwkPZonbp5m1Gn+8ca26/+x/p0vckxGT1y4hT2tR6XPmpHABVs6PwW3NIllAX/nTkoaPTSciKDts7NJ3Jnh2tuBi8S1W5KQMCE8nE+I+8j3pdXZeq328lnJfaSD4j2elcrHUPLrvovSiYKcuPy6U7ae3spJya97Suek+eXE5dcnLdjHDHJe8us+ku2yuDfoy2nKr7sUoB8jOa+B4djvXAZS+E6Ye4l1v0PUSWx+6yXhu+Ql53js9QmK9CgJGiGwFxfgoJA7t6TxaGkTYmw2B77rQvNOldbs77M3p2ZDZikoF5Q0vLsmCy6Kz/3hseZNTMB7rfGy5ynD8F2jXZz7c3fOTIoJgB+ePzlx7oQYvJfx/NtX4oURmJeiyJ8vHTMLn6b31dXUtv730z0/7S5HqRWPnllVb02LC8SXhdbvLJk/KcFmd93wyPcV9XjV+XEDf9r1wqSkwUGB8f7+9Tb7R7lHtlVWQQW48PNSE8YFh6QEBOKt7I9MmoA59GO7duJF6FjxxXM/C+MTJ0UEh/oYd1ZVvXvkSBu+0K5SLUtPr7Zax4YF6zXa9w4fvTA1Ed/IenTnrlYn3huFVwrbs0sb8OXpN9Yd6SATQdizeSp38x2IKDcKAgoCCgIKAqcpAsJLiuAJ2P4oOaH2E6rYaHSVV1pHDAp+5IapKfgaIyaXeM8rvYuLMhl02uhw08+7yzZmFpvNupgwE804PZp3vsp+7bMD8C74QgMuXvx4D3t4ht5gdenCwQszYivqWld+f8TsZ7j36slRIfSpPovJAPrPv7vLYDDMGx+HC/ja+ZPiGKrH9VJ4dwSCxWA4UFP34ZHDvlrN7aNG4vPJVErtzqtv3F9bhyXstcWl64vLVhXk42si8OVIv3PUqN8NSjna2JRd3zAvIfbsxETQ8dPpZkRHzoyKWl9cGmMyXTlk0Nqi8pQAi0mPg1MgQ1QLKhvw3Sfa+WVTbWGGDfRYDOXoXlBcafdwUnIpCCgIKAicFgi46QWkCPy983AZ9HwLvQCZYt0u7Z8f/zavpGn88IgX75274h8LF0yNhRvgL45ePD0Rc9dP1x35fP0ROJXz5g+iR2PU7p0HK1b+mItX/OeXNK78Ie/bnwuIGFy12n3erBRrq+eGR9e9/NmeR17fhlO958xO5jit21n8zZYCfK5u075SXNhtLnxgkSUd1+/g5VaYH7+WdeiTgvy1RaXrS8shP973z8OO6upKqxXXHxzJXVdSvLm8CkIiwxkxsWPDQ+7Zuu2tnEPP7d/TYHWMCMVhIvVgSxAy3/nzlvLWNqxv37dlW1ELfZ3UipcG4z0P7ARyZT29Rjsq2ABSUAr/ABfy4AQWv8B1d0KPF3i7Q1TJoyCgIKAgoCDwSyCATyOw79LAK7C322Mxll4Cjs+Q4TwS/Ina2dCmvvEf68IC/S5fMmTeuIRbLx/r46P/an0uDsgumJxQ3+asqGlF/ppG67SR0c+tyMRnA5wqJ31Ulh0B4y/wZY8JYDbo8fP1PVxcizkc5rV7srESqx4Uj9eH0axOePUBvvnDnlgFGuzNCidCBd9uCND5jggKGhYcnBTgH2U0Vrfic8z0jSP4U3zRd0RQaEVrGxZvMS2mL0lioOBxnpOSmNvQnNtcj3c30BxVo6lvw5fmVCPCg6pabK1u1/CQQOjV6LSdGRzX4HA24RvGGnykDCRdPgZ6P0OLTXhKFTpq2Psr2Jt7RR9+IpGFtOOODrpRVsmiIKAgoCCgIHBKIUDru/yhEXhN/gZjuDWDAd/LxUMf8BO++IGfw8fqn1u+67J7V+G7LmdnJGNW6qfXxEVZLEb9B48v+eTJJUEWo8VfHxVqxic1dfwjx/BneCIFHpmeSyGvTM5V47JZMcPDHI5e7QssdPjSICZ2iPHYcUvPrdK+IzlX4f1Kxwcs1Nf83PTJ5yYnlTS3vXv4MD6+tLe2jgQmN0yfSBodHrSnuoY8N14UgSd3XKoIX/8Ave770iI8b4r4AL0+0KDLb2wGyzFBwTtrajCYGBUevbu6Cl/kHRUSfLC6DrN2+uQkBhhqTVSIr93jami18zko5KaPuwlnk48v6DEpiis9BhIlQkFAQUBB4PRGAHuicCXC2ZkAsz7AT1dZQ0ujHpXN6GOAnyPHpvLg89oup8bXiK+7eeZmJMAX7dhftjurYufByp/3FiPHhXNwjheTSQfKYgnUAC8Dd0zrxYgg99FmdcXH0rItIofEWuBZDxc1wsVSDHshHz2GTr6QvS9JeFAHiV2HO0YOh8O7d9vWVcX5ha2teq1nV2UVSUvU3KG+RqNWu7e2hr1TAo/MwoWrzTra+LS56IPD8O7nJyWB++qiYrNWE+Nv3ldTja3WBD+f/bU12HnFRmlmbRWkwR4xd36pEebmNqLPPotLoxDOrmv5jh+rLPAeHxslRUFAQUBB4PREYNSgiGvOHbb8y4M4SXTt0nQsfK7bVghV5k1Muv2KsT/uKvzu54JWq+uKRcP0vuodmVXYIzxrSqLN7r7/5S3cDeMkzkdPRU4ZE/f8R3vZV7jdVodr3PDotPijkcF+dc3W/bm1KLUzq3z66Bg8crp+e8lNl47yuLWrNhyFb+Ow4YLcKlsy5ZE0kRVTj4UWB44aHDZMRsN9fW4fNQJU8ppod5NvZBq1epQN9zOH6psS/M27amrg9pqd9Kqm6dGRRxubJ4eHLYiPxUndZqdtdGgkpp0H6mqHBlrgcffV1GLFGMVxQXyZe06JNkUHmd9ef4hiKNCXc0hg9slt7mt5wkl/FVd6UoiUDAoCCgIKAqcZAhazPj7M/PBNk+AVsK+45ueiVZtyMfXavLtkxpio6ePiZ42Ph8/ACueOveUvvbsb6sXHBGVml8M7cnfiVrkwPZ02OjrQ5FPfYkOGlz7a/Zcrxj139yw4tqyCulsf3wiH9NgbO56/yzxnfMKcifEOh+vVT/YcLWmix2Qw8+MBx6Bor5PcIf0e348i9fvSsgtTEt+cPd3q9HyRn39RalJaoKWyogVyIrWq1Zrf1Pj7QSn41+JwLdu4sc3pqba2fXo0f2lS0lNTgxH5Vvbh1YXF4DIyOACnjbCrOjI0rNZqb3Q6zggKanQ462xtzJurMVtdduaQxjbHun2VJBkF9hIlzKGZo+VR3fzt8fdKQ0PCq2uIMdWCCIr8upuMT5xN4nLibH1P7XdGciik637ncjzFB4ARlAoLjeA2cDwxehEvYYWy0vUAqAN24FJTyx5ck7HuhQonLuIl3DhTCTE0yZDgsH6vnS5VGxjcwKWqukLqarqUpNeRA4+bZNISawgvv+61LlJBtrAr3IVYfP2MuqKKZnqvLn0CRfhGKb45HB5sMuq1+ZXNUsHuXOAkUUqcf0OjvbKhlc8UsQ+qcesMenVooE9pdSuIsHf70ZJp74KfRuur09faaTnapNe3OODFO8wPcS4J9lDvaGun7/bgsVE/naHOae2QtT1H+xXKAnC9WnX/5aMjLaa/v7errLYVA4g+hj7NSvvXArrUxEssvERWrgJYyG8H+LrfFZQIyjs1KbIftftFcMMxCq4Xb2ZyHfuomgSRnKYU2UfivLicGjtX2S9Uu0VkAHCDHBJ0ck27Jd8JM8mpDTBuXC65ACeUtGeJoi/B+SB1TYMdB3FRXkcHggQ/ils41oo6mSvqNgdMVY8U1tPMld6FS+/yxWkgHCyyO9Xcj4IS8iAdF9zXdps2ZYQHxoFbbODy4sf6UcQ3OkgjPvHl2bB761C5G7rhR5EfsOM3Jsw/zOTzt3czy+va+u5HQVCEHZc9DLBv6bXmkq33kMaJsnOFOeV+pC8nyFmcSIiep0miAhzpuudkel/CS7hJdS2XrB8VlEj9Irhx7bgMkiRyTXt97W3cIJhc7C7Z9Vr4kxb0Hm5d1kL/avcL4sZrTVKnS2VPCv5JMuARFBysET9QCm8hOAx2GvYkZU+YzOnQfiqddKXQSX7hlr13nmfo/i93SHxKy56OFTyUvK+GACxJoCro1X0eLGd+ZdP1L28tb7DiHG8Pi3advfeuFPTk6nVNvg+x8urpR0ZyUnIWfZC066JyRl3n8E6sXKl+lKEfSZ1Y7wFjJBeDM/UGa2/QlEsuXXtPBYnFsRcDzNQbYA6wCnIMvaEO0efOEs+iuDBV0vKvkFI0Pdzp5t9T49n4K37ouvsBE0AcyuHPiXbYUIT767io2yG1+wzIMevYlBPOiSiydzYhkm+1ckKS30Ik5ypPPQEzuYjwx1iN0GKu3h/OVBLpBNwHOknuDAaA9wCz855GvxpFvAeRQllB4NePAPNh8NN4ihRrrfQQCvNJ7JbWYwUEKIfcs3QLGOyMYhao0dKGCBGg4zL0XA0tcDJXjWvumXo3UEBZFARFLjP5VLxuiQfxAkLj2+OcPueNdEglKcOThFId/5DyJC3lxfM8mLZjF7l389qOhPuwwNuJUD/eAogB8wrcIPpR+F+Q1EDi9guq2e+sFRvoHaQKbr3DzduleOcp/XK/wh+aFL0oieChl/z0OHAvhB6a9zaMuHDeFa9foGku87WgywXoKQN4NdBkZPlrgYUpo2RsSIIM7BW6bDtWPPoKRpJ2J2RNj43ySTVmpfhHnzHn9z2VtWP+Hp/gpa+u8u+ydyTUj3cSaqApvz69WMilHQDQOmHlJdy4UvTkNRqM989VDQxuNErt+fBcXr/dvB4g3AZKnQHAjfpEdqqlmwj3KduA4DZAJi0CwRxPF7MuTMokxyPm7dnfE/cw4Et116sgUeZCnlhUmsUyPj3iKMybe17wBAr1GM9jO9BjY07ArztJRJBGHhT6nXhnsmio/e0SjiV4bAwXo39/iYs3cZO3DW9odCzNY2P6F7GBoeZt3AZGi1+Ei9wA5DD+IsL0C1O5RpzgsTF9ZSTrBAAaf7csfyuehGGP+31JJpG4FCFdyBWRGEmp3b8AHe7quJDstUrHLS2tzZKmx83VRYK8oNRtdpGv21E9hrTzVNjtMRsM/SJKB5l7BkuHoj278QKjLszIC1y6VtObjKSm4qVliV8MN2+ChmryNm6dLcHL6rSzGxBGkrFJMLYL0L9XA6LOsesfXZh9H/USFeGU2dvnMQclR9MPGIrEjyXVj4pIfo5k7vbktvvOrDNNUam+AN/j50ppc5nNqQONhnvOHx4ZZNxTUP/Uyqy+CKGUVRBQEFAQUBBQEDh9EeixK4Wq/A2NZ02KDQ82PvnlweyCenoWVwkKAgoCCgIKAgoCv0kEeuNK+Y61r0Zndzr2HW3AZ9n7vIf9m8ReUVpBQEFAQUBB4FeBQPeXlzurW9XYosPXXmmVufdEOhNV7hUEFAQUBBQEFARONwR67AXZ5jWVqmxowxuE8XJ9nDlS1ndPt3pX5FUQUBBQEFAQ6DcEeuxKqQA77xQbahY8qNotfyNiv4mmEFIQUBBQEFAQUBA4HRDozV5pxtDwK2Yn++k0G7MrbC6apvbYIZ8O0CgyKggoCCgIKAgoCHQHgR47QTw8VF5r3XGkGp9mHZkQLK33doeZkkdBQEFAQUBBQEHg14eANjQiuqda1bbYMnOraxod04aEr9tdbnfhq3VKUBBQEFAQUBBQEPiNItDjWSlwYl+70Rjw5Ve1usXmQMyxb774jcKpqK0goCCgIKAg8NtDoDeuFK9zhO8MDPRzOp14AxMOH/XjK6N+e1WgaKwgoCCgIKAgcHoj0GNXis1RtccF3xlh0jc72Wfjuv2OxNMbKkV6BQEFAQUBBQEFga4Q6LErZQXwIl5PdYsz0GBYOiEuNsDYFWUlTkFAQUBBQEFAQeA3gUCPjx0Ja7lqT15pU1iQfvzg0GCLz87Dymt4fxPmoiipIKAgoCCgIHAsAj3+9HcHEh6NW+3u8cS2AwnlRkFAQUBBQEFAQeD0RqBvflD0owNz7AgfoJcYSWeG6UL8Gq2UijrB8WKpZnhmejeTmFNKOvUvpCd36UIJCgIKAgoCCgKnHgK9d6VyHyY5Ni8qCC/ooVNOYEFHn2Sekr/IEJFufKKGBWRT45+YR6MhNelzr/3xiVeBx0D9oY/IM7F7X1UDJarCR0FAQUBB4LeJQM/7Z3FiR/5pID2T2i19+lwudLu/hMfRCJ9NZVNSt+Tg+QXEPb3qmKsmaX16Ca9IqyCgIKAg8NtBQO6VuqV1aFgw90w081NpUUZyZt0q3+tMzIV3+gQNdmq5AHzxk0uCPDSTa38xME/EXFZwtL0WYSALAl7MwZlGELzH1TSQoiq8FAQUBBQEfuMI9LyPxifVxIVTt8eJa+5ZvY4j7cuq2RRNcI3gqHXT990gANTgkuAan1ClaCYk3am1yCP8EyX3urR9ZgB1oBRTR89m06Q1bvtMWCGgIKAgoCCgINDPCPTmyzCSCJiVejztjk2K99KFOK3k7h988erCdlaYw3GHSl7VjZcwkWCCp5eynT6uSBqj4IUYTE3SGpHtCitXCgIKAgoCCgKnBgLcLfVIFpqV8umRRyWc8xng2RKmmLL1W0F4tqgr+nW1U7wSUk87J9QJUixlQ+tOSvWo2pTMCgIKAgoCCgJeQqAXrpSO83DPxE/GQrIBclSYdnrosBOfjFr8DCkxgVq1RnAwGjZjw/qzRxUZbI4LM2G3EbKxVPe5M5M+fWKJcOclLL1A9u/jxy2IjSOtPTQFx68XmCgkFQQUBBQEFAT6hECfFng7zZz6JIhYWPLTLML93/sWxEWZcQ0HWdNovfy+b+DGE6MC/nXLdIuJhEf+koq2B17ZVFrdiqnq/CmxN18yWqejF+7jdsu+kn+9mWlzOKPDzUZfHJKCK4JvFRySmvxTh5keccdZqvZIygzW3Hlz2dRY09ZgZVvYtpTm6FI2UZUu/vI8jC2Jx3MwsvwWa9isRkQBks3mHB+8SYqEJEZ4YSMbx+CeP+3THaZdyKFEKQgoCCgIKAj0HwJ9cqX9J0Y7pY4TXM2/3toWYvGDJ7vjyvE8E3zJv2/N8NFo/vnm9oKy5kkjws+dnhIXHlBS1RLsb7ztirHlVa1P/m+Hy606Y1rc2EGRZqMOrrSdAXNg5CHpSVPBRSGVu0aaZ7vdLhxxgmuDV+MTXfbLsyLeo9bQgzmYBLtdLg3NFJGE5WXubmWMOl+SL3S73fiD2TIdKlJ5cEPfqiM/SoqDrehEkYponJlCPirIAkWy7VK8q4JtDdMDQjy1MzPlXkFAQUBBQEFgoBA49Vwp80nc1eE3t6TxSHEDvIXN5tDqSVos8Fp89fuO1G3ILIWzyS9teG/NYT5FG54Wgpxfbsjdn1uLnNn5dR7XbpWaZpnkslSua84ddu6MNJ1ec7S48c6nfmxzOEHh7JnJFy1ICwwwup2OI8VNTy3fWVTRjOIpseZn7pz1ybojS2ehiLqh9f/Zuw7AOoqj/fpT712WZFuSm1xxwb3SwcZAQgIJCQESQktPaCl/AqGFnpBQk1CS0Isx3QZ3G9x7VbHVrN719Pr/fbP3TsUSYAdsmdxavne3tzs7O3e3387s7K7nl/ctL61toa3VZBmbm/Djb49PTYxwdXjfXVPy2Gs7hDcc+gwATiDmfec9uezAu2/teZGuxVZomWaHxfrd/KFT0lMi7fYGt2d1ZeULhYWeAPbfAalAlN1209hxIxNjq1rb/1VYtKG6WsNOczAzI2vOnDnr1q07ULivz1KNG4YEDAkYEjAk8CVLQLMxfsmlHAV56nYcEKUdFlqhYCpnryJYAtxmPBDwHa73jMqLv/2HUwZlRjM+pKt9vLXCGzR976LR1359dFykE7cAo4pGEPN2TNYFM/OfeWvHopWFeTlRZ0/JASYB2ypq2nYX1z/+0ra31hwakpP0k0vHKw3V4bAhXHTm0EUr9q/ZUgmCd1473RognCfHh91+/YyYcNsL7++qqGu76LT8c6cM/HRR2qg/coaoO+Dxc5c6a9AfMPuYaV5G9tyczJcKS379yYbXCotzY+MsMmFXhBA8LSu7rK3pjo3bfSbzt4fkkedQmH/+hcNGjLrggq+FIoxfQwKGBAwJGBI4ARLod1opZABDJyyesGH6gkFrsHORIwxR8q7VdsOd79/1k5mnFKRMKJiHAdSnF+9+b00JXJLc/sAv7vzw/66fNn/WYPwdqmi575mN+8ubAFoCuKYf3v5BVYMLSHne1NzxI9NeW14IgPtkZ+X6XYdBGfGD0mMKclPo2cSV+lGY7+lXd7+6tChg8j9+62kYtQU2Y6j0krOHWi2BXz60qriy+ZlFe1+/f8F5swa/u7aUSxt2Il23x3n19JvDbeFrD37osJjjI5IuKLh0ysC5z21+bGv5J0lhNtiHt9bUVHS49jY1fVBeLnZbNahr/ai09Jk9RVCql5aGXTViBHgDICMAU7ds2piWlrZ165ZuJRkXhgQMCRgSMCRwfCXQH6EUEgBU4Ajk9JttGL0MxZih1QHKWt3+6+5akhwX8e0FBaedMuDHl4wJt1tfX1YM5NtT2vyNm98uGJTw3fkFo/OTHrhpzg9v+6Csug0UgD2H69tBGQOiAbMXg5NQSVFSfFTY9d8cNyI3PsLhtIfBIZiuR1gZiXgVMDe0uICjyF5Y2pSVEZGZEA4b77BB8RgsvXLhSEUWpNITowVHNcxGfI+wqXT1pJwZ3xxzJfTRaTmzO/wdm0vX1DZXINkH5VVzswbcN3NqaUvLktLDKyvLXX6WiOrDCbnB6zdb/OagrYM9Ar/4RBFHkeDjT1av+3hVj4KMS0MChgQMCRgSOM4SoJ7XrwIBTFxpiJqEE+IogtNppyZGhZUbj+NObaP3gWfWX3rru4GA6dwZg5UhF9obbsNge+NDy377l5Xw8zl/dh5IAoFwBB2AEE4ssjUcBy9Npod+NWvKuPTdB+r//OL6nftq4PiDAVRQQxaFWCzeZILpGI5IHFw1WewW2pzjYh2Jsc6EGEdZXeuuImQEr33Kc+2hjx5ccduqkqVmE32gHlz2h39t+nt5SxnOq9pbr1625pEtO+o63FeNGHLPlMm0BksQBjDQaw3CFszVMDT6SijwYVITflRi42hIwJCAIQFDAidEAv1OKyV8CdoJNFImgI24CEdslH13YQMdXU3+CIejzQ1og+pmaWpz+7zB8AhtPDXCYXO5fQLG1oOVbSAVHW4HDT/0WyKpFojHCOZAUnxESmLE1n21t/39YyQbPzwDNENARh9apuLaCMER2XE4P1zrwrGorDEzNepn9yyHSZkpJA0ywrVXXfZ2tIzOOGXmwNP+tfmJGYPmXTP95tve/6nb50JZ+PMEvauqq1ZXVc3MTL+2YASGS/c1NXRlAwwH6PRL+qpngOLSUlNnzprz8bo1B0tLeivRiDMkYEjAkIAhgeMhgX4HpUALmeZhGjMk+XvnFzy3eLfDZr3yggIIY8nHB6GHnXZq1s8vm7hyU8n7a0vbXL7Lzi1whFs2bK5BgluvOHXKmLSXl+xfs7kiJtr5o0vGMte6Q0Ad/AEORaJAI4tMQaHmV8+hU/OAlAh4FeVmRc8Ylw5rKs4bWjtwF2D23fMKyirbZk7IzEiLKjvcopYnfHNl4YzxA/5y8zzM1cHg5RUXjnr6zZ1QhQG6Ov5JWZ0HlDo1Z+7eul1rDi7bW7PzN6ffOzhxyK7qrUhx9ZBhlR2ulVWHMYw6OTkV7B12tXWlE+KcIAr4NwetnK5jClxw4deys3Oycgbe96e79J5HZ5HGmSEBQwKGBAwJHBcJ9EMopb4IzIiLDhuYGnPbdVOgWfp8gffWlr69+hDO126p2jCucvr4gTPHDxLzpmXDtsqH/7UJ1tp/vrljYEbMxWcMxeQWwKXf63vqte0b9tRSrYRaR79gGG25uoLy3AlyMor/1aX74IL7n7vPhv32w/VFgPBrvzHqjqc2EWnNgehI5wM3Tof3b3Ob95a/rFXzRzHZ5tGXtl61cNRfbp4Lah3uQGJsGNnW7LI47RlgeH587f3wPMKNuvaamxb/0B0gWoO3al/Hxfm53xqaB70T1J7eu6/J6+mRHxVHDHRy2pBlx3XEHDpUkpmV3dbWBgUdRvEeWYxLQwKGBAwJGBI4PhIwDxs1/qhKSkpMqa2rPqosR5sYcALYE8AzJceERYZZD1W3icKHUVHBQ6GYlhDhtFsOyhxQvQjgDGZ95gyIbmh217e4EY/hUrgIMQFGUTsNsNDtbFgrISADok6rJTst+kBZAy5tpmBEhLO53TN8UNL9P59+7zMbtuypBT+1De2yfoKQEggEybSUCK/HXNvUJlj92WCGpXQ5mHtEQO1inU7cqPe4BfhlHqx0KQCZUnfmoULdJe/Z554/Y+r0Z//93O6d1G6NYEjAkIAhAUMCJ0QC/VArJbgpOyqhpam9rhkYYg1aODKKGEAsdESMfWJaCwAMmpzmmkRfIh+ug2YbVnUAbOIf1NaALBjUHUchajjFctc2xEMx7QgG95Q1mgGjAZ/fYgGOCn55FfTWN3XIUCVyae7EWHEQ2THt9XA18JUswQ8ptJJg788RBFmNADyK4HZEQJRugTb2Cc+iZk8Hhn9tFtRT1hEWMnC0kvWVKBNU1qqxTV0W5Q4dnNfa4d6zY7NaO6n3go1YQwKGBAwJGBL4kiXQH6EUUMKl+eiwa8ZEEMIOPIGCACECjyisRCSuwWeyWgm7VAep8BHdYMr1WixWX4AuuBazwxTkbBIr1UYJyjEYgIsCxFhKf2HsFg4KQayYgIyYcAJg9PEqaPN4/TCeAq0B5ooBUMEJvIB88HsSqzEO8Gsi6PUdWFoAKwMCv0EsiB1VzUGv2WIjDKO6NEFb7NCg/RwExRq/QomlwApN1pgfSeHHizs4MEvp4YrC5Us0nbvvoo07hgQMCRgSMCTwpUqg3xl4ARlKA+PAYMiLh7NWuPifZkEV4CE8KuVVCQgwi1Ud1Bq3UEYxJqrMocjLIUg5dopSjL1dy8ItAHMg6AH6AoyV4igWYSSFjRi47AOeEsUkgBlm74KvncQ/5YyLDnoJlWSAlVJMsjsANrtQVjTAEsZBWbWQKDppSxWowQJoP9u03JnPODMkYEjAkIAhgS9WAqr1/mJp/lfUFF7iqOEoDLAAOc5Pkc1YoMLBugkMAiRBjwsVBVTDuQaNSM+JmPiPbFBMOR8zpDLilIFTQKHHCjZDQWQMQY4ADMg0m6AfghydfhEER6FRQjnlyglMLDiKE+qpwgXIIaXc7PPAHgA7BNCkQQqpacpVVUAMTpAAsK3TIU1O+IGe2otDk9xCHgNH+xS4ccOQgCEBQwLHRwKqJT8+ZR1NKQBApWlxRFMCEE5T46ALEsy6ktMvO0+ASMAtGkip0gGQ8B94qXIJce08JAImQKCqScWR004QBYIaDBNxaVYF/uloxwzK7Cwpedl3AD80HWtBgFzykqYK8Dom7hNTEUKM8VxPo5+IaZm3NL55agRDAoYEDAkYEjgBEujaXJ+A4vsqshtWEVQIY0wsHjkEQoweSgyhrhOfRKdDZsFDppcxV55IYkHQEPSAVEi5xG25RfoqsQIq2HBJvjOICkh8Fkxltm4C7Mo2M8r4rA5+4EEUX0UQKq+WVy+aVmgTF5RQMaGMTIYYWrlxAo506BXGwCR/dU70E7nb9aBn1ItmX6EzvUhGLsl8ZzxohIQm6bvKRM511RysMiUiya30ObQEiAVBjaak6V6Lrnwe27leEZ1X/aSTYJdK4WGFErBbI3x2JkRFYHXXK67uMhG6WCHOQ9m7CL8rAePckIAhgf8ZCXRDgv5T6x5woUEU2kEzNhMlmzKPkk0Zmmy4C6lWW/EPrEELCOzpbPXouaOHUJWJsrDoditKDL9MqYMiTkLntM0qKtAvNfwTtVInDWLgBGwJiIhvEDMTQrRmtxNdEMs4vV1WqE9TdtdSpLknWaRUeAaVWEmA3QWhIHeVckxOiPT8PTJQ1WYQzyYWTfMyVxgGe6yISEZ0cXLdrWohoUn6kEBIi+fc2FXcxILaGDMiqcqDE0iXgKRRVjQV5mkC7MRXUvv8QedBEyw4CTEc4hWeYj3pKas4ehJKpKGUNDPoBEN5LLTDKzuEVFPVBWxrnGu1Qr/hiGJCJIxfQwKGBP5HJBBqTPpXddEuC3ioNgrwg/aLnkPkUnEMHFKYyhiOn3IPNTRqChAUGvkxzwXJcTfIMU62uaKUaMgkDSXiQKdLc4yIzoCUne0kXIiJCgha8tBlZ3reE4s05spQk1Y6EJp4mHaRFdAlHMLdVw96u4wYwI8KvMu8qDi3/lbbzagxXT0jCLIQCTonVKIZr6fSqoxrpLGabZ2QyWpw0zpKQzk/hzJpREOXPX51w7KKpyzgkEUVH1WhSo0IPCoUp0u1B4WuVSa4hiCwR7JPvyTbIt6u83R1xVTy8rXpHgJgHlxhuyEEvSL6I9Zp6vJEEUqYuNVl0x92ERRl5OW7ekxV6M6bcWVIwJDASSyBT282T0DFpJEK6XBAHqXfSIuv1DjEIFATUoFOu2JxNWEaCzxjQ9EY4kQrCIj1a6DLqkqTx+w6PhGbteFYvX1kQmkrmVKckhBDhUZBo6A5WmQxO+MOMJPaqiy9JPdwTnj2IYueBhoh4qDMgkOrLECBIvRSdNSRZl3sjYJJIc1VMA+i0GtH0oRnVRfSUbgidm8lBE1nJYOgpazZXu63ig6GSmyhDEkTQCiL7EtaVkTVBZeKvopXR8zo1S9BDVKluZiCxdEnpmOu2gSWrABXFBVCHSlFU+tVxXXL/JGl6EX0eQKeofgiQCFWnSyq/vB21uz2KEKJC5yBvpxzzhKEg2QW9CpkMhUIKMRlMj8Alt0CzRkMVcPsI+EAtzDtSojwWZGgkrksu6yqIwmNgyEBQwL/ixLod1CqWlXFllIderSzbCLRipl9seHO3Ix4mwXAJGqryYY9RFWziIWQMpKwtyjIQCul7nbB7MEv3zefGaXJR5tIlNIsnDTAAgdkbEx7Cdg6U9PSdRHohDBjclMXFUATZZEVoIWgi26YRVvLBt3kgELMciQoJtnuE7VoWGa91GCqct8lLWqvVK1EEWfDTYMw8BjaHstStcM5TqwBdhXINwEV01qliQdLYgFmJJ2XcVTVVExZOReWaE44VIIlTXCFfda1jgI4tqsSWWiXcWjFgy1IZlTwWrmWBSTJ+pINihpH3gWw+flcYDtWl/CpgimeXGLyLD26UHvKExk10GO6zx3EpKxSa7NwYU9GLwXMYEoxNj2AUERrhyO3Eh0NBtRKITY7Jx+bbZQD7pIBCgXPGDJFMlUFUIDKCynhLm750OMCJUoJRPhY2V8SN3JVnc/NupHQkIAhga+aBEK6Xb+pF5pYNGqqNUYT9vjN8wZkRKGtRytZ1+j61q3vomkblBl3z09mR0ewXQNUlB1u+7/H1pTXtMFWePqpA390yWibja0nmvJ1O0r/9I+NLk8wIyUqwsFmERXFokLS1EJtYoNOTEWjKNZXXCIKzSSyK7wRnEAMPYbkjkCXoAMSgyA4Y7MqAXn+8fsz05IjcOUPmioOt67cWPbMO7txyXS4TRIAaZyzaFVNnPBceKMiR+KEOiIlp+BAHlCVOB6JSNBgAlYcCpOCTUTSsqo4BwDoAtToS0ZQwLpO3zw9PzLc8fSiXaLQgZ5GkALQK6XS8yZus1AVKBNy2amVEmk4/gr1FqtKsYNDHqS/glM8AVyBz2DACnOBtkgjaIntgCqlpJRydRGGCjuKXyBfKLtwC7wEVkPMlB7FpVVBuOV8JzPW35AHihU5AugsoSxUSz1HJsKEKGaRsVLCPESKmqNzxEckUgJlnPPRs+hOe+9RcG0kNSRgSOArJIF+B6XSKLIJVkK++5mNcVFOaBe/+O4kFYOm7b6fzrBZgnf9Y9PByubJo9Lmz8zNSomuqHbFxTh/dtnYypr2+5/bgIb7zKk544clR4Q7Xd5W5GVTLwHtPlpS2OsUPomOAl2N6/khDZZpQOPeFTAEmTpZ0iAHbahqcDXgZwJ1q7098NtHV+cNiD1jWs6l541ITHI+8OwWlVgAjwqwXkHFkjqiaoSAEJ/6+kpKL2LrThblh8OTBFdhAjCAmUJW4CoTcBSZYKXxKRUnGKALYbaePzvX5zP9881dqs9A3BXEU/Cu4bSUcOQBMEreAE8hcFJdGaT0iaqLMkKYJrWQNanIsgVzfLDicQirpbckHQWt43JkWZ8dQ2gT+A91MpBFPSToiLQBsO9C277OkqIpddTiZLRYO4fsRanWHiuSaXmDNiyVBQQGkLIKCrbZUcCroo2ffrrcPrsuRgpDAoYETnIJ9DsopTxhsEOzJWCAJeaVhN1uN5Y24E2TNSLctmN/w/KNpbgsqWh6/r29OIE5c1R+Ik4WryjEzi042VlcL82kgBw9jyxXLBxx/ow8q8NysLTxZw+s8vjQxFsWzMm++PShsTFhaJn3lzY+9MzGg1VcuT4vI+aBX81+ZemB+bOHRDgtDc2uXz6wArqvYmzM0MSfXnoK9jrtcPveWV382Gs7oL2gdUW5Pp9vx4H6HYW176wqfvWBBacWZJrNW+Mi7c/cfgbw7+5/bjhj8oBThiVZ7bZfPbhy+4E6ZPnRJadgH7dIp72mvu3xV7ev2FIBdWfwgKgHfzn71aUHzp+T77BbsO/br+5fVV7TgvQQz9gQA+6OwNtrCp94bRsiASFP//7c+Bj7svUV1Q3tF8zNhawWLSv860vbfnDR2PkzB9lscJ7yv/ngAhABJ6u2VMAY/vivT3956f5nF++SAV3zozfPBQxde8eHSNMjEE1FL4MVFAOl8REJvz/74fuW/b6kfq9CbhC/YvgIJIt1hE9MSXT7/C8XFb5VWoYhxXCr9eEZ00Hw7k2bT01Om5eVEWW3/nTNuorWbjvK9Sixz0sapYmdf1rw+Ir97y7e/RIwUPoZgSsKhkMFjnNGjE9K8AaCLxUWvX3oIO6Cw9+MH5sVGftGcUmT1/u1wTnpkRFP7tr7Qfkh9AkKEhIuHpI3JDqutK3tzYMlKyoq0SnBO/O94flA5VinY2JKkjsYfHl/4dsHS1WvAGt3RIZHnL/wQmzRs3rNyj5ZNW4YEjAk8FWXQI8ue7+oLo2IQItOHYZcSSS5hQJUVesamR9/+zVTczNjVGKVYO3WCih1V140+tqvj46PCutWN46nBebPyHvunV1vrSganB139tQc5jUHyqvadxXXP/Hy9sWri4cMTLj+0lOU1mV3AncsF5817J2V+1dtKsemb3+8bjp0ETCWHBdx+7VToiPtL7y3p7y67cJ5eedNHahwFC08cEj0xaAX2pHJ7IAGHQy2u3yPv7Iby+zecOnY8QUpJYfbwHNLOwcLv332sLOnZdfUt7+2ZB/M0DddMTkzMRIUbE6b3W79+llD3lp+YPXmCtToj9dNRXpgeUp8pM5AWU0TGDhn6mDyFgw++fr2tg7/tHFpl5w9tKKmFdiHDgNyvbf24JOv7XR3+KA04wR/2/bVIv5wfTvWK543OQv1AgXs1ZqTGbO3pBG3ON7JHwYUKshFey6CTfZM9QW8HFgUj2SrDM1CCMmOsLOzs7Be1EPbttW62y8fNnRgVDQYAxt/3b4jymr7QcGw07PSt9TWwTbQQU8sodjlIGWpErvEdj+FYBHwiH0+j18mNVmw1Q+cqkyWJKvzzJxs6Kx/2b69ztV6+bD8nOgYqvNBy4sHius73GdkpV8/ckRRM4WD3gOypESE/Xr8hAiz5W+7djZ73NcVjCiIT1ADoqjOOTmZGIN9aPvW2vaWy4fn5sREQSyoEYalp0ydWjBq9NnnLkD1uzNoXBkSMCTwPySBfvf9o4VC4BOQUSj8ag0rFQG0YNikzPSjez4qKmsGIGG70P/cddYZU3JUGq8/8NO7Pmpp9SyYOfjfd5312C3zhmbFi5+IRuSaPy55acmBR1/eDleeCaPSQRzN5YbdlX988pM3lhU/9sK2nfvqRgyKY6Gid+D4z1e2P/n6zj8+tf5QVVNaYiQ8gnD3krPzbXbTrx5c9fSbe2+450OPO3DuzMGKbfFxYSufEBvxi2+PhtEXO5Yji8cXeHNFMRTfmEjb7/76yQPPbURT3NjELUsXzM11dfihBf7tte13PvkJnKfOn5eLeI5DBoP/eHnHE6/v/uPfP8bG46lJ4WiygT2AScD8L8DA4t033L3C7SEDyIKA0dnW1o7wMMcHHx+8/u6PoDRD00U8jOGoY4vb3eryLFpR9MbyQm6AI5Jev7MiJT48Opz+ROfPIZ0X3t3D6tCArIlCgJY6NwJg7J5zn7hm8i+GJo/A5aD4vMvHX3fP/KciHdFKblUdrvu3bV9fU33f5h14bNNSUxDvNQU21dZ6AkEg6+82bfxX4QGgXZvbrbII4c6ycHkkxKo06njNtJt/Meu2qTmzbWZLQmTqhSO/ddeCR0dnjsMrAoI1ba6Htu36uKb63q27UJEpqSmQPKqzt6mpwdOeFhn9zL79D+/YXt/R0djBnfjOzMpCP+Q3Gzctr6j8/cZN0GXPyMnQv40qV8f9m7eur667d9MOvJaoDsWCyT5By+7du2EvKT1Yopap6sqhcW5IwJDA/44E+p2BVzWsaBDpMikOKmhS0RpC3cHwlzTjgUZXx3V3LE1OiP7u/KGzxmf+9Fvjwx221z8qAsrsL2/65k1vDR+UcNn8grH5SQ/8auY1ty9Ve5oCAKCBgRAGJP1BH5tCkgvER0Vc+83RBXlJETabNQy2ZXn6VC6hcAXrW7kLN0b7ikpbBqbHpiVFwsY7bFAijHtXnF9AVQR+qsFgRqKGIkgcHWFd/OeFsEZjx/K9xU2PvrJDqoNa0GGnrKZlw57DODnnhldYvskU5bDuL2uDamg32zbtrUNdhw7ohPOGdjedcoMm7ByXnRGdkRhZWtsybHAifHmuWjgCgAP3F/jJpCdFQnRIR3FhEzq/92/PcxPTC362GBASUiiZGoHkJCiL7vPvF86akL1wzuCn394785QB2Oq1or5deQ/pKTtzmQNOW9iSordPSZ9y2cTr4RV10djL61sPLy98V0/T6ubKi2ClBruiB83J4fTDAvCIydQEQD3YzNHri95fgk3l6GkL/1lhCUKAJ7GMWTLHp4RNpasnZk//5rirQXNq9oz2QMfW0o9rWqsU/rX5oANjqrGtqqMdWJ4aHqEDM1RoV8D9QSn7N9etXIUOC9Tq7KiYOo+33Y1RZvhQW4pbmnOj+QgQINUWj0eNUdd4OjBUrKpDnk2ByoqK2/7waySTV1MySJauctNijR9DAoYEvroS6HdQqkTNXj+Wfac51wecAKTa4CwEPxAJ4mVprm5qu/fZ9Y++uv35O86ePzPv1WUHYHX0Bf3wxtldXHvrQ6tPGZ502w3T58/O/csLBBWBDas/6LFh7xe0sjLDBO074DY5IXzVhsOf7Co/c/LgUXlUZGH543q5mLRK0EVza/LIFA618AA0IWBSXKwDKcBURV17bZOL0AEwM5ncnuCzi7ftL6nfUdKo/HpU+67mlRyqdIEZpANgID0z2GwdHR7M0PQH0PozhgveCy6yunCgokZlwm5vcEpS0zphPsV0jsSYcPoAmc2lda319WQAycmGydvSbnPBqZYlsccAzJZ4IhbqhiJIn9ZN7J8TKClrbGpzz5w48JUlRenJEYuWl9B5FQll0o5kZ3qcsIiA2eXreHf3q+/vfu3X8+5JiU5zedruXHpLR6AdCVgdFAbQ5BPEVcAbDMCKrc7F9zdQLDiKGBs8fcQBi2QlAEf9ZhuWUAB06ZHqVo/juoPL1x5afsno700bPBevyp8//F1ZSxkBT9yCYBugHy+6G8GAB0xo/SO8BMBzS2WzG17cCMRXTJwxmyNhCoA5Hv5FkJk54PGjW8P6QnZ0QLM6yb9AvtuMh4TM6CHQARwyVCCqPWLh8tM5lyTGwZCAIYGvlAT6HZRCGYQSBhnDD5OtrcmBjUMTIuxx0Y7dhXBB4g4tmM7R3sFVC4BCba0enzfodHCKA3AlxmZv89K7FW3cwcomSxDTTzt9R9EsYlokFk9AY+gPeqGnJsaHpSZEbNtbf9fT69B+jxueHjQnAh2JJQhseDHlBL6+wZHZiQC/iho3UK24vCUrPebnf1rR7vOLny3hFtwiB4yWbq//1Y8KcckJjgKaJIWA7U1xH6vryc7hVGpYW3OHyzM4M97vD2Jsdgj0UZup8FATmmNFEFMlMakRiQsGxiOmvNoFmCgqa81Kjf3Jn5Z1+PwEWvG3QQlo1rn+A3sJnMaJAwJIhWixOMz1AARAxMBUADMkhfp+srV63uTMBXMGI8HLH+xjDs5VFbblgBjtQvZgx/mFo7+TFJPx8Mo//mDaTd+bfM3fVj9A7RnggiIwg1SAJ9XpDLNaKltayAMxngEJcESaACbRYA0E2WUWowW9hQAAQABJREFUMcmJKTNmz9v4yeqDh8oweYhJ+w6owpiMCdMGn/afLU9Oy5l79Yxf3/7ez1z+NkUcFg0Em9kWH+4IN5vLWjVnMZg26COtGaqFunQ19je1nJkTY8ObQc05mB8bu7OuAQyDV7AHTKaQzZZkpyMMj4BdAfalYLdwOMLOO3vhobKSDRs/0ZmlBHRx6bHGiSEBQwJfXQl07Uz3i1oqHAUrY4emwX91/PCEGaMzH/jlbLRNSz85hCYMDjKv3Dv/xivG49bQgTG3XzfNGWbZtBceNJZff2/Sf/503nfPKxiWFTVheOr9P58NkHl/3SGohmzalMpCpYwBCInmuKHBhXYyM80ZG+acMDR59th0NIMJkdTeqI6YTJedM3zIgIQrLxiVkRZVUdGK1hOA9ebK/bj/55vm5WfGDMmOvetHs4bm0XlYAvCEUKG6Ahp6gDmTeUBKFNbLiQwPy0gOAzTCmAg2kHLTnurIaNPNl08cNyTp5isnQBNfvKoE8YrOd84dNjwr8XsXjMhIjSmvbIGpGaopGMDuqWAAjldDsuPv/vFM2LSRBY8zKTrMbgs6bKb0FIx+aosdomnHXUA4ZgolxUdMKkgfNTh+1vh09BjAIXL9+/1d0O0uO3doTb2rppFmcCFG6GXGLkGNPYdZnRMHTFm848V9tbv+teGR/MSRcRGxqDISQqqD42Kmp2VkRkZ/v2AEQHV9DazW0BbNcQ4n6gxwjcNQM9e8wJJN2nxZZLzgwq9NOOWUiy/5TkiTZs+grwDGJmfN3luzc+XBpU+tfzDKEZ6Xkq8eLbLkxsdOT0tLiwi/tmAkekwbqmtRHJ5dhMUOFsiJzWGXmlHDDFrW1VYj1zVjRqWHR357WL7TalleWQ5qkAwWPBoUGz01LQXVubqgAN2OjTV0ukY1IaLp02aPO3XihRd+HUuF6Kzy3TGCIQFDAv9LEuh3Wqku/Ngo68DUmD9cPwPaJjS299eVvb2mBI3U2k2V606pmDE+e+aELGoGpuD67Ycfem4jzv/55o6BGTHfOHPIN88airbO7w089drO9XtqaBCmuijoCHWLKhcteUjjMdsWLT1wwWl5/7n3LDSpH35yaMyQ1GsvHnfnP9fjEikio5wP3jgLJ81t3lv+uppRJhMm2zz20tYrF45+5Ka5gKIOlz85JmyvNjGRWCsDsZAtTmhFRImY8/rk705H3tH5CU/93xkLfrwICx3iEnfvePLjR248fdbE7NmTsqBRP/baVkwBojaMypkDURFh9984HXSEgTVovoFuYOCJl7ZdcWEBHK9AHCblpLhwcmYKPPb7M8IFJZ763by/vbjzzZUHJJ4HwPcjL2x56Odz/nD9FEgDs2hWbnwLwAwKgNjmNg9coj7aUEb4FBmhLPyq7IhU52AYkunwu3/33k89frpNban4ZE/V9naPC30DVeV2n+8HI4aH2TBkG/z7nv1l7S3IHmG1PT57BtLDv/fs7Jxvf7AUzthYIYFwLqWUlBzMHjioraVZL5Fabl8haHl83QNhNicebq2r/leLr/H429FBUf2PNq/36hHDnTYrHIj+sWsfGAAZdJ7+NGVSYng4puE+PnfmHRs2bamvZ3VMgZ11NU/v3v+N/LzpaSmw7r5aVLKuugYPAGJHZdt87h+MGIF+CW79czerI0zh8VmKiwvnBk+H7R2rVvbFqRFvSMCQwFdeAuZho8YfVSWTElNq69iF/7KDrPLjT4qNDHOaymva0dqy6WKp2i8mRIbZLHApUo27WmMBt6FzDMqMbGj11Yt/bF98EuSYFgN5FmghOekxByqaqUoGTdGRDni3Qs+7/+cz731mw5Y9tQA26GogxVxsfNnCAggykyM93mBNQwc0HoWyuKPxx/E6cN0LGIQqInTkgBi01ElxTvg06bG9MqDdldJxrhiobYAeGbrDElkLTs+VQN6U/RmdCZnxkgEXK4uZokMEQZKVuvWqSVPHZl7888Utbq+aI4u7qLhSr1V9FUHmkDFFXKq6KDrq+MtRo/Fkblm3Id5pr/fQP1aCSgjGYBYIxUGKkkeJ7txz5k+ZPuPF//x767bNKKIzUW9n5LubbEEfgZR+NXpMfLjz1o/XYzJoE5ybqT4eGVQvR39oMpobDMY7nc0uN5Zq1OsLarERzt9+vCHWbm/0+GC4xtgBfY6k9EEDc6/8wdVbN21+4eX/dNI6sjQjxpCAIYGvtAT6r1aq7Ku1TZ3QEmqqtF+44/LRqCaXdlctHk1nYTkdRD89SIOu5XL7A/vKZCYlmlCzqbkdylaotKClrpm6lwqdMCBjbBrydV9SR8tJB+BQtu6/IdKdsYhxe33lNcD1zqAaa1yDgZ7QIqXjls6Ank1S0lVLD8BRnJOaROIEuYi1YJsOtMGc1KhvnVcwfWz626uK29wwiOIWYVjQiphFUqEScSqktLohMYVIRRYH4pkaZgbedMFRRJMqjp0ClGsQ1zkdPDjf3e7avoM+YghqtFWdH3nsjqO4r+grvyee4zVocLs7X4ueJHpywkqZTMgSotSZgf5XwVB1yC6FpoQzfHgBCH2w5B2t+M5MxpkhAUMC/0MS6L9QeqIegrSSaBhpHwYPHioiWruJhZaw2jmtiHrz/2VyKXNnTNB6oQNSgQ6pu19gmagawmULR04ekfrWypJHXtRg7PMXgezEUQQNawOAYpdfOYV9fjJMWVZWumLFRyCoUAqa39Hll9R4NNgMyIV1f7k8IS0HnYaEoyHH8QCmp7/ukdUBk6K2BjFPdfnyZY2NWj/saEow0hoSMCTw1ZFA/zXwnigZowkWTxg2pMBOMeidMF64wyideWhoZfP9xQWFWABpeD85TRY3174g8BxDCYqUnpFrxIvHlh5znE8Udio8ZtHHVq9QLrFIUywkGDJr6zVCpGYA16OME0MChgT+9yRg2KW6PXNRZWgbZKza/zI0zwQRGL7tlvpLv+DMSIxbcoKGOMd+gQWqumB6D94A4CgUOOhhwNKjLQK4BTiRXJhqyRMOJQKHjjF0YnmI7FETgmJKNJWeB4kcU/+A6mxndcgDewwyTQvn6haOgQCmzxxzZY+6akYGQwKGBPqnBIxWoNtzgTgw20FDAuwOBuulsvNJKjV82y3Dl3tBXMG6E2LyPGqQ+wzWQlAhvQeLH1teo+6fNZvzSJq6rRv2WDV+CaFxdcdjC6Ed3UEE4dhoIBceogqKyLGRUrmAypjX25UaEFTdEn3UCjTVCjN+DAkYEvhflYABpfqTpxkVFzIUSgyjEoIVc9CKSjxaT6WL6Bm+1BO04NxGjajAJR0waPcFlw5PWhqv8cPtrnGkMqfpl0ddM2bs0ufo2v84ClrQjEMYfMycqOK015rDuETB/4YaXoAe1VE4qr8P2KTvKOpoJDUkYEjgqygBA0r1p6qNFCrzIGJxjeaSAhIFDisKYAkdPfWXfUII5yrEsCnLcg6CfKoR/2KKFrMnlsBF7f77lwCM6eop2BMnqaNnEyyJvPWcxwCB7IKIgxZJySrKsqqGTvLznuiihnB0Hbdr5k7ejs2A3JWWcW5IwJDASS6B/74VPckF0Bv7IVTANjCafAgVJj9X5ZWAFfl6y/dFxkkB2igcWm3FUmfz/V8XBX0UNFgtqSNg578gyR6GwjAcyeSxoksPE7qOZ5+fNyUo9D7YARJYhcKtTj4/EaTsKhD9Yfegox7HF/hQjopDI7EhAUMC/UcCeivRf1giJ1ojKO17flZcdLhT5w/NtrrbVUPEOS9DyKcSc2KiNKZ63i4nWjuLGKHTSUxrQ2nw5GJDehb46SjzI5pOtcOJRlwKVel6FBdqZDuJ6NS6nihvHcQwffcqdE32xZ5riwyzVLKneVodYxl8ixSG4XgM+HeMxfadTWdGJVGXfSfv5U6vWXpEqpr2h/r2UgEjypCAIYHjKIF+CqVoswBLaN+TYsMfvnH2IzfP1mUi5k5egXW9FaMWAlCQbdiIZwJIcIQhQnQHpxCsYRU5zXmEObtomZjIwTRdQFRrMTHBozspUGBWSankCLaRGIgIHgDJkhHEPmMeyzcGDbqhYKSCYVnOkJiqV00RZEFGMCRgSMCQgCGBfimBfgelClEAWgpNsfjftr112PZLSQ+4gq2wlBsIrZ4hNQ6J1VKugKDJo9JvuWKCoiOgxsVR9ZScPUkVililEAsxWIPwd1edmpUUKaV0Tm5QeKaSkSWMmimQU0R6czGFp9LkgrRbrjwVKM5CBaTlRNWg5xF85kRGDYiKRHo6ASn3Isz2ZF4NmA007Sk149qQgCEBQwL9SQL9DkoBilT+RNXDOQDmxj+vfOXDfRAaUIfohJXD1TI2XCkVJmBOReA8es3DNjB3woDp47JonhUo0qb9AZzUyrTcYNJi8kFt5HZaRCxzIC87bvLY9PhErAgvUVIQyQqeIRIACicgXGJrMMR31VklWacdGVZl7EY+dUwmvF04WaLzDvMdGVBHcMhN2qBUi7EZuYJYJULQWmcAtUM4MrsRY0jAkIAhAUMCJ1wC/XO1I6IdlMUnfzs3NTECENLq8l16yztKWICye380y+f326yWEbnxwNqVGw/96ZktuDs6P+mP10214Aa20XYDWgNL15c++K/NwLNvnTPsrGk5Ww7UzsI2alYLNhz9xd3LPIK1r94732G3YLftAFebC5bVtF17x4coND7K8fRtZwLn7n5q4xlTBmArU4s9ePNDq7fuqyGmKocdAWzBeHIHBm6/ZprVQfj2uYl8SzYefOg5MsAuQh/hF6NHp0aFb6+tn5M5AGRfP1j0ZlEJZuKoLgVEseDsBXan441FLwNl+6BhRBsSMCRgSMCQwAmTgDUpNeOoCo+IiGx3dS4xf1R5P2diuPUQd8zBtg7P3sLG7NRo7FD2n3f3quy49Y0zhg7NiQc8PfnGjqS4sIkF6W+vKOnw+Npd3obWDmw3FhcZ9vir2zftqVm+sby5hXuDzDwlc+zQlPT4mH+9szcxLnxwenRiUuTaLYdRSlOz2+XxDsqMf3t14bINh5dtLKusboW2C3trQ5tv0siMscOTB2bEF1XUJcaEv7G0qL5FW90eYKpprSGYbO3wNrW4k+LDYsMcjy/auXnX4eUbKxpbuFt4XwHYOCs1bVh8nCvg/+funcD0BQNzFh8sxfIQVMNNpgEp6edf/PWszMyKiooa2VazL1JGvCEBQwKGBAwJnBAJ9Mfl7KnwAUlN1g/Xl2PV0/EFqQkJYUo6Sr1Dgjav78rff+ANBg7Xtt394+lTx6S/tbq4xeV9Y1lxwaDknIzYN5YX6rqgWiQPquT3b3sXu6y8tGTfWw8vnFCQCjclFPXuuoOAwHmn5qzcXL1l72Hil0B5h8//9vLC6y4ahV08f/PIqoZm959vmlXb5BKAo5apryegPzls+fn6sgMjByUMzIx788MD1ERpuKXdti9LOoZ4YXquc3XcsXEz+Kx1Fc3KTM+Ljdle30AhBE2HG+pa6xstDvuhQ4f0gowTQwKGBAwJGBLoPxLoj1AK6QD2sB6blXtydTNp6mZSj9uHVe6AT02yA5o2ICpyhQ6q5IvhUI5xAs5kDBIGXwKhKJLwZoqPcSrMBtohkZzLikLiPEykREoxzFZWt23YXQU659zwBilzwiJKRmK1aSVPOCzKpfPILqAR1HRWkaMvHMUtJgyamrzcSiVo8rplhSN9jzQQ8Xvdd9/7R8U20hjBkIAhAUMChgT6mwQ+pZE/YawCjeC8A4TTQVEHEkEofU15JOwGtFQBRZPT0stiN8iiasJ9PTSDrMnvMwfo2CsICmgU8FZ3kb4rCiJNSWWzoiAZUISsJtg5xUX3eOJ9XaAkg+K689BJRz8TnkNXWu4eS0BQsUU4pqUGQpSNX0MChgQMCRgS+LIkoLf8X1YBx0CXPAVt1BVDMNMJh1QzBQOJgvD90QcheaIsrkws68HqwAk6SrvVYxITwhraOkALMSoSucJsIVAMlYsNyLSl7YHZCqcFvI+QGt2BOpmUUU6QVTFSgs7nEfLornar28qVV086e84Z55x1rhV+SH2T0RMbJ4YEDAkYEjAkcJwlcAQoHOfy+yrO7ANnGclhuRnxkVFYKdaSNyA+LyMGybvqoUpdoxFX7Ktqpsq+skag2OXzR2YnR50/K5cDpWaflQu2B2774ZS8zITbr5lqMwc+2VIBZALaIew8UA8il5wxbGBa9HnTc5PiaPvF4kYDksKwL0t4uGNAYpSCcKUo90BHWnap8WpAt+9QA1TWy+ePADUw0FcV9XiUpZ/LiQzhhqLS09PnnX76tOmzhg4bofctQjeNX0MChgQMCRgSOPES6I9jpVQ8ZR/NR2853e7Q8AkuP5htefZ1L2FnaV1sSkvDEfNbqImKu9CbK4rPmTr4m2cM+fqZuQC5XQdqD1Q004YbtI3ITfzzzTORvaii7ZFXtuNE4R/8fpeuPzTn1OxHfzsXkQmxzmfe2hUXbXvq96cBbMflJTxx2+kX3rC43ceppcBttcq9zgaGdc0WjJNqauibKw6eNXXQN84c9vUz8wMm2+7COqC7nvjIk4BVqyMos1vATb2054LLutomP2b+2K2NjY0wFx+Z3YgxJGBIwJCAIYETK4H+Oa+UCIeRTWiTavAR2idUNyzpB2jsIS/EI7FCX2sQCyzgPvDGEhMdlhkXvr+80Q9zb8B3/TfGnTsz5+zrFmFJowaXv7WtnXtjCTIhNd2FAoEIh31Qesyh6tbWDsw4BfQSmTW/J+xEhuXsBSyB5dyVTPEBqy+HWrmaoeKE+YJYPMIaHeNIi40ormz2+RRXKkNvx1AngEqnsKSTQgzWdvrDH++tr6+/7947estsxBkSMCRgSMCQwAmWQH/USiESYInMquR+k4BJmlUBrEFsDKmBqy423CcWcqdLOOvgwm+y0LG2qdmFP8E+aLisJi29FktpbRuyIAYOwCFoJNYGzVaX17ejtJYrCypIAy3ZyBMMAFDt2IRbcC4x1vmH606lvTikTCIhIO+hf23ae5DaJ/AeuiXms+JPSOnM9nEiyjTv0TeYZVmkCiomK3twIOhfuWKJ6iL0QcKINiRgSMCQgCGBEyaB/jhWqtARoIIAUCSOAttwTocj4hyBVoCFKWAOxS2BNcRjkSB1F0QQYNTFOCs0TvohIU0AKCV5YJJFuhAYQkOVApDUBsTFmn9qFNZK8NacfbxBZJG8PnAgyUNjnEpX1ifkKAakPA7TEsI/MwjBUFmqCpotF2T379m9fv36rpbtz6RnJDAkYEjAkIAhgeMmgX5q4CVe0pxLvAOW4KghqyiC9KplnCAbRcWFBqEJYrAU4Ej3VzGZMlfIFchmsfsCnLvZe9BNrJ23aSUmA/AnIn2S6kqwM+GXcCa6aRe6qK8oxF2ijFNDAoYEDAkYEugvEuinBl4ZgCRsKgDDCX2LqGUSPmlo1WGUkqSqqUZJReckCCKW6UPh03CUBDpThnKE9E4AKEjJzM6uBEPJvphfBdOdtMBPZ0eBht/OW8aZIQFDAoYEDAn0Mwlo0NPPuOqdHU0NDRlXAWywxPae9KSKRR2gP0MRh/FaMd5F4T6pamIwa0jAkIAhgf9JCZw0UBpaKoEqGkBUWX3VmOXJ/uDg/cQqcPe3I5Xjk71yBv+GBAwJGBL46kvgpIHSroOjGL/Eagxfnrn1OD92DsGKOqpqpF8eZzaM4gwJGBIwJGBI4NgkcNJAKZxwlf2TeAMFDiv6dR1NPLba95tcMtBLd2XFkbrsN9wZjBgSMCRgSMCQwKdJ4KSBUiAoJrrwCHU0yDURvkpBzb1BjYCm+lJHX6UKGnUxJGBIwJDAV1gCJw2UqmdA46cl+PXcwdeNGvmVeSoXDx587cgCVR32FULr9X9lKmhUxJCAIQFDAl9tCfTXyTB9SJ1IEwzmREcnhDn7SHKSRcN9d2BUdHz4V6Q6J5n0DXYNCRgSMCTwRUigv2ulyh+nq/0TtZbIXqbBqCisLgTEZTKV+TPFFFo+6TMSqgWJ1PGIpArjcYyPj7/1138oGDFGJVHDn2BE8YaFHhCv2FNLOHU+AFJmKpVGz64q0VlbbddSel1xV1cJOn11KWtWhEpBVG8V7CQYymP8GhIwJGBIwJDAsUmgf2ql8NDl9toF8fFXDRuSGRkNn6OS1pZn9u3f09iooMVhdl4+ZNiMAenYWvuN4kOLSorgqsPVFIBVQaxgr1x4OO1UYRUtwyEYw8LziAQOaYvjcz165Oh9IsqIuNjzBw9aVlp5fu7AeIdjVdXhZ/fu18lC6AJpIK8th9TU0FhXV/fNb1369ydai0sK0QkgM1yDyTQ8LvGq4Xldq7O3oRErNIEINnT73vD86Rlp4OXN4pLXDpZgTBi27IUDB01LT8uKjKx1d6ypPPxCYRGm0oLgtNT0M3IGbK2uP29gjsNiW1tV+fjO3V4sjSjr8p+amnrx4NwBUVFFzU1/37P3QHOzWmICBYU7IxZe8LXSQ8Wr1qw8tjfGyGVIwJCAIQFDAj0kYE1KzegR9emXERGR7a62T0/zX99ly4+VA++dMrnR4310x441VVUJzvD2gKekuR3YNDMtfWhCTFvA9+yu3Vhjd8Hg7MUHS3wKLKG0CXgCVBBAhLt3B4PZsYMuGvXt8RmTx2ZOGpcxafyASW6Pr6a9whTEMrndcLQr6KIiFwwcPCU1JS0qcml5ZX507LiU+M3VDY0ed191BK0tmzaMHDV26rQZe3btamlrUSlRyL3TJjZ6fI/t3LmquirJGd7q85a0oDqBaWkpwxNj23z+Z3ftslms5w3Kfqv0kBdwHbTEOm017a53DpW0enwX5Q4qam2uaGsHweHxiWdlDUhwOv+5Z7fVbJ2ekdrmC+xr4mL6w2ITfjNh3L7GpleKSvITYhcOzF5aVuHx+1VXYc7sORMnTxkyZOiyj5ZypUUjGBIwJGBIwJDAfy2B/qmVslrhdhv+Ktpd2xobg37flvp6mnnNVCV9gUCty3vnpi3w5q1yd8zMSBsSHb+1sQYqKFfu1RRRUUyxfi59YpHJhj1NBTrgCWyGYdQfxLYtNiBZDxkirYpRmDoyMX5fS/PvP9kU9PmrXW23jBubHO4obrOMGN7T7yk2Nratrc3j96GY1as+PH/hxVdfd/1DD/ypoaEBZUTYLeE2R2Vbw7b6BmxKs62ungsFq6KClhqX9+5NW/0BU5W7CNXJi4rb3lAHBXR9VR3rFDBvbWianpE+Ny1zQ3WtsBf0mcy/+Xh9k9+3rqp+bPJ0oOniQyUw7V6Yl4X+x71btmJ5xe11tU/MnjE2OXF5RaWq1LZdOydPm1l9+HCPpRfVXeNoSMCQgCEBQwLHIIH+CqVBC/bZXlRSPD9n4KnJ89ZVH37nYGlhSxO2QgsGaMZs9nQA6oImnydgt2JDF6xjjxFBQK1YOLvCIe8GfAfr9/9j3cO6gJiSE2q8sm1LV3utZrBVKcPNlvTIiNe2F/qwd5vNEmO1w3pc4+qw2+3fvPQypNFVWJ0yTqgFW21ASpvVfMbp57zw4r8Q2eELqOpMSlHVKS9sadBztbo9noDfZgqiOljIidq0mKaTIm0X5uQNjouJtNlSwpwNbtlIlRZjJAkAR7lFq8VU0uLOjAqH4gubcH5UPETzraFDqGwjmK2DomKXmzQoramsuO33v2UHo3d7tmQxDoYEDAkYEjAkcDQS6HdQKggHa6QPiuS/9hYuLa2YkZ5+embmjPTUh7ftWl1VaTbbCKJEAuyYBv4DUOasQSuHFrGIQ2hMVMEjMBUxSDYsadSlE76Pc2RTQPvWjpfWla4QWVm6YqlKo2Q4MiXZHwhsq28CGYxRFiTFBU2O0tZ2T9D/61t/qdL0eszMyPr+Nde2NbW89tLzSACTMxTof+8rQnVmZWbOyUhHdR7aun1NdTWKRl2gI1o50gv9GV2FABVRkynSar3n1Gkur3dR8aEDLa3fLxhCtVsqaDZhtSfZcJyVNnmC7kDAqfRxG0zeHl9SWDgHg4OWNYerilubFJPIi1yEekhNuOqVeSPSkIAhAUMChgSOSgL9Dko5qxJ6Fjc2o/Z5uKPjxaKi14pK/jJrxlk5mYDSQNAX2nYNiANQwBXgIWCxhnAUJl3dyCvCAIRUt1W+v2cR9l/DdmxIjnCwoVB+eeC+bCFjr0JfdWtsfFyrP1Dn7sDdKKd1TnrGhxWlwFE9I04UtnXGBC3xCbFX/eAan8f3yF/v94gVl+BtAeJbqlwdz+8veuVA0V9nTDt7YDaglN7GdJbCduUyyIs1naxQsbkJ69ikxEi79eFt2zbW1QH+Orw+qKIkxVK5qRyYhqT8Jn9+TEJxSzPSAFiLW5vtJsuDW7frtmtk0XKZTA572Lnnzi8tPbhh4yedPBtnhgQMCRgSMCTwX0ig30Ep6wI31qBpQGTs94bnvXigsKy1bUhcdJzDtqmaHje0f4pmBiChmVbADFoWBlABS0rxwjL31PRE4QOKILKuvWZl8XtKE+uqkIlRlCkR5JzQqOtsIxMTo6y2obGxoPHdocM6/IHXCks6XX+PxFEM8YaFXXvdT61W658fvK+9zaPwDMqgVCf/+QOFFaxObEyYYyOGSzXm8ct+AzoGWI0X6i93IA+aKttcYGZYXNyOuoZxqYnD4mPL2+jwhZRW7MwaDH5nyNB3SkvPGjAgwmZZW1ml8HLJwfLrRxcsHJTzUWlZSnjE7Mz0f+7dB+deZEQp06fPHD9x0vhJEzdv2oAhW4k0DoYEDAkYEjAk8F9J4Dht/a1QCpwmmIOnOs0ZDiqOfQVAGW5G2u1jkpPineEqWaOnY1N1tcuD3VMCY1NSw63WdYcrgTRhVvu87Gyc17laFVL2RfYo4qnsAZgtZw0c1OrpiHJg/QQzTjZUV7d7vJy+coSzkk7carEPHzehZN+uVozsch9UwhWqH+HQq4PKBZvcro011S4vFFxWJ8LmWFtZgeo4LbbTclR1XIDGkYkp2dGR0FDdQf/Ourqh8Qnrq6paPZ6s6OhRiUlNXnes3YlkpS1N22rrgPHSxzDnxsXnxcfaLWaM8NZ6OrYernFDJRaeo2PiwB508w0rl+g8GyeGBE5iCYhbYb3Pv8VtLoYzHrq9HMbAV2f0FE/ip3rSsX48oJQvtwxS4jgz3PzDFHNY34vRE2fkM8D3gMDTUHac0OorHq1mjJICOdTXAuRDMsmIu8xI71hlx/28T4TZQa0LKfCIQVa4LAGhwZIv6LPK6CTWyFXV6Ys0WIRPEO9yxioMsTRZ4wxUoE9KbSAOsWMfQULxjxKJwVIXJMEIKnRQBkSzv4DF/G1gz+dHBOefamREGmpKLsqC+g5x8ZbUi5T9AavFKeOtHJHVchk/hgROIgnQZIVPu/sHjk5jwPZRs/vRRtzSPny9+34SVc5g9eSVwPEw8KIJx1hjwOKDpmcPBiKs1lJ3YFVz7025ACesnBApu5fyYaixSXwhfqCKAmVTwMOUsPDSKAr/mtA59TLAFYYeu41ofu4nRO8lZW4dn5ySHRX3WuF+AWd8vjafCaqqLWDyQy0FrvVJE8OXGj9waPIxMflU9WWHmWo3/Y0JguBfcBN8s1zCJXsFoVvSr1AFSWIWipR5MVET0lJf3LuX2j29l1US0sQZgFzg3IfC1C3ES0G2nCFDBw/MXbP8fbeL1nIjGBI46SSgvcz8RtiTxIS2gU7rpKhgGJ0QEdho8D/7n2gkQh1NuWccDAl8SRI4HlCKtxqKEVQ6vwVOpZzkWeUxvdaidR77qJigAlyBoEnRywjqmI+KFud+cD4MVl6gdgqkUZ8K/HTg94qvBpdEOSJMH5Q/JZofIG4TpIPm6aPyltU3vtZi8pksNiiJsrGb4CCTyF8vpAJwxcVuqug7EPrAs1XZePHdU58W9dQKVtGxEA2YsEqiVuK3lM6UBF8NRZmM2Eh/JDYibCkCs2Ijx8Rnv9K8j7IR/6wQK8Rjv9kGGZnMdvbdocnLzFqRjH+yM2F7i/e9apftWOQTKsT4NSRw4iXAD4FdSVPgjCjTKVH8NiTwE8YHhu8K1py+vtMTz77BwVdLAscHSvFWQ030WoI2tO4MpqBbe+97ilNgjEqWBZgECyU+hyB8djEB1A4kgipKL1wb7mgDImoTU3wwhCdiKzqpmgLYk/RnXOMLJJ5J0cBl309Wr8WHin8ANS/4sVjdUIsFRInzov/1QtLiAZ9I7qXSaRflmLBoZQcaLBJL3RbQsWLFCBQG3EeVAb7oZCibNeIRcIuoiPKs0ObNQGbYmJkfRZtMy0qr3istt1lscN+FEq5crhDPgoN2mH69zO0J2jhcit4L2TbDUm1btmo5BWQ2ubvou5LPOBgSOCkkQKRUXwY/EH41/Eit6Gny2+S3h8AeJzvUKrGKM46GBL5ECXzpUAokQsMtQ4MAQD8gkcDB1f20l75n5aSfSYdWq596GtALWMFxUy+6oFBtYbix0r2GWKGIg1zA5IW2CxzliODRDpMKBwp/2cfl5wj9GTSh0hHVFIcBs1/GOWkpBZz1+Y2KrilUoMpiqicDswg1yatSoDYCy7grfWuMyhKvcQHaXI6J6jtmy2JZI1YVYoDciLxc6tAHZkgSseybgDGUorFk9ogAMJCK7JCdcGACHkNP9kF4rJeeWN00joYEThIJ8DuVriE+BHwP8HRHwAeJKz+6jfykGPghs9/pxTekYoyjIYEvVQJ9IsIXVaoCJ1CDnofXXSEW8KIv+vgwAJTQrfilEHf5JcCMiQPOEQPk0ABKPhgBJ7VWAxCIqxIh8Os6ygClUM9B25DgH4+Y5hm6VGRR+uehL/1ijab6sBV99iMEFXGp6CgR4Qioo98T1U5WGHo3YY/Dw9RcVXpmVc0F9G8J6pY6F8VUFapNn1XxHKsGGvOokdLijR9DAieVBPiZwGaDQQ12TtnfZccRF/hU5RvprA074AaOdsrDOPtSJdCJH19eMfKec/SCMKDhQJ/lIg11LKW5UTVk0KBLIgVWFbO8CXpCVmGnWnKPOqxK8fmPHMeUTILNMA/JyCvyA84U9oVIgvXPpA+GSU20aY0H6p7CJIXAMWPS7s4new+0ITMQcelYgaB1CwRgu8gNg6CiX4buM1eX292JQ40GthKkUYBWBDMYwZDASSgBfBXsT8v7zD5rKOCrUaf8bI6+Px0iY/waEjhqCXRte4868+fMoKGnICJeccnV+fYfSYRp5CPBUfgLJZZI6GpAZcklR5pxevRJgYL8lI6grOgAgJix55dGZKIOCuMti5DvU3HblzOwXghIkVroM8Y56Gild9G/ZcCYfkBIoOgzTSgXqUHhDIEr2RBRBQNgiWdgWkaZVd2ZVSVGMhCkKn9E0GWgTtRRSU+/FRJuz8x6gm43hFtVLsG+e5l6Q9YtC7sFWgTKwl9XWeFGXwyoPFLWpyfpUVrvlyw0FEBOvR5dI0M3tV+59dnlIpmk7HyOnQ80VOCnUQk9/d5KF7kxgUZApwN5aoXq2Y6kc2SMnriXE9LW6fc47yV51ygpSH/EXe8ced4jmQhPE1PoK+vKBQkwi6pL9xp1fgZdihFHAl6Dsv4pdblvnBoS+LIk0OsL+WUV9jnpEjC6fNg9G2hgjDj2aNRUz5Sd0E5liz1SgVOkwaeIjwpHjB1KFmp7jA+BFs6RGkfIIsKGReFFte3+3ZJcqGXU20oWgkxKdQS5EFdK/xOaavab1jpwCNYsjkIsWldShRmTVWpNcNLsycIzH4/0JxQJIrRW36AyZYNb3EJaNVyK5AgsWvhXNQZNBbfqUpHShAH3p1C9Ii0RyKXYJhH0Z2QpYIlRdMEaRm5Bn6IWsBfmRZLkV3hT9EFKl5gqS6pGOihEyQrMgzjqiLy80VtAAvZMdHFJ10Sn3FsOaXxBk4RDQu5ShJaXvSWUGurxHEFIWKL4ew2hd4mcs96QIX3DuldELPPIjrdRERGaXemxV6hfq+eupSRj7EtJAo0NJSiUwnglcz232D9U1XBUj0AdVaReSo8TpCFBCepNYHpMqO6RrvdLloCvCXYbGlqlmooxdOw4PIH3Qb0Goa+JnAvP6qj6iEhDOpoxlufMLUec8/OiyQjikQrppKQ4VSiSGcGQwImVwOf7ZI4vj+rb1pt4fH74jHSkZNMVapsUXyoGnyLbhdBdpEEAKRqCAjCoYlaK1l6DoBa0z1I+Uaw6lDHpznMeiXREs3GU5ggtgnjqAn1Vm4uU2rJBoIwWZFR+HNYIVG2B6gGockEfgMomRkaIcQkfIPCGBYStcP8B/5wsE+IDcAgnZWkqgKQYL2V6pKF7hRbQLKEUychHhtYL287gBOh15CPE5Fet3ZHcRGfyDSHyxAo6Mm9AVVtJY0B0zh/n/21gYj7rEhqFVfo74D+EFrJaBYWPNKpYObLNh4c2pE1cR9lsKKHlC/+qFBEX64XHimURFQNkHqyGGk2c9BogN7Ak8kTJWq17TRmKVEMJXvAjrISi8Yst5S1Q84lGn3/dRIpdXi1FCJfYewDn8m5gSJtD+HzxUDP0MTADSl4b1FEF4pL0t+BozRlNQk0Iqv6TPBozx8mRjLn45IElmmSYXpO24FXnSyGYigz0X8POg3jV+TjkYVD+uKDogEPsUZBhBMaoEwqHGYR5vpzkX11qAK8enUre8yj3tOLQnWT3UU3rlLLs8Bq3+PGqgw0WTRTUqKE4BHVkqSwXo/jqSUnl5fViRuUnIWtra3QgBwWooYoge0/OjGtDAidCAvwY+l2Qzyo6zPHAlMkDo6LBHlo9TIZRnw2+zE6mpTlQzQRgDyCBI5IBw/htIyPbeAuOuNDBuLO+2mfJ8sZmTL5q0g2vbH+u1YvNutVAKRsjZkbAh038QOtGsvL9Wy45I+/un878+XfG4S4oKGjEt67ogxMkxRRS7WvHqkno7BNfvZjlgwbXBngG/2jiiJNsjtl7gJOt1A/xql48AQnAKFocALrwLHT0xpEnyp9LNVisaRchkR8UjTaNfFJ3VMoQ3aHlFiLLWw+tKFzy05m35ibnBeE7TYIa5+wiBFgPigWVAviBuLDBZpxcounFdCEo3dj0DU0mOy5kWfCDlSKSsBZMI3VX2Vm1ALeNQ2Ic+wooITo8ymlxQJ6qN6CeQq/pRVyiOrNElGxVMKYS/2bC2LMyc/zo/ciKUUrJ7pVO10jFHt9BCTq36kkpQKWeipeEIES54bXBfwoHuUR6ECOQg+t7yJtJPjFlWgSBegFlCTvIyrnXmMosOwXxcUkQHAIxXHRl7DfjTzktOwc7OaArZgOWIZ8EUABwoXjgK5Be3kEto6zexURgFAzIW0qyCQ7nA1MnDYqMImMoiE+fSKcIHnlkd4TwLO4/qBf9gLhdvXr0Xk79tuF9QEZOV1FBeyeJqZKX7wXkI59DwGm2PzJtxui4BNxFdxUwDIKdKeV5QaTdX+wQPJMTIxgSOJESIDD0x2AxR5mtmdFRETZqb0QOMxes11jVcUL1efntEYfw6QKf0Bagm6ycaxiJ1SHkQ6MFCRmlfUca/CGo5iDGGX/lxOuX7lu8omRJKBI04e+KZjD0lQoCqSYAbRDavbVbyg+UNCxZc5CEaDAEOWKw4hItIy7RsmgBDag5cNHcwd9bMEr0TouXu3cTY8gViKvEnBerIYHKeOro9Fu+OwE02aaGmgylASMCnQa0eyxZypd2XEWEyiVr5Eja0+CF8/Iunz9C3UP7yxPKkI3+Kzuf21656ZopNzr9YYgm4iq5AR5QDykaDyKIPgEIqkfAqUm2vNiYy/KHgBM0f6q+EAUookTwCS1QoTL6NMiF5h69IlaHjwb8Es61hpXc9AyD4gbfc+5jd57x6D0L/n7lpB87HKF2uWfC0DUgHxo/F/ag9s9nbrXpb05+bHy802H3iTMzqh/Sv0OZu/0qIFFHeUYiLi2J0p8oWD5oHoEtkA7H6RlLvRJb5eLJ+iBJvEQ6HdWlk7rT+wyCRXoQAfzwXaOIeII3WG12BGLyhEmBNQq9j4jPi4lJgEQCmPLBDYJQKiIR8A1gjQ4bVpckKgk1dQMpNGBjvNlqAVpiUWmQdVotmdExWCmac8/kqwHofspzAUvCD91/bH68IZC7HYWi/4SioJXaTNBKwQ88D7BKGCL5CeOWMuSKNPjyo47KPGCzmhIiw8KcMIEwwJsd07KZQQLqHQh6ICG990NRaDbhkGxDiY1fQwLHXwLat3f8C/7MEqk6sZVhI46AtgY2PrZoaFlCPqiIV3QQi08any7wSbU7SuVCO65uIRm+T2IA1xTEVwgiJIVM+Mi/PuZyl8/91u7XdYK4hWYIKWik6gxUE5gLE2RMpkPVbT++Z/mm/dVoNdkykhrhh/egZ6Bx06yvaBCg2LFZuGBe7uyJA1QCVkcFmQPD9Rs4p7SzfVfMzBk/YMbErFDSUA5NXQCH0jxRDFqzw7ohSLOlUjMvcRFbr5ounDto9vgsrRYaEUnO1iv4wua/2622Mwrmq4xSFZJVfRhUDdDIyfAIqlkki35szz4xJRmcsNeigIStObVSKByoFoQjdeEmcWxSac0mPAAwJF7jXBXa4/jDqTeVNZbd+PaVt7/780ZXHerRI0GPS/ZyON2WtlNWE811kBOCVTKBMbwTKBmRyt+7B4HOS8Ubjj+64WcLF17IdlyCgBl7MFg4g6xTX6ceyU4UxEIrrkontk3MdWalCXXkh/0k3ud/WK3xwlARpYjQC+Sjw4Qu9lywIgjkjpsa59JnAiE8AC0SKK3K8cqi0CCiLnHE80LXCnLWsguH6q7qhKF81EsFJRwWLUPgqAWKAC2Arl66TrnbidgtkNILVkDL5KXJgX0DfLbop0h1UFHEyDvDjgIKUYgKJpUMgpqajjzSZ8MrwY4dZEtgZgYeWGcAJ78U4UqKZplGMCTQPyTQFSf6B0f8xviRsWEymQbFJlw1YuSAiIidDfVP7tpb6eIuY2xMVLJQQ4NItstoj0K9dvWZqfZF3ZIYNHb8LDs/QoGE0Rnj39n9OjbQJnF8n2KDy02PfuBXs+98atOa7WX4nm+/YWpSXNgPb1+CNHar5eV7zlNKw7Z9dbc+slZBGhj4z53nLNtUOqUgIyUxotXl+/dbu15dXggGrv7ayPNmDMbAKhrWNx9cgJT3/GPDqi0VoHbPj2ajhYiNtA0aEO/3+pZ8Uvbwv7eirR87NOX2a6dY7WiLA8iClEs3HHzo2e3ooJ83Pffqi0dgAvoVf/jgzhtmZKRFBnz++T9ZRP6lejhRgQovjXmBH3xt7IIZgziyazItemA+Ut35909Wby2nZqZBnQnG7S1l6ydnz1q860W0bNAqVZv/jdzcofFxOTEx2J/nxf2Fn1TXqBtfGzxofHLy4JhYv99/+6kTMVh9+6bNbX6AAR6E6eyBAyclJySHRWBHneeLitp9vjCz+bcTJ2ysqZszIONAY+POxqYFOVk76hof270rxG/P33C7Y3/dznavq83XBvO7PPmeabpdW8wOs/W7Q/KnpKdFOsxNHYGVh8teOFCEvXFU3mi79aZxY8YkJlS0tz6378Cm2tpu2Xte0Fq7e/fuOXPmtrQ0Lf3wPSKoNOyJzrA7J096ZvfeS/LzEsLCipua7tqytcnLpaHHJiRcN3qU1+f/1bqPf1AwfFxSEuY7X/HhcujCTpPj8qF5k9JTHWbz1vr6x3bsavVBpwykhIXfMXnSc3v2XZKfG+8Mw+6zd2za0uL18NEhUFUlnuA/gAmKNrqO8lhNMTb7rePGojqH29ue2bdfVSc1POyqgmF50fGRNsummvrXS4r3NjXhoYA3p9n6naH5U9PSsBVuo9uzqrLyhcJC7KpLqiZTbjR2NhyREx6+o7H2yV371ecmHPRy+HZ+bmJ4+LC42Fi7/bkDhfNzsp1W2z1bNu9pbEwJc35/ZEFuVAysSptrasEAIoV/E9Tfy/Lyp2VmRNhNjS7/qsMVZCDUAUUxePGcZstPxozKio66ff2mqo52CBzxmRlZc+eetnbt6gOF+5RNSTpjHIwwgiGBEy4BfqH9LaCbrEPdd/Pz3istvXvT1qFxcWdmZ6I5QFBMa6yHOuPKIHlewcXfm3TDFRO1v0vGXSlthGqI8EFKQ6Q6s1BwBInjwhKhwh5uIaohBtiD4qHN2J02m80SLpu8oSedEOOIj3FI+Sa/P/jsmzv/8cZOdLHjYrAFm8C+ZI+JdCyclVtR23rv0xtQi+/MH4GyAZzvrS198rWdXk+grcPz+Os7n3p197Z9WiMeH+McNyTZYbX9/dWd7e7AWVOzxw9PAs2i0kZkKSlvRPONkydf2/36hyWoJm5t3H140fISu9PyyC3zkuLD6mvbVF1wi8yHAiJVg4uKf7D2EIh43L52lwcnT7y6Y/v+OvbxNd6ldQoEK1vK48ISYGIE20raIBZrd2yva3hh3wE0xD8fM9aBNZNYSKCwqRmbu+Hk/fKyj8oq3zp4CDiKG9h95pdjxnwnL6+4pXVPY9OZOTnn5+SA2vC4xNzYOLTX26tqp6SlnpKQuLGmdnJacojfXn4/OrDkrGELTxt6fkHqhBEpY4Ynjx6eOgaLI/aSVKJQ5XkDMk/Lznyh6MDv1m16qbAwNyZeoIjNMR7E6VmZZa3Nt23cBP3sO/m5fdFR8XiCCB8seWfDhvVz554+aeJUeTmo0sGGGeuwXz1yxAuFRS8XFQ6Oi/vR6JEqV3FLy/P7DySGO/9vwri86Jh9QBEpGiK9YviQeVkDPiorf7W46JSkpFvHj+OCd7SImqIdNuDu8wdIDS4CPwlR45PFY5TnLnRgLe3ED9S0vJ3VwY703xmSrx5Zo9tX2ux6fOfuB7buTI8Mv34UGUPpeDdOyxoACbxUWPS79RtfLizG44Bw9Jfnsvy8JYcO3bUZn1sCPjfk6iugRwEcnZqW/Ny+fWXt7egfPHdg/+H21tmp6SDY5PEfamoFA9iCPiMy/EcjR+pFzMvImDdwwEv7in778aaXi4ry4vB02KFXdh08IEfQ/LMxYyempj6+e0e1m1sN4i6+4nPPv2Do8BEXXPA10FdcdZVDX3wa8YYEjo8E+p1WKsin1E5+MPgU19VU4WRrbUNBQiJxQj6tTulIE4PvjV4+tNhJu0A/Izj4hLBAUBPNH3LhWxWM4MiN0lnTotLQztS31fAu6ZO2JOOJCmCFt+SbB1GMAb68rBAxl5w1lAn0Zo46i3lPSf0tf16LyFFDks+ekg0V1uPzl1Q04e/rpw8BDL+5rFCjG/rp6AhcffuHsGZv3Vf18I2z588YuGF3VYvL+8bywhGDEnIyYnESSsvfyrq2VZvKL5yTGxVuu/iXb1185pCzpw+m6NiBB8yxqdUbL8kYKKloEAbyfD6TosaKQBWh7Gh4VSBd11aN9AmRifWuWq3FMpme2LuHBIOmKIcDShg6EKL8WzbX1UEhw60XDhS6/OISItJDez0uOeGmdRuKWxuRa3h83IjEeEuhaWRibLWr/Z5tmzG2CpXo7q1bLsnN9UC/CgV5jqIhCR1Eb6vaODln+vkjLm73tDjs4Rj/a/O0/f69n7T76ZNyZMBDSQpjj2dbTV2ly7WnuemD8jJcimcXrM2mD8sqn91/ADbE90ojrigYqrR2+DyPKCjgI5aAwnHmsDn92Mgu4EXbvW/fnvzhwxcsvKi1tXXX7h2oFEgi/UPbtq2vqcVldnT0qbRy4z0MNvt8u+q5r3tyeMT3l62ckp4Sa+eH5jBZ5g5If/9Q6b8PHMAlxnMvG5qbEuGobu/AJXi7X6jhHJvUnpqSypUeSU/jSr23golIwoDXHdV5Zi+pfXCo4qqCfFgY0HkCrD67f58kCXgD/l+dMiY9PBJaOMSb6KT73pbaGghnb0OjCAfy1x71A9v4uSEBpIfPjWWzc9kthJ4RuYJivbqqanxyqivgXV15eGRcQk5sFLhyB3xAViQAAZ0B6LhkINyBmm6uryYDTXg6h1h1lCNfHt5eKPSnpMTftmH9jvqmUJVpct6+eWNGWvrmbVv0z02xhbx8kY1gSOCESqDfQWkXDMNIj7XZ78XHjK/FAwQI6ZH46pgM2Nkdw6BnLNr1vKKgPnhJQwHL96ZLWhoH1bcNWjBKiuEZaKDIwvE+LvGrKazKr0FIodOMXGz0CcBkiSM6IAymOpsiKaih2Q3GQKOlzYPRHmQjZQlw2gGU4hQxyC988EYH1FXiX+BAWRNalcT4CEne84ASdVIsgsruwTa3+5+L9jy1aCdGxNjEswvBPkVX+qG2shtocbiPYIqROaICRqJQnh374AWDHd4OVBJmZ3AYZ3OMSkwYHh8/KDY6LSK8tr3dq/dRTKaxCUlV7S6XD9WFeiU+JybTwkE5Rc0tJS31bOxhdbdaWjqI7mNSErdSizWNTkrcVNOA+o5JTNxZT6VNBRQNFrH0P1jB04x1Jvx4xq8/3Lv4rV0veU2+c4ddfErmxNuW/jKUvPffJWWV8zIzH5w+tbSl+YPyqpXl5e1wfmJaDJ9aGtzELVg+gDdo0zlRF85Jdtull16GoikSGaIkJuKaDbxyfuZLiIwLFlwAKGUqedatPozl820samqZlJwU43A0etygyNsmE1RMAMnyisoVlYdxmREViSNNnRL2NjWgE5MTHX243aVi2qRXAYJFTW2npgYi7c4mH/bC018TnkCL9Qfh9swuI4Te6NXy0nkHuybJU0Nnak5mxvSM1CRneKSTVpNwq+YAv6SsfG5W+oPTpx9sbVpSWrm6slIZEhQDTR6hFjB3cMSXXwGKwauu88DKspvR5YPiO6LVV6RHSkg2KzN9ZrowgD0sTKYwuBVJLjIwAE+HDHxQRgZg+Rf/LBK5bMiQ+Aj7Q1u2b6/H64HAKnOswWRau241/vQvWu7y0PlF6FHGiSGB4y6BfgelqoEQjIQHJnAH3VVp3oBJ2gdLjx7gGUCM35l8twA6+HVYrJZrpt2aGp0CGFCS9Hjbb1tyo0AuQUjQBQ0k8wki0m5W3VqGW0nRqUV1e9n0o2EU5OMsBvG3kTYU8WxZmJm7rZAES1EL7PNrZ9uLZgeNCPQNcmWCnygiusAObtBxCiXgP1xvpDMuZeFaAmPQIoassiyCvFLVBjSyXWNbxsrRLRZ3d+2HEoncIEzWRFKgSP8l+K4yq4yDwsWGDlx0nQUgSH7xylGkWISwgd+UqFS3yefytqKeGPtMjHDeN3lKdYd3WVnZ2uqKG8eN/7hes0uTl2BwZFLcqorDECOIgBr6FSnOyJgwx0tFxeAJnGHkL8ZuK2xpCrdassNjnq8tslmsOdGRbxQV2k0OwPM7ZaXkk9IjQTCnhIHLcZkTfAHv67v+IxUh24jE8dNDlav9qhWrTk1OnJGRfsWw/PNysn62ai3gn6TZVdJlSDLixhTw+ty33PpLPG7SVz0c1UvDOUwQWLvDEf6zn/7CGRn5xBOPqtKFXyQSmcP1Rq61FybEY0lzs3LdwhuDBwnDOCoI9V09RAzfwi3OgbcW2rK4/KAgBPDplYnQtC5wJFtF8xaK40skzsm8RmJUQJhEv0fFIMXXcwdflDvondKyxcXlkXbztaNHo7ek7kIXvPqjNZNSk6anp101PG/+wGwlHNzlC09nJzDQWSIY5nsltcMt1aPEiTwIJGNXRM4RhyAZA+aL8wZfMCjn/fKKRSXl0VbL9aMLdIroN3x/+ZpTk+NnZ2RcNWzIwuyBP1qzGv0AbL0A4ssPl14wMPfcwQPXV9ej86QExfcTnwC54Cum6qmzJOUaB0MCJ1gC/Q5K8YWwT8vA6Ruqa4yGRqZDasLC0CY+e35gEvB58RzNdsDycdEHUc4YfLfqboe/A5DDPcc5+kmCoTts9FUal8ft9rnz44auDa5kK6tSyJwEgJVD/HQQibFMfMgqC4+izNH3n20NSKHNBXHkxxeP+2j0MNxId2I0NUiuAm7T+1e5cRIgtWZIvBjRgAXzM2NtFrOs7xgAAEAASURBVHNpZbNqO0idDRV3AuDwpAz1gjjUZbR3uMmJ/Ghb6NzIEtCwWsxQlJDOi0jKDY2dplbxEmWTU5AiWZqCad2VphORSJ2dOKS+pQpss2U1B382aiyauV9/stbr90c5nXaLeXM1LOEEcmA6XG8ibbYd9XW4RF7WOmiJttshFZcPjSMJXpSTg6LeLysbEh+P2UpwHxseFwPOt9Y35sVGQAbb6mgLVc0xjggiUlYnyhnLHymOjqWaJYCJ9TSSoNsBTAR8vtVV1fibmZF+7agCOEbtbW5ALuWVquANecAyBIeOz/+z9x0AdhXV+6+/t733tM1ueu+EFEIoQZBeBRWRYkFABcUCKuhPsALiHxQQRRRQUek9hBDSSO/JJtls772//v++M/fe97akEFJWuEO4e+/cmTNnztx3vjlnmqImkIY25rciPRB+dCjdY3V+/Wvf8CQmPP7Yo41N9ap0fBvIxSbm1To6ORlt1BGQKVcQHFpWZIKWwGpTq+zUUdGFSXO2CUkpmByEXGOSkiC1krZ23LNBcZUKonJYtANsbffjICW0Lj83tA6/c+kK8Esm+vLTYKAHQqxUXQzzc3MqO7v/vGsnkg1PSMW6FIxnoGkUKqNXsaKq7oPq+oV5WTdPGD8iKWlvKz0E+Br4jamgQx9/EfwS5POSnwYjwIseA7JsFwtMT+ZBPOo+PycLmP3nnbtxnx/PpaJYCqV+lfgksK5Ntc5paJ0J4wsT2DqYUY2OXmlbx/9t2HTXjCnfnjT2V5u3YUY48kpNQxkZmYtOO3PNmlVl5SWqIO3KH6AZTAmcZAkoaDjJTPQpHr8cxOAK3YleuTwSdTB0xB+r+k0SrvoGvF9fuWZZyZsrDry9TP6tLlsRoMXW68evtATzCxHA0Dv7Xpk7YlGKJxGRgAHStYb2l7XDalgyPz8zJeYbV04dkg3vHPQjX2I6UsGQxFF5iU6r0+OyF+am5qbTJcu3REcqDWFVFkKwo88ALVNd35WZEjdzbO6EkWmnzcxRnOBVSrzjmnPHTR6V/qMb5kF5vrOmDHSoQcKW3SWNAIDrzh+blxV/4cKRSAyUjnHa0xOxK5M1LdmZmZYIhcsCUARgwIrlfVgviIUWmC6MK4xx2lUUY9hWXd+TnhY3c3zOpPy002ZkIothr0AZD08cMTZ9/Ft7XhRaPJw8xe1s83FPiZzYpHumTwdXmFOD2rGLEIbbkLo3LSYu2WOfmZpC6VkIACjztLys3PikK/MLMC/muaL9mIw6NSW9vsMPm2xKelpzt6/d652cmd3u9Td7NRclCgWT5JOCJirvrNvqsjovmvC5GGd8enzOlKFz6MZUdSGLAwS8vnHM2M+OHJHqcWEi67yMLAiytpNFUONjorO0kTyyowG7T6OCj0HwhhwgHiPpRBCoctu119+Umpn9/D/+VlFyQGXElSasLXxF4Rg4veFNPSU9fUM9JjZjQSdzJTk98J0kOuwxGCXVl3DA31/c1rx4WO4pmRkQwiUj82t9XVUyUAqCyHVlwZicuNhFuUNPyUxb39AIajhGTLEHZlgoAJccaTiK9/jc4GvhPiRgiC5+yqexuyfN7UqDe8Dh/tKYfHQMkmIJ1Xj3ldHjPztsWFqsE8KZn5kNWnUdHYgnDbhbpBSWhOEOQiYWfdoRSaJ6ILRzFSl85Pyy5SXO2JXGZw+H8qzv6U5xupI9bsjh2nEjEZng4Y4PePW10WPPGz4M3xVm+c7LzMarmu4O0gmGfEDhsGVbc/3D23dOz865bvxYkT9eUjiXXXzl5KnTrrzyaj7rQbkB9CfzrymBkyaBQWeVQhLQ/tBv+I3h90MflwpUGWJHijUpvfW+UoMBQK+k/Jjxy9YCTT+xGo0IJABl0qeKgCW3dM+rZxSce8XU6x5b+yC1BOHKEoBls6Vs3tQhf713SY83VFndmZDoVhotN9X9++8vQjJwmOOOffiu01tavVd+/zU1WqnGQMEArEkkoEEgAT/7//ePzQ/cvuhnt85Bod6e0KoN1ViYj5eBUPhzS0ZffS42OrC+svLAJn1yL7Tbqx+Unzs///Kzx11xzmgs1NxZXF9U3nb+opHXXTgBwrn+wslXnu297LuvkhkxXLB/ENx0WJOnfM0s2cpHICWq+vvnNvzujsX33DwTqhAMvL/hZQqAModZ4fr8zJtq2irXV66SGI6hvlVRdVVh/p8Wn9bjD7xUUn5VfP6o5MS62m7gHHir6+mq6Oj40riCa8cUtvmCt61c0RUINnp7/lNccnF+/m9PTe30B/+6e99rFWXgYmJ66lZxDk9Ow00j9PDU5KRtDU1YiQ9rjN0a9kIY0DTK/X6gqehfW568cPIXzirE8qFQZWvl4+seYGtScQ8cgGQNPt/VIwswsymIjaUszr8U7W0JcnwUtaR9KNipCkLHw7BK8TEIdqDTJu2FdwjiFe7p6Vr61qvbtmxVra/krJKluGy/m78AX2NJe8ejO3aSeUt4dnrGN6dOBKHvTJsK+dy+ah1AV63W/PnGrT+eNfO2qZNBvqqj+76NmwDwtI4FrZKdoDYP1S/paH9k+zbYlBbsk8DG4c8BAgKIoQA8MQM6SChOZAHhwE0MNJL5wMGn9hTdM2vGo6fNg6xWVja82lqG5thc34RlsHX+nqtGjfz86EJIA0LH+pm2kFrmy76LOFnE4sQTbHgUA8akaXCnKs5mQiW5CQfAGeiHCe2+oIWzz2g4S0Cj3zNr1h8WzodA3q+sfb29/NL8wi0N61CF2kDgqlGFnxtdQNdwyPaXoqJW9L3wE7BhARVhG4xhhUy6J+bK0SNrunrUx4OiSstLcocNa++EZR8JbAVpqEiUeWdK4GRIwDp20oyPVG56WmZDIyd5Hl1Y5AnfluP4sD14nzbi1peMwjgjlrqJ0Ki0vUTDKtV8syoSGgX6JeJx0n7wSCsqIConfW76j50oCMr0f4r9Nzx51LdO++Ga0vexTQGVl1hFuMa5nUlJrqq6TkVW5WJGpXANRpVyF2zmK+C5aJXolDpjobyMeJgqpfWdirfH7zorPs79xe+/kZsXU1XZyVE9nT74wCRSWKWJcY6s5LjiGkwORSYGg3nckysF2DKwZ+CMiqfjVudW8ZCXEYc+VEkdp3QKMahg59fm3TkiZeQvlv2gsaOOEqVbjzO/PDZbjN3R4POCbJzT2enHsCCrjxRckg+T2olFktZWrxdyk7LQXjanxRbrdLR4/RA59znCG9xxNSTxAbk4bg3tL/0e4aH3RVoZUaoumFHc0dWhFv6yZI4sGrXsnRFPwESrPVmmqjb1aKspVCJDsHjEPaoBKtGRkWTyYUhZA6tqGKMPzZv/k3Uby9pbkawjgEXJGksgiMrSQzBgCNswERmY1ykz6VQSzLDFPKmfrF9f1tYOmXcGe+ARwT55cOArcRmfMYgr76583lh6xEL5vQJ07fD2o9n4SSMyLSa2vcfrD3HnhDi7Hf4AxKItgLspTqxXCjV7OTlZJe4jBNQIFFgRFfRk2mOvSGCty2JVM6FIxkijGPDJ/n/4hLr1SVX4TqR1LM1eLxtL1i+jD8QNVcCe+rr6MGCxnHfu+XPnLXz273/dsXObKkK1Dj7pc+ItN2bYlreFHuJYgRlMCZwECQw6q1T9FA0Vht8VAjWx8QvVcBTCUppL+s46VFDjRKU0EoloNSKGVmIkh3mo2ktb9v5m2U9umnd73I6EDm8b0EmpmE6vv7OOvWYDGuVeL48kJIjyUrdgGHaGAi0oa2guZUXpVbCV13fRMSpDvEjGYA3AH1ha3qa4V4oMVwFVuuZaO/ytHS2i+FQh1J6grB6kRBI6bUbelUtkfQ7kIINciAyGwrfcv0zxA7WH/yrr0bUXg0JkhR5GVkJ2dnzufUu/19RdR+OHVQDvLBoqGP9UFQwcBVlURzUA9yUAVZIi/DIr7fFgqx8uUFpcHDPlazoY6EXFa26EJNXTBYVXkSCKWxEHA0jY3NGoS08hHxmLpO9zxy8ghJm0iCauCHKDiCJlpEUMDMc+keotXqGjgAKMUlT2SF7of8qePl59Biz5Vek5yUtrV+0zMDLyxhrqpiRojCIVWSCgS1OGbUINAMkRUEhrfHLiuUOG4V00A3DPPLxju3yfSkjIDBoufMzc0VbVNww3L2b/Iid/IGhB3OJGfTPNfsxaF0hW5Qp9vRGRiN8O81osY5OTzxkyTG4hVWRic6Atfrd9m54GbYz+HSFf+/FqH4POgHwmXRCnyotHa4gdL9BDkJ8rGIM9it3KEAn6iFaSFLFodSwsHN3d04Xp05KNFz2NEWHemBI4aRIYdFCqJBH9I+FP94jlo/3sDplepVFFqN+ziilvK7n79VuYNYLGAxM6klIilAEMvQOeNT0iN6igz0vQZP+c7ioAkhN9dMVhr8w6doKeQcGgTQqIpWKGmoTblvfQ1gJnkh7KkzOhFEn0T7SsSFXdUXn3m9+QZz22j6rSi1aarm9KpRYlVleFKgoaWXeZaqWJBpSXqgrqqr9UJDQ9jgeNWhR9RCrJaFkEd7X7/n90tntl0ZMNGKle9uGqT0rofU7DtVi4RgtM6uChuGV/RQ9oU+JBbyZBDY2CIviPo4TwrLDduYZVqqyZ3Zgxh02MBV0E2aURkcBoOQKe1l74YJBXmbC46cO/zk7kL1jtU6lIFl1oSA0GVDz4YyMA55CRU8AidUS0US7uI3TwoAcUxrwIQrx/GlSjf6RRO+SrrCwvWlbUp1ydvPnXlMBJlsCgc/CeZHmcjOLtNie2S1U6AgqOns+jZEMUK1yLsA+U1op08JXOjWjeoyzho2RThYnG7o2EH4UI0woOiXOeM6GiFa6BBwaYfVTaHyc9rE81DeowRHrjqJEYLQ7+VRVwL+akJiitOkZG44awrHnIkUXhsUHwON5EMXAcSzkq0pCV6eA9KsmZmY6lBI5WaR9LHj7ttIIhetuUFKhe9fuPLhdpTXrbaOIgO6ghAIpomvJZtqHAvXr86AV8pBx0YqNMfRd43JOnow3wTBJHxQgD/CgyagLnicRRo2gwAByleA8blB3WLyUdnZCPzK8GWa5x1kmxu0D0osnLIDN9+Jf1Vztn0E+upCEpjuOFH4/O2hHV9xjxEi3qY0TSJGNK4HhJwITS4yXZI6fLw6Rk8iqyQH1QQ36MAOcwSGAakUZNiAFclULEZCLgqqEZP0Y5h88qszGx5JZ4QMw4WmtbhMNqcLFH7wCzDtEEHm6bcSICaoGgSkKlZMbs4ctFFklJrJQWxjwv7kjA9SFYaKz1bBDJgERIQxzVN6pEJOpIGWL03Ipz0NCeGJrhSK3kOJ4XWT+NAuAswRWMwSxmNY5/MORsFNU/xnhl3pgSOLkSGKRjpSdXKCe0dKhRHjqmL5rlxJ2j798AJUMWHCfiwHFz0PMY6ILu42E0WJCo1jBwii8iDzlt5xjVH1YpAACn1LFolHmU1QLAYFYnAQhoTLsMiCLTm1g1nF2NlZdYIGpzyfHjtvi0UceI/YHJoGRMkBVo5JVVw7IebcLNAFnAL5EeA8bhUEdTMUY0iUmYCoQhaxJAD0Dbz4h9HVRUDhJgM2JFNefiUGwgwurT2YD1Kn45vA5wprwLx7kPYQ3YpYKKDTaossX7dWsGqPyxi6Kk8QXJgtpjR9WkZErgmEngKNXbMSvfJMRevuZAg74QV97RdvplHJGHjMnkT4gWRg8aWJGlpDX1x/UGJ0DwdD+SJXHMHr39hBpQIOA5IhfxNyKGU6goQKAsEOVEfMyoh5IesA7/UKiwcVBxCo7iLZlUM4NUoyjHQC/fKbsKgE7N0Qtrnqit6k6TlI56EApi2w1u0MSgCKr743bVKggkU3Uhj8T1ExfYzlKikvyJK9gsyZTAEUvgRGifI2bm05iQfW0uu4gEfYZtJOZI76CFsRwTe51rDsOofLJFlNJEJ1IfxTpixGKj6xI1FZMyiqsju421x8M7itwwc0EBFi7zRdURNVLO5COj9zFTRX4yYAm0DlspQ+wqvSH//mxHk6LXV3ohLEK94NAptqrEAQ8RHj5mZQ6bXXiO9GFUer1/cNjcxyaBkhtoGTfHhq5JxZTAsZOA6eA9drI8KkrwVQJMxXmndlrHYNjRK0pYL1budU6iYEe0NvQglbJB9ITpo6l5M7806+a7Xr21LYDTsmi+yXKKjyyma2ffihnOj6/5DZyrQof2Hc4fA8nvn/nLWGcMalTfXvXQip8f4cjlR+YgKgNQjfXgH80OPjJcoYNXgeiPzvy1w+XGY3VrzSOr7ouiTVew5uaFHaZ5huU9Hdq4ESKy4zweyAPj++JcNMFjci9uk16U5JPqFXPMHyCr/h8qZpn1jzzmRZsETQkchQQMBXsUeY9vlhS3+8FT546Qc6mUDpIrDa8+BR9Cl+CVyntoJYtkmkGgE0cuRBqUmYATLgxjKDJ1U9FnArEtNTp6SvW2D8O9Hq2hCed/dfYX71WRGPnTsggnSnH0J9JXoehsQzqTLrhlzhf/D1n0XNHzdY0KRbEQyRtVhajSo5JKrfVXSibq7aJvPlG44HORpgnbpuXNuWH2bf/d8kxHoBXWpD6zhgLUmNDLBYUZaeloa9xoQo4qErf/3vLE6PRxXzn1O+gR6JVCND8DnDVb3Fj0+o7/vrvvDUheDqrTmzKKiEzZ4fPtBdmnZ8TLm4FEEZUl+jayT6/+OQkbfb/D6CzqPiqjtjwJGd/a+9KbO16ob6/JjM9BssgHwyphLlLk08JbDad193h0N4s8HH8cRSn969k/pn/dP2ZM3y9cyA0Y+TELMrObEjgmEjgBP4qj4RN6Dlul58TFx7rc+DGjgyqKm0NTSn3IMJJGGXVgEn0ozfi9IQ1ULzcyxU6msoDdeIWc6Gur/EpZaB5CuNQ4QEWdjtdqOQeKxg3POOMLpYIj2w7YrLTs4X/UhwZJlfpRUkaXyBcDhaSswrj0HDhC8RK2h8rCKSf6iBTND+EWrCoC2nRKggdNNFWWyMmalJ4fD2pYAIMXSg1qPANno5wQCtJwVTNs6UsEdcqK6luyiMwxgsd6Q+64oiGMV4g1+ImJz4hLzzOqnOhJuHbm19/Z+9LykjclV9SonpU7vjJooqY8scNcdizP8mQVlO3JFAwQQn1342+W3zMpc+r8EWdowiEvWkdnd83WlaVLt1Vv1K1DEhQaxg2nKSn+CxPcyS4eK2QE4zMwYtQNpaoHoyEgBj0viess6BXSsyANlpxeND3+D1dn3fXZ1KjsrA42pwTD5U0lKju7GXqzqmUuQpkgasRT/GYwJWBKYBBLYDD+RKHdwBa1KrfspkuHZg2EqJ0SA6AC7EQmLkLrQVEK0nE/3nAQ2x3wLaZ0QqfhXnY1YyOIblJKEFk0Axf0EQX6uCEdnTISq2JROljhjvBcoEk6DEZnHeN0SADMxh9BIChuJOUT7uSVynGwK8qlbpdzNmCU4Ak8a5MVQ9jYkOtYOAuXU3gYWBZLhxAgKI6fKaWMV8IXkhKoBJVYWVDjqzCmq/CNVn+1naFcwS8IkjQ2t5GjSCQh+GdQqxtRIwhJsQEKlIkOAKAp8ot4la+Y/CVfwPfajhdBB4lJmP0TCYBzfeCWDUSxoRaoGSuIFJgzpUrXkgsPVe0lbxe/dvHUL8TaY9VbkEVqxYMRI1lIRCYHkSRm2/Itd3kVqWAHjGAQh/RJbqRE0Zo8VHHGFccJScnMBWr4MEAH/4OgiBB5FQv4iyZiMpQi2W2F6fZfXJF6xrjYAIGX3wACrkZJEEjkQB4lH5VTaqRRi4o3YiSVeTElYEpg0EkgykwZHLxRZ0GF82hRKB9bQVLyjePGDIlP3N7U/MTOHTgEEWzyRAz+wXv+pTlCJMCKeaBFQB1fTB0G1c/tvZ1AV4FnpcqoavmS6pEx06/4IbK6EpKSR0zAcd3Fa17atfRxbAfq8iQuvuMpKNQPn/vZ0Cln5E5YYHO4Vjx2W0tVEUhkjTtl3JLrYpOHejvq96/8b+na/8rAVXjx7X+q3Lw8d8pCT+KQYE/b5n/+uq74QynxoBeqbItt+uV3ZoybDUgr+fClXW/9SWnPsZ+5IXfCaa6ENH9XW+3u1dtf+r2Gi5ZA4aJrR869EEwGgl0tlQe2/vc3XU0VKIM9kHB4+mV3po+dA8woXffyzjefgLLHSeDR9Sc3Vh6DSlgO2ofOPHPUoi/EJqS3t1TueOWx2n0fCmZYFt3+ZMXaN7ImzU/KHO3vatzxxhMV25fyBI9wqPDUi0fMv9Idm9RavQ9ncpEgWgSFh6wTc6e/ufsFf9jHpZOASHYs2CBjUlNuGjMmJz4RPSTsAv90UcmuFmyuS8bw+vTcrCsKC+MdrnX19Y9s28ZznxGAr1xMaX+36JXF+WePyZ24qfxDRMoW6HzPpSnIjN6GTDVFDPsxiOQjRcGRaB31UW6yK+aWkZ7JiXF13sAzlQ1bW/0DoildqvgE0c3CJnlCQUabQRUlqE8Ivx2RKAQo0arJENneY91R5X1+bcctZycjqToCHVcehcZN/0CSq4OEDrd3NILHFXPxJZeVlRev/GC1+jhFfuwJ6cSNtOaNKQFTAoNIAkopDCKGoDKoNWTECPrmi4WFb5ZX/2LD5rEpCUuGDVWMKhNBNwIkDumxIM8avmDCNTfOvOWGGd/48qybcXPVzJtgt0XhqF5T2EbQzxJikzKyJ8+z2BzbXnwQiFUw/+K03IlQwv5A1+YXHrK5PdMuvD178vzG0h3IHPR2Q6slZAyf8bm7bXb3rjce9XW3T/7MTRmFs+GaREGe2IzChVfW79+y963HrE73rGt/bLXjEDG93IH+wgCNTcqNzczd/K9f1RdvHDXvcpc7AdgAOXTWlldueWfrP39ev2vliOlnD5m+WBFIzB4z5vSrmsp2rnv6BzteftQdE+PEWR8SYGcB4GMzhm99/oHGA1vz517q8mAGrHQ49NKBM7iltY//Q7bMUVOnXvBtb1vj9ld/b7fbZ37+R3GJ6SqtJy597Flf7qqr2PD3u2DPTTj3JlvIBazKLJgxdslXQhTRr30dbWoompBmseAUF0B4dXs1BEK/N2GN8Sj0h1Om+UPOX6zb9OtNm2u6/NkxtFAhT7zF/5cWFvxl7+6/7ts9PzdzckaKah6FKECflu5moE9e7FBmEUBD6yEjEZdwq+28iBjIE3HcG509BUCbFM/PBXZz+LQ0V53X8st9Nb5w8Jq8dIe+sAQZ0Xy4RgdgHqjhDHPkpW2qKGkpgKMqPRbOMkqrpiVU3x7884rWFp84VODqkFy44uRz7R4cknmhAOalOUBh/oIFkyZOPfecix1y5DVilI+EvwgzmBIwJTCIJTDorFKllZTEYND8etuWD+tqobM21TVOSE1T8TQ7RI3ikYqUVge0Ec0HXLmZqXT1Ofzpw4lgcNuK9YBYo3cPo0Bf7o0E3s6ONX++A0RayosW3PpHmGjNlTtBr2bH8lDwdk9S2qo/3dHT3Xb6Nx71d7RAtxYsuAK8vf//vu7vaT+w9sVz7nlt5IJLa/biOEZsuhNs2Llu+4sPgeeg3TH+jOsyRk6v27taV7sDfAvoBvi6W1Y9citOU+lqrM4cc0paweTqnSuBQWWb3lQKu3znB1lj5+VPP69i0zvgMy41E8ZfY/Gm2n3rQbF849ucWaMUuqL2x6+jB9HRUHraqJlpI6eAGvQ19DIEJ7BKgYAOagEpjTrjOl/Qt+qJO/BUs2vNmd99JnPC/JI1L+It1H31rjWb/v1L3KVufnfkaZcDWLDLwMj5l6JGK353cyDgq9r83pIf/RsJVMiMzQTYNXVVo2nQwaHMhTEcV+50Wis7Wre1NMG23tzUwC6OvFIZv792bTvaK2T9/KiCCSnpG3GUqd5kqrnbvK3pKRyRVcjCRkeni1YvjT08IhngNjsmLR59EQkK3so7qnwBnAGHKV3W95u9z5bX4ty69+rbvzAsDfgoOM7Uxnei8gpBe2ZsWrxTzVTSuiOVHdVePw5ARUbguL63Bvt/UhniOgnAiQwK4shlG4IxtVsFXiFeFcGrnGQnua07d+6cO29hXU0lIDySwLwzJWBKYNBLYNBBqZKYUp1QkB0+noOISB8gUvNQ0uzopYyYAoNPwNHACzv+gcSiBKHCab6KqsWNBh5Gi0DLibWKJOFwoJMEw7aOhjI4ez2J2UKEqx1AAA7MpoqdSPX6PeerchOy833ezoC3g8dpWcI9TZUJGSOUIoaZB3xlxrClrYyGbFwqqLEKBwtw/QV8HZh9Cj+h39eFjFYcPCkB5u+YM7+clD3c7o51xST2dLUAaYAeDUXre9prxi+5afTpn6/ZtbJo2TPdLTWsK9fBCDWxsEI8aAx76NhR/wAlgJteOpqGY9iWmDk86PdOuvSbKBOjodDjGUMnlK15UWDG5u/WDoHsltLha4X4EzKH93Q2wbcsu/FwqFUzHy0WbygAM85h9wBB+Z8euvzh10orLhg+/JScrFXVNW+UVRS3tRo9J7CtcBRGXA8Fr4GNako4qCFBt9Xp9dLDj4BqIEZsWq1fpb4Z+HvPHL54cvp4JAFw4ooW+dP2v+5tLubQtdXa5vNhV8WgBSekUxRoJx6zN1AQgiFQm5SGc+siLQhqe1r28egdcCnfFXKr0kkmyp/MR/LAQ7bt+A9ALz0/xkeCRhk1raku/+m9d0XemHemBEwJ/I9IYNBBKVQS4QqalYoKishQYZqrEKqJCfSgdDGuBImw4+b538tOzJOX1JvQvD9797v6KCGjhT7HrUKchqPhivgB8Y6P1HdQeAwsGogLKAVPjJCxQPy1u1zBIOb7sEikDfh87jhjXg19ldSygDQ5gSuaWxLpHZBSKy1KWasscPOe+tUHw/4ADN/mkm1TLrmDWYVJf8C77IHrYb8OnfGZ3CmL8W/1H25tqSnGezXGKYXARFa8kE+YmLreJ3eSALWjGQeZWG32uIRMFdlcuq1BOgE6OooHUlamIiGbRey/YADHYZIOsIoZCXYMdW0VaI6suKzixj0qRrtaQ0/v2bu0tGJBXu7pebkLc7N/t3X7ylq4HBgUdCpnKLBaRaorEBCAB+vP7YqvbatkQeAafJMRInuvxOHgM7v++YwWhVeorAqEPX48/Edv7RGGv+/8h4F/xk3kgLq+VMBTL7xUzEmjkBOaz32zRL5nfu3Gtx3VO+mXw4wwJWBKYHBJYNBBKbUjtRFMhl7aTnOeEWGhHWmAKj2uYAFXmdMRWlXydpIzVSlQKE1vyKsMmojUOQaJWR/iGUQ6haZIKiE+fRhQtr32AJ4EdMFDRPWJlUaF2F5dkjV+nsPuAqQhXULmsLZqZkGgjhYTCiWkj5wCwm2CcDSdoCUN/ajPmYpQV/lxFZaQPGfifLvDs/mFX1ZtW4bogFdOcpZkAmkWTETCP09S1hnf+kvO9CUtr/4ReWkA6WlUMnmCNFFxtcBGpnSJnCFHzPDqaqmBvbrmqe8hTqEFbwjKrCyD3OgPWM1ibSrZkT3hNPWSicWzqh67Aj3eQM+ItDGry95XMbgiL2saClb1dD+3t/g/+w/8fuG8JSOGrqqrQ3ZJpkmCDAgbWl5dYnkpBWCouq0KzLD12N+RjNpQKGYFwRhGTLREdZZJi/fgXJGVrpq61a4kaMBYrzdEXxWMm97vjSetOD2Z1Fh/qdoCUcJ3pLLR4Iov6tzzL6gsK12/4cOI8HUK5l9TAqYEBq0EovXO4GASPjsZz1NaT/yUZEypOaghBBigMEZ4J4oTr1ANOkgtlo0VH75X8uZ7JW+/W/rm8gNvYw2fUUOl5ziuRq1JK4oZudm6JSYxZ/is85NyRk+9/E7QrNq2glZP2BITnwa3sdMV60ngMC1sJsVAxaaluJlxzY+Tc8dMu/hOLC0tX/8auQEbVsuQyYszRk7NHDd31KmXhf2+tsp9iFc4qqwu1kUfJAQdKllFV+a2KPMOadrrS1HR9JGT7Db3kOlLAPOumHiVcOSpl824+p7krHwwVjDvYtDvrCtTyhdFILCKlBFBgCOKYEzb0xW3ECYXCzEN/bvh0g9fjUvJmbjkK6gvBlanX3W30+FW1JCVmSlg4RN/eDBIuLpoFe6mXPbd2JScmVd8H1OrMM0HhVDI1tA7+16dN3xRgisRT4oZNNmQ2IS7Zs4ck5QU77RPTEtJdrsq27rQ0UGNpI1AlX/RHCxUfA8iGTYEXl0w4bKWnqY99ZuYBjmkUrg3/iK/mk6FyP5ByU1VHG8ll9TsIPDZn8KhY/DZysdIKWGP3KEp9qEpVpfNGuOyD0u2pyZiLJvFMSClfnoaK6si5bpgwWmzZs6+5JLLMPkLcot6Y96aEjAlMKglMPisUvrAoJVCGMmEZjTGR6lVxT+mHJXRSlO9UgYWrCMlb47eSUBKTP3Ag/aMeHH0EfW4SpCaGpN1x597AxALR4cWLf97c+VuO8YX3bGL7/gbaORMXIh/r//sQgwooizouNqi1Xvff2bk/Mvnf+UhQHjphlfLNr6hisM14O+Z/cX7kCzo797wzD2YmKPZQjC1MaKrT87U0mP5TiBAzCNjRGKoVxWay3c17NswdNp5w6ctQZpd7zw5auFVgLrG4i0Yp0wfPj7na48gJeRVs3tV1WZuhgBs9PuCmCVDRRwGeIo6FjMVc17g1lQRFIbIB7iLEcXiNf+JS8sbMvezI065ENQ66osdsQmB9kYQBD8UtUgVqIcYsIqpXHXb17TM2TNk4hm5Exd1N1cGvJ0sDYfQwOC32d7d8/oZo867auqXH//wQTWwjS4Rcsc5nffOmS47RYRK2jqeLy5GoyAec41AGaBO9tBesiESm5UeWcSGJmRNHpcx+eHV90XmVknNgIiafak1K73uAwYQAnHURdzRKBYlIiLI5byq9I8HXfimVLmQfEa86/vnpqMsepIt1u+dl97WHfzef5pQHthg0+gfo/qcDIYPHNhvDZ+JA0wxWVp91cYr88aUgCmBwSwB69hJMz4Sf+lpmQ2NdR8pS3TiRZ7wbTmOD9uD9zVER/e6h5KjrSSbrFLj09lL3SOaiLdKJak82isaWFCWeFKqipNNVAIaaFiD4MDZYhw9ZaTCBh0h5t30oDs+cdlvb4xLzu5uqwsEezC9MxQiMIAcjTuVSzyEhhKELgY8MEtLDW4weQXJEJbc/WL11mW7Xn0UC1y6W6rgdYT2VAFvRY1qj8YfWMCyaQBIiqeUdqCqFuuCpSxud0pneyXSY2FrKOATIkjqdLti3YmpXY01/hAxntRhZ9Nnyy4C0+OWlKDCHSgFW92LVOjpRSwzYLmKJSAD0lD69tj04f7Wmm4/JubQf46snMSLygnMKJ5QWQ5L41/Y4XTH2p0u4DrLteJQMKzRdEJ0WBU8Iqng9tN/vKr0/X9seiK64g6bPcPtaPL5vShB6/cowoY8tBujlQvTRn1zwb1v73nx5V3/CoYDnHWmtbLlgYueOtC0r6KppNnbtGzvq8h5iEPW8IFALnCA64YsJcTq68CmV60vJ0f2rOCZaSFe9ip00eEGc7OxGLe9aS/uzxt/OVYujc+YbLc7733rW9HE80cUXH/jVzdv3PD8v59TQosWXXRK896QAER6Trzlxgzb8rbQQ9oMOeOleWNK4ARJYNBZpag3FSWULJZ+cm6Jpunwg4HBhKMTCRc6OKnE1MTQ9dyiATNqocUAEqwXEhKl4MK10y7VgVTX4KLHoapsWCGC1NZAR3M1CgGOckMcmwvLWsAJ0ASQw0UusJBBUNCFvkSZD9XTXAcMsWMZDiZF0aaiLYi0Xl+3xdctkEyER+SMK77niE8iiqvAFR3hik1vVW15F05mZTcjYYB1AHRjiilLR40Dvi6/txOksauc3e8FBRo2MP1Cfm9PW8DbBkONljoBWPlsUVNa4QgBvFJs2wKzLvmhPTEZWQ1HLUhVbH6tctNyVtBihzHUWV8CWQApFQMA+DCgJwhD04E/4g8gVJIzwWavr8vu70RB7DFYeEJqOOy32u3goLyt+FdL7/7qvDtedSZ0+DGlWQuBkL+6m+5l1E3HCbqkWWlpMjUpGnIW+5yRCws/8/qe51/b/R+1tIbtyvwM26s2OO3unIQc5OKzIV4+9A00YSFezD+WzgqtbU7Dxapf4Ye1QLFHHbjfBTKzUjJlGgavmuULI9sZdqA7x+8Da3US8zz2mKbuBmzBL4Xx++X/Fsu4cRMQ885SejiUTKLqKmnNiykBUwKDUgKDEUo1QWH5BpUd/G9UkDAdoOlEodNvJppHS4i31F8hB1amiFeN5h10FtSQsm4x/RNKE7vN6mYQMyoSMCCA1ZjpiwxEIOQIctM+HEXCgrlTDmgBW6CAackpTpQbGfeEQMF4mL0ogkVa/CF/lwEMxrodFMRZMeRcmATPMBEFAFCEsZgE3QdUBolBnBxiGpEYTagOB3WpiyEEVRuubKGlDYWNTDq+AI7JjHQUeEoz1DsAGXUXyxyQxTgJqBbAHn0IiI69FpYrxXK2rN8WsgfRL6EMICBWk+yjV8KhUlYa0kSDENnROvSZA0Flo2JwgmxhS3lH2d2v30IGNGCgmaZ6SBJFmxk0EBQ/nCAGD4LgIcvVnAGWJ9f+TlGwW+Fb0GCPIrI5Hv/wd+zpSNOgSMO9T6IDBfBMq5Sv8BXRC2DTCQ6U/CPFgXekR6NRYCIfKYeNCxeHALhU9ok1v4v+DtUXq5K2tjavWP4erkokFKIZTAmYEvhfkMBgdPBS1wkSKAEqzOslTMCiGF79X1GTCSZE5xWMVMqqFxkmBEgSMxFg9DoJizLEpdIpM0K7586E1MKIFKuUcEHVTFtZ0+ZIST9nCC5TJpOrqGu8kEohC5KzdnoVDOJ4hfv+NUKkImW8kvohOcFGXSWN6mEQN1ELRVZdJbuRm3HIyLpw+z2gWR993SslH3o3h2KGRKSCuAF+okq07nXHMsuQIOwBgAm/KDSaE5Ezt/xVtqCUqhVtVEonw794p2rbqyEVbwaHYVt8ekF0rn73yE3ftcTzK0JDfDxj1CgBNMFj3yCfMr0jEGNH417IQO2gpHp76qtQklS17uNkpsxMQO0r1F7PkJ7p4O0lEfPhZEigl146GQwMVGYUjuK1YhGaV5KKtpLTRaBlItzDnoFmhxkqqgeJlFbDI3LBxxspBnSElEoP1OHOMpwzQksLycRw1JOLyaUegD0K4JEARSOSak5mYEYrO9jNiETQrzqPUilmQTnMDDtR17yIgl0pwZhmpdeAsYqUTkhMX6kFqqA4YSJFlqkFR/VZMMIkCkJuTrBS6cEwqXEQGre9oBSqnNT0gAcYb/qTVmU8IkpxhXuOCtJfje4DU+LJCFIc7T8Z3wQXMKw13zsNWZLQiKMgPiq+dHtUp8M0gCJQ68UcYtWnYnwwxo2e0/ircwVSBg3CW6QVjKRHeaNVpE9u1YdQzOMVpM0WYVOQDe2Tk3vKSvgRoZEMU/ZuHcaawZSAKYHBJwFDrRxH1gzV8HHK0BFOMSxqKFrL0MGoqR68U/9QnNJEel4pH9pWFC7VuGgrJtOATBJEXaIVGWmKoo/SxVFJdQUN5UeCMqpKA7RfUAkkmrVgiAKAyHmlOkGVpO8VcI4Rxn5sQ0NrkdIJgEkkVVAFEdKia6Ro9mkdnadIgdGlGNn7JzMyRKePROpi0eBW74tE0yEnUaIw8moC7/NK2gL8GCwNDGU6lQG5MoAcqWg68xMaoMl0Gkf5V3Fo8EkqqItURxO+UTW5MVIaN0dZ8Cc6W5/v1qir3mcyIswbUwInQgJR5tpxK075RRV5aAftN6DB0nEr9WQRhjak/cTBRc7ZMcLB6qvmJxvKFGqWAEwiRtYjuQFUESgBBuKght3DMVQOrn40OkdS1iBJg28JH5NRPXZ0rCE4UQ/NnliFIhZpKSaWJkCnI/JlRjXHoakd6VvhDW1Bl7LqGnxy2+VIZXJ06dhY9CWw9dn3wcpo9igjThm9fylfh/5wdGWZuUwJHLEEjjuUAhiiZnbwnA184mRPX6V+xKz+bySEOuZkW/y09V+xuKZhNCNy4IAZQQAB7dhnmJtEQGQ/aPoBqbAzTvcpSqWWEYQRO+2Yo8KAxZ+MSLiNUVtliMtVSczA1gF4omSYBeo4yDPbuaqWnyN9x+iI4A0Blc03QOajilLsWTCxmdOhA5iCLqOkmlV6VCQ/7ZnYbPRAof0xDM9OIyQCVJWWZAtKB4t9yU+7pMz6n0AJHHcoxWiQpk1YKx1HRdufwGqeuKIwx1UGwKCy9elFGIKlCcIffP+gkmGPAmTDckykEzUhBmb/1IeIgUKRKcqYBkW/rjgrD5H8f/0V5IZhaafV5reF42xuzF/CMht+bAOLmapXzffh0DgnZmNMG94DNAt1MDsdVkecPaY7iHVHHAI/VkEjZXUCvDGTHEe5k3K/+VnHqrhPPB22ozLx1fwGfO2Y4w5DFYPP4ptHAizikl6kTJU/dk35iZetWcGPI4HjDqVgjtoE3z1dMFDy2BDHGuu0j3VHOT8/Tg0GWV7u7wvU5IQRZRSKtYl5vgfT8bKSAwYLTiyXxSTKP0xH7UeqmfJ20bCirgnIhgl0Y3Jlxicx0PqwcLWrx+a6fPaNlQ0V7+37Dy0/GpkDBhmGxvmjDlg1+mEw4uNla1mtKXGZX5h9y3MbH6tpKR0w/1FH0t3Ps+wxjTlADjm77eDfw1EX8ynJiI4Ol1jTj8Bvnp93KMODldlYmYWOKFsfvRb89rj8y8TRT8lXMQiqefwXw6guJL1q0B+WhW7rLdlWD5TLJ/Ur1+uLvgPnvvLxcA5DTuqlbqV2QE/6qGUjRQNLDC866H5i5Ywfj3QU4ODApwQNiisgSyzNAX5YCmChgNUiVOaWVMxLj6B8jqrtZLBZngegc5RRYvuygbnNBDkHr0dJ6tOdTfuk5Scj/UX2yNGmwZBtWXvo0RZ2saLcYJ9uYZm1P4ESOP5Wqa4yoPCwYUI9znxut2W7lR47gRU9cUUZKhI/cmhNYCRXXB5y3CaE7cttsenBjkYYlOBU+tQfmWOs6UEp7pThYbvd17Cf844OaqJ9ZOKDLYOAXyDOnY5TvuvaS+H2QLdFmDzUp5Ubn9jt97b0eHV7BYkJcDJ6ityh5Ngcj9NDw1T/bo9PxY2P5PiQ/8RThfcFi9rC2GCL7nk0YHMwtLOb33s0jkbff+JFYlbw5Erg+EOpUT/p7O/xWe9rAsYcElmMLP+DN+rXC02JHVbdsYlp+VNCAW/1jtUHU80qfcbIiadcfd+KJ77VUrH7Y1Z6/me/6UpIfPe3XxZE/pjEBnP2cGZ87o/O/MVftvx1RWXxYRkFWAI+nzp9xmvlB/5Zi/RciCyABjQl+qqGSHR33HvOfe8UvfbKLp4hb4bBJgHdhcBdKsEbWhAGPqx8NCcGv2n8R/wJ+u4og60OJj+fRAmcQCiNdPMPhaO0EMSWSnN77p8756+79nxuVGGqx3Ogve3+jZtb/T4kuDw//6xhQ3c1N+PYy+vHjxmVmLy2vu7BrduQ0WmxfWnM6Nk5WS6rdUtT02M7drVzc3br3JysJcOGbKxtvjB/mMtuW11Ti1deTP/gkhVpWPG5KX3av6GFKabTf8lGEthCslO8/io+dcj0a+6OSxsKPvEzDwV66vaur965Eo8OV+y0K76fMmICPLj1RR9ufJ6nx6D0M7/7nN3thlKYc919GOVprdm/5snvGgUc7KZw0TUFcy92uOMCwe6Oyv2bXnioq6lCh0/btEu/lz1uDhgoXffyzjefABEwcMq19ydk59s98dhnv2TNKyVrXlC78Ey/4ofYghB7+iePmGQJBItX/3fP0r8YTsiJ5349d/Iihye2tap4499/2tnZ2GdbAyU0RQoFadTiUlHTcNBbsurFXe/+BaU7XfGn3/4XJNjw7M+GTFucM34hduf/4I+3tVYXITJ73LyxZ38pPjkPm+MXf/B88ZoXlKjPvP3PZZvezZuyOCYxK+Dt2PyvX9XtX4f0YG963hxM6Fp54F0+SlCcuKz2L44ZdWp2dpzT3uL1fVBd/c/iYi8dgQihRHvMndNmTE1Nre7s+Nu+/Rvq69UL9Rm0eds2V3w4Z9g8A0rBOTiZPmXW+IkTXn7lv62trSq9eT0pEkBzSLmaDtH+qOVM2iuDr0PpGSOReWNK4JhIwJ6elfuRCMXGxnV1cwfz4x1SXZ7z8/Nmpmc+VbS3tKNtXnbOyKSk5VWV+C219Phj7fa52VlzczLb/H5sJo+Y1bU1YOnGceMWD8l5s6xia2PT2Xl5k9JSl1VWYdvY8cnpZw/Jy/C4nyza47A65udkdgZCe1tb6IKVgO4s7mVqJ58BbLEOzxdnfH1a3uxpeXOm55yCm2R3aknLfpVeruwTw7bBDul4BGOAk8Xf+guGKtf/+5eN+7fkjJlduu6lrS/9VnkRT73pwcTckaWrX2prKh8y+cyYpIzaPWtAoquxMtDZkjp0/N4Vz5Zvebd2xwc9bQc9N4eqJGxLzCmcftmdDcVbdr3+WHPZbpy8Vr97rbeTe7cOn/mZ+PThAUsQr3CqTN7UM0tXv+IPelHRpOz8un0bKza+mZCZP3z6OZXr3gj4ekCtYN5l6YXTu9ta9r73VPKQcVmjZzfs39jTVo9O/oQlN4yYe0H1rrU1O5Znj52bO3VByeoXWHf2PGjMAWa43xGfNFEWnHppeuGM7vaGovf+mjJ0fMbo2fX7NvS0NmGVbWdjVc7kBen50xLzxjSXbcdZp4Btf3dbQsbwU770i5DPt3vZ03HpQ4ZMO6OtqriziYfhjD7ruvQR06p2vV+19f2M0dNzppy+/4N/chDaYlmQf2aMI/bdfW8oThCldOnZQ4deWjDi7/sOvLB/X2Vn9+S0tA+qagG6aNVL8vNHpySur619rvjAtPSUqWnpb5Sj/wEC2KEZQ/msQlZC3tScmW/seZG9LPyPKIvlqzffmpmVE++J3blru0SYF1MCpgRMCUQkcAKt0kihh7mDdoZmlpV/rt9s37C+vgmjIcMSEmZlZcDgCIRCVT2dpZ1dGF880NL8f+s33jx+YnvIh6FYOHmAo2+XVj2zbx+I4FjNa8cUZsZ6art80Pko9Qdr13UGA+tr6qcsPm1+duYrpWUynshXCggEGKiZMf0PyhdrFtQsQNm2nueeGqyLrUIEBYwae1AkZo6E6bnj7aebdq8FwZEzzx0y/ZwdbzyOZAlZhQlZ+bvffqJ4xX9RudjErNwJC7a++CBI1O5aG/R2jZh7ae3eDW0Ve1jEwaelkENrOCE1Czd1BzbU7lsDFko2vmb0wGHn+nta1/zhm5jK1NlQkTF6VnrB+Kqdq0FVOEEVbA1FG8/64b9yZp61f/lzIgGU37r6yW+xm1K+b9Etjw2ZdnZr+W7sqQgcrT+wbcu/70d2f0frlAu+7UnK6WmtNvzVhHaulMT8Jhy+o22jD2qr/vJt9CxaK/ae9o0/Dp1xDhzXOHutZseK8CV3xCRmrH7ydm9nO175OngsVuH8q3Bd8cgtPd7Wsg9fWvKTl3EWbG0RqoZgq9m1avuLD6O+Nod97JnXphfMrC9aixc5SXn13gbZKBFHxWE2DyRDLEz38FSfrQ01wNHdba3vVFSoxpWdjELLymphjILn10tjbpwwVhmynEANmSOEbY2ddUif7Elr6uGNCnt27SoYM3bLts3as/nHlIApAVMCURIYjFAK7Synl9hDYV+7LxiGRrdZ97e2nJKZ4XE64LDFNEjglz0ceGr3PiDoI7u2QeGiUkPjEpB3Vyu1Myyq/a1N0O/DExJqu8WJZw11BoGpOP3FVtbemRsfx2TiTFYC0fYJkmkM8GH6gz1/wSEeYlFCw3KSLTBX1630zDI/pvZg2E2D2EALjsu2JeQMB8NwC7rTsnzdLWLi2jLyJ8KZnDp0avxlI5AmLiXH5vYAdwFi2m4MPLVUDzpB/Tnqr6BsXdE6b3vN5LO/Pm7xtTU7Pyh67x+dTQAMLkvFbMaAvxPTl1A1n7cbCBGyu5EfvZOs0bNGLrwmJjkNzlbUJTY2kXS5TskaCvA0G+TtaCjDSpH45Cx4rmE1Wqzu2NjUyZfejoQOdywgKnXY2Kpt1XiU9JAIsRmPOHxGbdDISaqBLpSLPx31FaATlwhq6AAEZV6UBR7dppIdWP336k8+g0mYEHt87tCwt8vnbaa/3WLzNtckZeaBJgJKCfV0IA3AsrV8J94mJGcrn2xHoMNtdcOWxDFppM+2ITNvl1ctHjL0gXnzyjo73i6rXlFd3RPwo7kgEGRvCcGvzyPzcPAQyGLxL5ZWaAXxsLyQy+ECnZ5AF2dTawBrefaZPwet2s77wpd5MSVgSsCUQEQCgxFKwR30I0++tDi5DxBPmAQywCjE2ZsK/LAEGy+clZ3t0J84LBP6GjrXjZWZoZAXx6YhTzjYFQjbLU6XKHrQhI0Ju4TqNBD2Qt3DSgJ6iXUJRIRxhuXzysUn5onFbY37wZL7I4Bhde6q2/LshsdASpkypIlNcziTEKmIQ13e9uI1/x55yqXpBZNtrjhnbPLWFx8i0oC+xwWenXFxLpcLat3X0eBvF8iXtyCFMVcM5wllqHAccwZUGCjIsJDP3/PuA9dnjpk9dMZ5WVNOz5myeM0fb2uupvMZnEAYKAsiAE7gVDS1RX7yyMnTr76nvXbfvuXPt9cUzfnyr2l2gznWmQs0eNo5UIloFPAjhqObHvRXwjhdMzETDlB0D5pKthrOZ0qS2IXWocDkyFXS4x4VnBELCk4YryCIg6+ZgmfKUVBtNQekfVQ/xA+vusMR68dxOjhbFu2ATozX5/Bwk3yFf8getOGt1efzoS5oJBKzWmvbquF7xy4NmCCNR5BDYVieX+3t/sp778/KTJ+fk3X9+IILhw//5sqVPrU3gnwG+HJYXXwAnF8tWQmzbEUwmBaX6QuFu3FSHrsDFJB4HRzaiXUs3AymBEwJmBLoJYFBCqVyoosDWpi7AFFlh8YkJwLsWgI+WTQpMKMrR+Ao6oRk5e0d0IZjk1PXN8A6tIxPTgS8FXfIudPQ6Zw+QnUJ629UUvz+jjbodyEOxUwXJSiL0pQtcKlz/Uv3vAw6BnDWttfQTkFi0eZ4pVZwcpkPmbGBbVd8srersWr7+762luqi1TgbnBRs4daS3dZF4X1Ln60rWQ9GwIbmFgaSKdeiJeSwsU8Angz3KfL2D4L0KDFUu3st/sUkZy/+5lM505c0v/pIVGL2FIBgQBmFPSPnXopC1zz5A59XBIKkNO5ZO2IaEIM7uYdiMoYBArvrSiGZ9vrSYNjesnfzlpfFv4pjXAF4RDtBRoE6uePCWeEKF9QAexEAkxzoZ8SnD8NNd22JMMZVn7gBZdDBiel6Ftip++HudrrsgQDdBvEZQ9prSiJCxmxomryWjIKp6E51yDQl0KlpKY8ffkasK6HD10b6cNKCODZAgDfDGl5RW7uqrm5hTvbXJ4wviE/c3QH3gARYoehpoBo8oxxoSdhnC6pzgcLh/PQxdZ3VAG8IBds6QIJwW4+bOG78uCmvv/5KR6eUpdEy/5gSMCVgSoASEG02KEUBYwAYcFVhfpYndlHekNkZmevrOBkHitjjsMc6oKktSU5XjD3iFu0KBfe3tp0+LHd2Zsak1JSLRhbUdffUdHWzfqLEP184ChODv1BQiOxrq+o1HNWqDzNFBsxoDhKqvRb/8gNv49+y0ndwfb/knd0N29QrvAUskSoMWUC0tjUgeUvJHGnzxMQm5mCubO64he7EdEkWbi7b5e/pmHbVnSl5Y1wJaaMXXzts6tmkA0UO0Ko+gPv8eZd6krLyJp7mcifg8WABJY6cd8nMa+5NysqPSUwvmHsRuOqoJQU9ENhg1oEz3BAsLZbOxjKwl5Y/ye6InXrBt0EkNjGbIIp6WEMod/iszybljMZsJliiFVuWIzFCY8m63GnRWPrUAABAAElEQVTn5E1e7IlLzpt6xqTzbqMNShxStFWB0V8R7+MScobN+kxi9pipl98J869i+wpwCOjyJKThDGyHJwZmroaUxF1LxaalKGvG1fck5Yydesl37DZ32bpXFWlccycuSi+YmjV2DqZHhf2+1krWFOnXln3gC/s/O+YSvVHENrVYvjJu/PnDh6e53Vlu9ykZWUhc3dNjUKPhigDjHoiOPg33nyMAo0a4GZIwvDBtLLpQYmpz93nUE8B7xZVfmDJt2jnnnMO8ZjAlYErAlEBvCQw6q5Q6WjyHMAhgFiS7nA8vPBWarrS97ZHtuxTzXywcfebQXKDZY4sWvFZW/tfdRUovI+/PN27+0cwZt0+ZjJSVnZ0/37gFTjy9x2CbmpV2fv4wvFpZXfdWRbnSnrpAAA+4pTrmljk6GzIMR3jQuGIa4qh6BGX6RWHPic4FGxufv3/ceV9LGT7aZnMNmXr2mLO/tPKJ2zGZKBAIrHz0tlOu/9W8Gx5gMZbgnrefJln6FMPenjZ4hgtPuTR7zKmgvOvVxw6sf4ElDRSQoKe9MW34hKyv/151EWr2rK7c+A7SQu8HQkGXdAVU7egJl3BgxfO5E06b8bkfIXt3W33R8r8XLLiCVjUPLbUFAz0TzrnJaseaHP/u5c9iOFOyhz78270LrvvVlIvv4OykkLVuz2riKO5pOgtER3Eok8UYGQj2jPvMTXYbj1Lfs/wZVB+pXe74M27/G6qeO/40/HvtpxeEg/Du0pSsLVq99/1nMNVo3lfhDw+Vrn+5fOPbHPqUEPZ751x7P0oM+LrWP3MPiKuSvaGeV7b/8+Ipn19VsqysrZzpaWMG673eKwsLPj+6ELmBlU/t2dsaIJSqXFq/x0pbU9FXV/SKXFb3F2Z9pb6tal3FB4gExoM39Wk1NNZnZWa3tuoGfXRO896UgCmBT70Ejv/GgUcr4myP56EF8+5Zt7G0vR0aH7ONBqSk9J16pRAOGtPjcMJ0wmRdxCMBcG/J0GHXjxt95dtLkxweDJv1wFEpAdofujKayIClHCoS6lugC3SSs0emjpxevOp5pAf5uPj007/zt4rty7Y8/0vEYEwXa1TcngSPO7G9tVwHeNJWsIdqxqYO6W6t5RqVgwTUTpQ7Wfa4E5yJqZ0N1fBoHiQ5o3WxYJTREZuQgkk3PZ3YYM3i8MR5vZ1Ai/k3PohdHd578AYY093tNcEgOh+9AiZLx6TkwW8tBWnYrKfoKzxQcycmLXvg+vjE3M7WKgxkMiVs2YON/ipC4jaIScn0tdYQ3HWYO+9HL5dvWbrr1Uftcck9rbXRhaEKqNp1s28dlzPtF+98v76Tk6GMkOziZKsWn9eIOfQNWudr8+4ckTLyF+/eVd9di28G6dGIqmluu/X2zMys//v5T7q6ug5Nx3xrSsCUwKdQAoPOKjXaACoMASq1PRjAwpSDhT56HcmQBTOPMFcFmRGYgEakBlfKQFHUSF/u+hNRCY7oqlyEktQVlzbu7OsxjQYrKeERzZqyANFt1cWKDpf3YElJTzv+GTiqoBEqG2mAYRieBFcqfcECLPecpVlHiJQ0HdX7ZE0L7eYeb3t3Qxdnxh4yKOIwfzGjp6udc4zBBly/fsFRgpwETGtta6k0RKHYMBjDzF6xRzH5BuPBCdOu+AE4ph2ogw1o7HzlEfCPG0TCW97SUmFQOwyOIg+nU9k6W2qYRcdR3GJuFAoKBH2+5jptkJbtCWcBmhfO2fCTax++dvbX5w6b/9Kuf0UD7RGCqMoCr29mXFZ2fPZ9S7/b3NPIOqFsKQhXTJfKyMreW7THxFGRinkxJWBKoK8EBi2U0jKBRvNj8qZSnQIkfdnv8wzVKipQ9ryFGQSlLsZQKIhhQyh3JI/Wtn1yf6RHMMcCOGkFvl1ti92G4k0Vm98ac8YXsfwRU2+6G8v2rXxu/8rnCQ+KE0IoJ70YZQH4CQx67Yis+ltMR4KLG7NqwxYcH4YVHwoyBWuYBSiDmVmHwVGjIGEggG2QAUw8ztSwEYFh/kDAiz0cUIuIeAyWNApcM4OxRXjAMSlYprYqpDHYRdVkFBIdgoCXVjIZlRBdQT1ugL9SOhmIMEFUDoZ7uLkqD1bRSZI3rRcEOqE/f/iwAn6jRMQyi94pGaAwPUplwdqh2q7qu964RbJI94skNCm5YzzF+/a+/sbLeibzrykBUwKmBHpJYPA6eKEi4XODPlQbI0RryV41iHrQbcwIMkH74gH6ka/giBUNa+RQqrYvZhivD3NDzQ4gxQUYrU8BxWoOF/Sy3enkYRUEb0z35VRVNfWXJHUFjVtwhalVqmrkUdBRoDYK6iSLgdYoUZyfnPvD3EeAFpFCVdHGYCdfkB9MHEZfg1I7OPxw0Yv4sVFTWPyY8KpXhHN3UE0MGKvscFMHcMobhy15zhUCKoNqgr4q8GBX1AULnoD2VllJrMRitzqCYSwBpRkty15gIrJXFF1xVa4IkG2Nx4MV0T9e1VtrApTCb0TDbEVKUcM9m5gQjrdmMCVgSsCUQC8JKB3SK+qkPwA2qM6wtpLrI/3Q2lTchwtUfFxRSXNEpUUMqkcdCLUPmwvABhiKwh6kNBIfjnz/9xQdbCWCEDQ9F9tgBhFxlHN5/FwHCfDBfFUlYlZFgszZoSnJbDqO4lHggdOXmEpPrJJhFwFDAjQoCb5Ab6z0ZNojCgZZzJgF0mki0soKBwF7akjzoMSAo9IugLSgg3OZUFuwDzuUrmYE5CTKgQ72PwB6MgBl2RZIp3BaIge+sK8TsvpheqKZOBNLa0SgKiQJJEbpBHqhqYojIfQnwL0IQitLzzhwMf1iURC4VW3DNlI9AEmGcvEXZQl98OFD/foRMCNMCZgSMCWge8wGlSTUOgTgB1QbDVMByMNyqMNDJCEWbirtr6Kg6HHTP1kkw0e8o/bHHkD0I5My1DFwFJoXRUD183xpuJWp/gm1RpAYekIVJ3ipXhGAo2DAyKJMVQhBD1T3CsBo9H7UYKW9qGfSbiBnsAGwNJjRE0T+gh+VkbWhHQ5mwa5yLwvIwfcrdVX9gGhSql7RMRG6+p20Mk8XUMnUFRmJznYa34rXKDnQpkdAZ0Wsf42QIZLo4oxIvbTefzn7WmiFufEhHAt4zex6h0bRV2Z375zmkykBUwKmBCgBQ6sOGnFA0cMyIMCQN6U6o9XikTMK1c9dYQXkcMH+cHQS6tCl6BiIdeRkVUoCicCbXzfnwK4iDvwm67BgpC5GygGLAN6q+Gg8QEYSB//AadHvUXk5YRgFkSxcnVEvDnGLtNpbUOsXSIoJemF5n1TkB/am1gMQS1QnCYwhP0igsEegWquODttCvw/JAR6VSI0XIKtsXNRW1TSajioRBYlxrGUyPujolEakQbnPDV3QkIDwD2DF2+js0qygcYTC7kPbfDQlYErgky+BwyqZEy4CqDP8k4XzRtnRes2IVDcDqjdGAo/FC4pbqSTmxNB92odUH93dh/ghHqFeEVAQN7iTQPNRgm72cSxTaedoJpELnQWVElejAYQelThuVC5cYfxp93oGvAXPAmo0E43s+vuB/5KmCoIWfRLBIFYJIsn6pFCPaloR7ulW1XoSfCPYo5LIE6urkdKLY5/gcMEoXZcoM9CNLMwrFzfoiKchIlG8ZZqIRPVipB+jPxzyr3RcZIMtsXR1nvvlOUJh98tnRpgSMCXwSZfAINUOfRFOs1MHaI3eFaCGhZJnJFCzt/bWvZF4F1HEfSgqrc2rbk71SdDrUTbei3cmqUhu1KCCKl/3VQL3NCaxb7szQUCIljfSquK0XLolhASMiTCgceu0OLCHgHp7bAftyJJhthrcHOKmN9hwiDEqGC0SLf/o+6i0vW4NHvokVvEqElfpqRiFkAK5793WjAVXvRlj5IAhKtkAdAbMYkaaEjAlYEogSgK9VFJU/Em81fQy1KMyZahJxZqMKGy8UVBkwJXwCzBDGuBTrD0u0ZUSXQfEc66MFowbPGtU1R94+VgcQpR61TL1/cPVIVmxOfec89uJ2dMMOkgFzAYRGJQwlWhC6cacy2a/Z8lDi/LPYRFCX01s6UtYPesMYAJwfvLIu8/41QMXPTU+Z8rAic1YUwKmBEwJmBI4eRIYYOTs5DHDkmXRCG0y2dIOrk5MOQHyAekizszzxl2SGpP5t82PwmuI0z1wWKVKgGEzrp2wBL931n2J7sRvvfBlOb+M2b81726Xy4N0++t3P7/jaYyhcj4LUZN/gNl2+pQ564RrHlCaeAyBypKGjPUJsIOy47LuPOu+PfXbdlRv4f7tguvfnzltfW0DdiUEhAawaTv3cEVa1sEb8j298ZEbZt+OzYOWFr2CcdvDAjYwGabuxVOudTncP33rjvr2GrWDbB9mzEdTAqYETAmYEjiJEoi2z04iG32LDloxmwduVgyaAs3wNsInhiSHJA/LTs4BcALnuGk7UxAvOZAWDgAPX9/1wpt7XhLrkhlxZtnmqjUflrwfY48pTBtDDyFsPhmOFYjGakas0MTpYLIdBAqlRagmyvZlzHi2hZ03zb2jurXisZUPYDtAxHPBhiU8JiExyenA+eTWYADrYADMwGPFPXoHm6vWP7vpiUsmXJ2TMgJlHDZwfNdicVqcOxu21nbWqsmlh81lJjAlYErAlIApgRMpgQhEnchSD1EWvKZ468CJ0DhxFOYmjEYYb4KKuPIftgJAPKw1MVMJSDx1lEm5M5/VARBeW7rs9d3/4aHOYl5iMG/5gaXLDryNw7PUFBmam0IWhQGzMaWFs1pgQxKQuRKf3mDJfjBW542Yn5WQ+XccXwoIlnkxmigBnFifgSPG7ABUFE+zVAUxcEOrSt+r7qr4wtTrUeLBTF6jUOxzBDO9wVub4s4gP7rX10hg3pgSMCVgSsCUwEmXwKBz8FIiYdvwtMIbZ3/zV+/e1dLTwuFG2T92/ojT5xecdd+7P2AKS+iyidecMnwRDmZ5e+8r7+x9BfmwCPWMUeedWfgZ7o9gtd7/zg/avc2cyStB1g5q00GjMQyYPTl71jmjL85Jzq1qKfvn1qdLmvdimYksadRhUJGIus7KX3igubi6rcyYqEJ4RgiFEuyO706bPD01rbK7429F+9Y31ulzepEfFrD/nR0vXXPKzXE4aNN/mJNG2G+whJo7msZl5cmqGJ4MGsWFeWtKwJSAKQFTAidfAoNPL8NHawm2dTUleJJyEnNdNuvPz33ka6d8G6IakTYa27uKAWrNS8nPShj6p7W/3V618aIJn4tzxCEBrNhtNRv+vvnxNaXvJbmTMN0HHlEYhcqVKhlpcSLIvbZodUTKqBvnfLOxp+6p9X9E/K0Lf8h5tppT9qAtlB2XW9FSwsUqegBZ3AK5zxo+pLqz46ebNvlDwS+OHkUc1ffTQQKcYl3RWYlapsdn61kP9RdWaVZiDjd/4Kb+g6+9DsW7+c6UgCkBUwKfCgkMRqsUeNbU3YAx0cz4rC5/T7IrKSF7KlojJyGvvK1cLd9s7mr4w6r7gWTNHQ1zRpw2NHkkzuUGztS2V+Jf0B+wjGH7IQbeXezfpzcmBzVBH9N5EAWUhU157piLOn3tT6x9EK/21W6/77N/mJA1dW3FCj3LwH9hU7Z0NwskwwKW3VklIWguLa/6a9FevHq7zHPjhLHwFGPhIuYWK/sV15YuHM+C6uTC/B2Yus7bReM/t7DgLJfd/fja34ZDstjG9PEeTGRmvCkBUwKmBE6SBAYdlMqMIFqNQMT0+DygYVVbBUA0NSY9LS5zbRkQjrjY4W1XFiFOHsWjQBpFCANU4JP3Wui1W5Dm7NWhFX9Dw1JG9gS9l076vDIrsRV7bkqBpWKFYbzqhHr9RTKHndjGsdzetqk63gvZ/WIPY9QXJ6RqBQtGYjouMvYED3ooKclKhqKG3U6ne96I0wvTJ2yp3tCLA/PBlIApAVMCpgQGhwQGHZQqgITpWd5cAhdukidpd+N2XIenFsDvWtVWDrkR82QyDy4Y6RQA1cSJKa9YDMMH2RBW4FD5dxXcMidfwtFKk5SvnFaHz+ZP8mjrULdUrqts2UdI5mZGmNqkZSfNqNDa05QVn4sIeJA5lqu/4iIe8fSqCMKscvxyfi+4xkxhR0pcBt5Wt/c6qlonYPylsbu9btPuuq2YqzwpZ+a/t/3VeGfemBIwJWBKwJTA4JHAoINSGqTEHltZc/Hi0WPD1swd2/5TGjdkxpC5eFPVWo5xRwRltYnphhy0Dgl+NA+1rYVwshmocKQU2CmrX5AAbl24YkkBm/whE/OHDnSUemyuJ9c9jLQwHmmoCinQxEqbKFjs1Wo1LZXDUwu5Zx5RFIAbZIlMbhx8BjIaWkudxKUse6+PShuLVy3tdb0o9n5QTmNhxu+w2Xv8sMKlqN7JzCdTAqYETAmYEjjpEiAODKogOEqOytvKUmKy0z3pB9qLqlvLp+XO7g50d/k7OaFXVrSIXYqlLIAx7Csk5mPYFmuPTYvNSIWJGQqnutLTYrOw2Z5M2CEOYYQ1Jzk/PT49MzEv3p4obmHb2n3vDk8qXDz6gnh3YkHyyCsmfznW6gIDKOigQGqxvLH3heSYtEl501A0bU2cSYr5UpxhxN6JZFR7vgu+6ruxw7702N1LRn12TenyrvAhHbyShRyGHalxGc3dzeA/et92ysgMpgRMCZgSMCUwCCQwSK1S4FNFSxmO/QSWNLTVlLcUBy3h6vaqIE7bDGMmK44DB6JyG3I8wQ4VVy2HWa+Yet3MoaciF9J/a/GPMF32gRX37mvaQ5MuHF6679WZQ2b/5KwHAHX/2fnssr2vogk+rFidkpB5/rjLL5pwOVLtb9jhdHq8fr+sYDmoKVjcsH9v3Y7Lp3xpf8Oe7kAXsVN5jrkaVXaHx6zdUABGsZ1HYevb8Nps5467zOJwvLjjOWyqdOh5wlyuCjS3hFJiUvY37AOrPDLT2Ol3EHw9JgumBEwJmBIwJQAJWMdOmvGRBJGeltnQeCjP5EeidvDEgn2ARGAU3LIyAAkzVE3GMW4wpApo0cxT2G/6KheShY0I1JHRUDypLIpeiifNH/TJmk6OR8JSRDzSpHoyO31tPcFulYwmoJ6dBPuGEDay/87ie30B/2+X/RgTl9TIqziT1epP2MtOHF0OZDUA+axRn71o4tX/b+UvdtRuVoX2pdr7WXHytVO/m58y+tnNjxfVbu8MdPZOYj6ZEjAlYErAlMBJloA9PYtzZ448xMbGdXWfAG0OEMO4Jg4pw4weWnxAIw5LEhL1KycSEQJl+1vAIZ3VfI8UODWMOzNo60dZO2UyCp0uf1cg1IOsQbznG2ziiyLC3YFO2Ls4IVwGWelpFvLMPUAI2/1B75qSVfNGLK5sK2norlFlgAN9o0DhRQqGCxhTk9xW5+dnfu3JtQ/vqt+qMFLQGqUdJuxv3JUen7lg5BJY5/WdKMgMpgRMCZgSMCUwiCQwSK1S+G1h5Cm86WVrQnR4RRDk4KQuSN3qk+lFMEhl5q3+kiOXNF4jz73vFB6jFAFp0lTl9k410JMUBzgEPwO9ZpyyhiNvdQ5hqhrFRd4e7q4vtcOlN9+bEjAlYErAlMAJkMCgm3bEOgNvaBnSYYsrgA2B8SoIxEbhKGL1Wmj+WNmcV0+Ov4fAUbxFKaogw52rPUZRGPhWijsEjpJ4FOMkonMYdc/bIwx9qR1htiNLJrU2eifsBCDg2lf+R0bteKaKbGt8PEsxaZsSMCVgSuBIJaCD0JGmP+7pBoSxASOPOysnpICTWzVBTjHEBTKlU6LZ5dqmEvBNSzghwhigEIXtSkq4l0d4LAZIaUaZEjAlYErgZElg0EEpbSDsJR/lMe1lkp4sOR23ck9u7dj8XL2DucQKs/BMzzOgi3a/3By3qh8RYfWBciUxl/lGtsI4osxmIlMCpgRMCZwQCQxGKMWxLhmZaXTzIgwCbX5CGuIkFKJQXBzUwE3sXaH3X8JB4CqmH+OINxy2I6agAbQnnE8uGsbYOK9YXHTCizcLNCVgSsCUwOElMOiglK487I2ArdutPAQG2vzwlfhfTtHfKu0fczzqR9nqQ9Gkj1W0OGVVjUlb7TzaTeZ24Spe35P3nWAmtk2OmrNhga4DH4QZTAmYEjAlMNgkcPJU5CEloQ4Ug64/9IyhQ9L433ip8Cya1/4x0W+P1T1lq8MSTE6AKNbXMsAcRVdGBiPl4xgEc3xCmIFNk1SsZQrg5NnIx0r8Jh1TAqYEPlESGHS7HSnpwiqFrlc7M3yi5N2/MtrymN4vBozsneTjP+mTd+jNjcvKmfPVb3CCcdhWvWXzzv8+J8YoQAtLdD9+UR+LwtTrv5o6bJjiZ/nPfxLwdUWdmvexKJuZTQmYEjAlcEwkMOigVDke4X00PJDHpJ6Dl4g+3yfOEQ8mOwMdZFWPPK5sy+pb7veEWUaumFin21WyemVPW3t7WanCLbTCj6fPWltb+1ZF+XHl5BDEYTpXrVvTXLwvKScnZ/I0OHsVb4fIYr4yJWBKwJTACZbAoIPS4+3ehGqGNUYUgXtTEAsx6kAYOA6tnGvDo13U2eDiShzIB35kVqMMR9KmO0S3AK8AojfPu3Nocj5SVneU/2HVbxq76lUWPSMNR8zGQsAQ8sBYgi1/ecg59ve32uxqSS5zqe8JdxgaNbZCVBY/tkxElBK4HBBgK1/5QWdjvfEJIkdhYnxRC08419sFmwJjGi16OtrCU9xEByVeI716jE7Q+z7CodNqufjUYedOG1LT6v3e0+sMzkG/dttm5MocN4lQagRpAnBFmZjBlIApAVMCJ1UCgw5Kj7c0lOq3WQLcbxAIEQzhZBfMueEKHOAJtsEHGslSEJhr/Ns7KJAQ8D2oBo9S7tpopI5DvWnJE15dOeVLyXHpP37rm15/99ljLgQO4g0QkegXDIXAGhERCEmgNDCGMeRQFYF9CZGIOIfUPC2HFWEF0ScANeIoIUeDYdQbo6KSlkOjkIlsiaEYgt2HV/D0OgzjGKUgCAXuyaj6Gb1BlKCod1NATXGl71AB8ZKm0OdAJ1Piom9+bCnMTb7jgrExTicOVDfqeBgYjjLcwdunYixAyc+8mhIwJTD4JPCpg1K9CWSLeWh8m/W6sWMswVCiJ2ZWRqYvFHi++MBr4uGMsdsfmj8Pm+f+cvOWOVkZZ+Tlxbjs3/ngw8rOdqAa1LdOqtdfmbRD4OHWwcBnOStNQXWvdFEPCZ6k2vZKWKKI+8/2vyvIUmh939xZ71fVLczNHhGf0Oz1/m779t0tLUg2NTX55slTAsHQ7StXfXXShOnp6f5Q8LplywGXQKpzh+adPSwvNzYeiZ/es3dveytQMC0m5lezZv95b9HnCkamemIOtLbev3lLm88X4CaNUdxgzpGgHWdQy4FxyXbn96dNn5KWWtXV/rei/evq63lkTV9TW+Sp9y5oQAtRDQ55XB17A1KM1juBZASbGdfZ3bW1pOHpZWXfvWycy4pvknBLqCfkHirExcRfeNEl5eWlH6x8/1DpzHemBEwJmBI4nhLQ9NrxLGLQ0Vb6Wc5Qo5cyw+X5TH4+tvR9aPumBm/XtWMK8xPiocX9AcvD27bFuWw3TRh99pC8zQ31yOK1+GGxAQYOVqtzJ1x23exbrp/9jetm3/blWTdfM+NGGHcKVw6W5Z19r+anjrpq6g2TcmaOz5w2MWPi+Mwpia4UpM+LjQc/m+ob/rB7V6zD/sMZ07HbPuKLW7uf27svOcb1kznTRyUkFDW3qEqB7QVZWV8eP6a8vfvxHTtzPZ4fzZyW4uTxq/g/NsZ507ixz+4v/vf+/flJKbdOnghLUda99GFNfRW2oI3rOBeNGFrZ2fnTDRv94fAXRhcIjvbavUEtSDW+JNzA6gQnYAkmtUaazufINsiyI4RCVr6vbgo88npxe7cX5nFQTs5DpCB8JI1GJ+oP6M8+de6kiVPPOfd8JZaol+atKQFTAqYETpwEPo1WqeZpFA8hzFIIu6az44HNW4EPB9q6Hlm4YE569oH2fX5LYFtDUyBoHZGQeMeqdd5A4JScnM4eOk4Nq6t/Q7ksTnGZOmjb2R3BQLfu2OyfVoupbq2qbC6dP+L0aXnTHVY3Tkvt9rY/tf7RnXUt8PIuraz+14EDAG9A8k3jx45JSd7Z1NQR7NnV3ArDLcuTcON7y0/NzYp3symR7ML8/JrOrge2bQEKFbV1/PrUWbOzM94ur4Q32BoMPbx9+7raetR6aGLC7Ix0oBHRFHhq7M9ApujdxcgrTnvFw7Kyiqf27AYyvlNWdeOE8aydxWnBqlOmZABl7QboZw1lJw5LdMUrvzGSQlxlrfs6/N1wpssxOZJW7F3DgSwWMKCWRrydQ76AYeaUiVGKdr+rlLVv954F8xfV19YEQhzh7pfIjDAlYErAlMCJkMCnEUoNuQqQcAyvMwDE5KhhQ093MBjMjItBGo5WAhpswfV1DWUdrYi5+s23EUOjq5dL1KDHm//seEae6aLEmKLyhfZK0echbLttwQ/afK13vvaVDm/76PRxt86/6+7Xb/OFvUgIDuGDVeOmxW3t4CjN6UF8KGzH/zgG/Zk9+33h4PKq6vcqqxThYfHxKyqrYdPhEDn4ouFGHR5DIzsc9gP02nxe9h6soZLW9llZGUlud7O3hzOWIsOuKNSGo9WBokE5qa4lANsU1bH7MLwaDgJ3/RafxaLcsOQw0lcAFIbCnx13ydScWQBFFCoitOB81l21W8gRAyUjICo3EiU+Zm27SBySDl6RGcTk5UEvKLqiqvyn995FQiaOHlRO5gtTAqYEjrsEPo1QaqhwYADUMcEgan4R5iPJFj/AMSTE/Bxrabt+PivBgLE01g4Sbp73g+zEHOOlz9fzs3e/C/pGTJ+brLis1Nj0P6z+Tbu/zcFdfXpZV+AQZRFVwhZvENAJNCQpGRLF2ltbaTtdu4QzgTR5GerC5B2imFYRt8Mp2MQ5SrQgWYOQF1WG4cwDYeW0VtCUAOIcQAYhzHPixCARgbI7SR3siAD0icQRHEVOGd58Yu2Deh2ZUlLDvBSuWYo2Vcq4YYkEWRaF9KqXoqxSnc5Afzmmq4VDNIeexPxrSsCUgCmB4yiBTx2UAi9o7qipuVTHouN1mybT43bZwuXtXRA5HJ+CW5qiFhyiyucgK9Fo4LCqZGmiK9F45yVmGTrfiI7cxLsT8BAM+kEWflUyxqFYyQI7jm5iIj0gfXxqMlKWdXQgEjY04EcS6cekIC22KrJa67p7xqUkSQGhrJhYTPstbm/DI6bsou4gJdhmG5OcCKptQdq+RtDKBQyDNP9XF/09pWRUXOQmXlb9NblSwlIFQVSgge4HjE6KTQkNIqcUVaUYqSdGFJIJd3xN01/McaNEo5zIjcvpOe+88zHtaMPGdbCY2VXQmzKSyLwzJWBKwJTAcZbApw5KFVpoSzCpeqmpRyYmzMvKKuvo/tLYQjxuqG/E1R4OxTtcmM8S47AnOTytgR7VFtgWmMOLBwmbKtce5M3A0eXNZVgBcuXMG5758NGeoHfuiMW0CQFBBDPytmRoHvhx2y2XjBjR6Q9WdnQCRGOs9kQXJhLZkpyOeIezw4+RS2IS0q+sqr6kcOTFw0dsaGy8dswoVBFzbhFP/LdariosfHTH9gkpqbMzMjdIPAFMCtJwdGA2xXjtD2owIQXPVSaFo7g3SCmbVRmdKo2K0e9JEYmxqDQnLRY3bqfNYbcOz4jp9ofrWno0e5mJDNoqK69IP3/+whmzTpk+c9amzRuCOA9eQDqSwrwzJWBKwJTACZHApw5KlVQxhSeAqTUYCKWRZukKBG4aP8HjsPpC4T/tKqroakdknMv52KIF0NifGTYU/655612sDoHpZ9Fn2RyTBvJbvQ8sv+eGud/6yTkPgWCnr/MPa37tC/vBlkKPnkDo/+bMwKs2f+AXG7f4xS6clpH6rSmTYcN9e+qUio6O21evJfyyZxD+Z/GBrLjYy0blXzW6oNXn/+XGTRgARnZgGAzfZJfzwQXzYPmWtrc+umMn4mH8yRJTvNf6B2HsfxTC4TCAL7uBfCAO67IPVDHyaAIrR+APoQfA1asp8a57r5kO1zMsS5iw91w9o7mj5/Y/baB1TKSHvxrAKWayFMdoGLtW64ED+yEEDG8jHA0jZh5TAqYETAkcCwl8SqEUg3p0iFowLYgSqOnq/uHatckuTwvm+HCtC224toD/yreXRoSsYER2EopEHou70pbiu1+/Jd6ZAGTq9HdZZfsI5esE+feqql44UBrnsDf7MdlHC2v/f3vfAVhXdWX7qnrvsmzLcpUs27hjg7ExhN4hkE6SCUkmyQD5JPmpM5M6KZMh+UyGhEmHUEIqKQRCJ3TjKnfLsi3ZstV7fe2vtc+99z3JkrGFJWRpnzhX956yzz7rPs66e5/W0HjjE0+BEYVweSWP0kSE/9p9V8Uu//ZdSX5fez+mU8k0XJSDJe4O/2jHnsOYi4SZVgHryB0WJA1zmHbuNdcFu7ubdu+q3bIRvldA8cGnng17vKbpmNz0TO1RQ/CGzGx1TvUvZXDOMBf2QHlXfUf/B/7fC9AELA5dMDMZvmLMb4LnG0Q747y3pU4tSM7ONcOoLGtTOjSH6tt3VJyqBppfEVAEFIHTiMBkpFJ03pz/KgOBYTfWMWICK569jf19XhlwBI/S6OGSS8fWsUgrZn7SaXoLMnYIZurs74KBiJpDnHpDp6shLezjgzm6/QFoYnRgvSAd+J9h0tGy4zZITDIEEwyHfR4P1oCSejlOyabw/15MU3LhS6Aj0A/+kfxukBaHMCO+vs7G9trapMRUV2JqR2ad2ILgK8x0AlQwClkCE4WgnXxmyK5JouTIUYjZTQmDnNCZrBgJot1mzDUkXl3Um5CZnppZgDa0HD3iIg7RMHduKT4Envz7o0KpxoQFFBoUAUVAERhTBCYflUZIDmQdMKg35A55+z2BPnoQSV04kQY8Zm2MBwqR9RvCYBavmZdjddyn400Z/pMraI3Mxpk4MJnFdQqm7wng3FaOhHLvWyfQcoMBGiQ50ttpJYGLfC7srRvCEC+iOA8J9EdZ9KVivWZfIMA99jhbFhJJs+BU2MFddS2v/OA7oEsu5QRHc7IQIXGHg24P1shiHBKoURMhPEPbIyEt1MnPBKjMAVqB1uXyg9OpEty4eCWimGgJ5aDKjkd+L40ANNhCEQWd7RJdnZ2dLzz/XFtbm1kvRMEaFAFFQBEYcwTcpQs5DnfyISc7r7Gp/uTzjyznGNSCDh3DpeAb50aoxzATzTCwh1h70RaQ0cgBpDZDgdG0N3cHgWAv+jyhDhdgks1ADDJayVNEhcN4pCiIRKrijWFE2cdARhXF7UmucvtCLqzPFKYyvChlwK8hbnJr8a75IDBtsThNsrGFwuSIlMYKq9OIp0hRLCrkzbXbKo2K+AUAH4Boi0rNfGMko40w1om8WK18YzF8yY8Be65R7P1p0UqFKAKKgCJwkghYvepJ5p4Q2cCGbDWHS6U91ipS3tOS4zoTCWQiySm5eOGWBWbKr1irTvybv0FNIA8ogJpBFdABVyG5IBy2sNDAlzJBlStEUR0eTU7cG753qJ2DjBHyKHLBYCXTwITlI0xLbOsgTCztgvGNSJqbwq6ozsw8orUqSRCCDZKkKPKB0MSadwdjtwC0Ukf0x9SCooSdHI/6RD0cMUDPNNWj01uUpInNZ1sfao0XxoYKm4Jy5VOCmTQoAoqAIjCmCEiXO6Y1vuWV0axhNx3tlOHyZQ8OLkEgf0injBvM00EMMjM/+27pviWGWU9HMJWiRpiSqMWQmXkreEAE5+HA4wvFyC8WYZgMpn4Z3rWUNzEoKGLphsU/Y6FamcXC43pPDBijVrvJaBgz42tB2m6uLGJ/NBgoQKicFSQrYIjFmwhsrPkuEeStGg3gdONab8FoiHqiKplKZetBvhgJ8t7ehDZaVBFQBBSBN4FAbJ/8JsScaUVNv+x004ai0H3bgVyLQHRAHhLQWRuwBvfpdhnzNyrTEK+JFUlIkm0EhL5sbqC/VAKXq4LGogTPWPGpmnQ8WOQ1SAFMPgLLGuVZu2Ejuy2IAWWKCBSnBFKmRKCBYEoYuIi0lLC/Ephk30tZKwNsRJQ1bUQRc2Mym2y4Clp29U6s3MRqbgxK1stPBH7KROXEtNTQttHcVGeJlDwQaORYkfLHZDMfJYgYgGFsvtN6b5oWo2H0S8OJdJrvxKBdlidA3lG0jLwpq9XR1ycai48BkMWqH4XOiZWfHJ/sG3rt5bU6WYa8oW7ym0eqo/CQOTVSEVAEHAScLtSJmfg3pkNhv2J32bzHk8VxQAD9MxkUdxyokxv8ITQgrRP2R/TNMtA9a0Yc2THZXkpOgrV6RmSR+mwdUKnpSY3fFSIkpziZ3cHYSu17u+OV7f2kUosjRTJTkdOwpkjDIlFxn1pZhcX4uUDPqawMYowBwVSN/trYrchgKpPRXNZiWhEjPNqzs1JUa9BzGiuVmiTcQhrureqAAAeJh+i4jRxWbba/x42tidxKA0WO+SCwIs2Lgs9Ykpy3bFJH6WrXxV+I6Gj9lxXzo4p+KxjcpAh+GWy7KW6VoYrmlleTFP0gkB8MIOO7kSCvibHmHbE0gvW7wui65cmQdxJ9TSbX8Ve+XMRiKMCu+vg8GqMIKAKDEIj5j3dQysR9RB+EDk6sGYsvTVtpINKBySf0UYYMTG/FTkoGM9lD2Z/5ptSgK4YnpVOjmRifJDsIij8Z0gb0dKhCujWrqxWZ2FMXwh2/K6rmMhTSMKkdFRmVTI1hbijvdMEy0Ip0rpX1YIaO9MXR4UPTCovapRR6WLZRPNsQzSnMMjqblhhv68kmmLFVFLR+KDalgaZMNkgAUhBltDLNcfR04k0qrqYhkGaSUAWLyKeGk8e5oZIAAM/GJy/eZjq6EWzLyZCo1wy1SknnW0TqslsjSWNxsXcnNnURQ/ny4Bwxu9VMsvSXnxO2QkYTCSG/wAYFEyNAWW0x78LMzEqNj0MS2BSR+O0x8DfMLPj54Q0j0gDCl2K/Rsk3xIU/iQiH6r3xCWbUY4hMGqUIKALHIWD+qzwuekJHsBNHbxMi00jfwb4m3uXPTcrGrF50TCYg0vRi6NDFg4reSvqywZw4ACzysfDY4ve8/9xPfcZ0fqwRC1el98S93dczEdUx1R30ez1TsuMNwxkh6PhwLpoxXo2exig09UEZsr1NYyBgzJ/CVCqsbJEuNUzfoR2QDbeS3aI99rxkaRkcDWNZJ9rmmZ6XcuctS8+dm42+lKzMMpZZA2tcHjnrGcqguPnpQAJuHAIw6CEDAvMfF4yLm6Jh9xuR1M0Ii9IJmsYsZAXoITViMw0xlfg1gxrxwCrChAgwyocFEvDPOLTBLshgSAWjxcgzRsGCnUry/wQHS30w3M3Wgt2tty+eBjeO5IP+bhxaJ1OjZZAY2Qx65q2BbCXGvFzMKTO44XuJ31KffXv5v95U7kED8U6sd4TvqlD69OLzv/iVrDnz8FvCuzQyjQWM++EC1Cs5/5KLvvz1i776TX9i0nDZNF4RUAQGIeDNyZ8yKOrEj0lJyd099kkpJ876JlJHtRbTQ8Hrip6Z92BKt+fGxR94/4pbt9Vu6ejFBry0LWGxmgGp+dmL3r/y41fNv2nF9DUtXY31nbUebnfH7mmI4MY3vXvRzTcXzF+4+Zc/721pRh7U8tFL5964tuSiRfkXLCp6blsttlgwwtGHejDtKeK97Yp571s3a3d1R1NnryXcHfrijUtnFSZurWoldZAm0cmC/IR40HXS0hHiQD8sXDkjL+WLNy2+YEnBZUumIvv+o13Ig+qpA/cHpL5QhrrTzmMzpQvG1TczN/Ff37noUEPXg8/XSJ/LjfyQ1bARTi+lfUW/t2gHPsNWUaIBdEIcCMFnBEt1rGmoAOigP0WRO6gH/k/Ok28CPiOVjmhDQxTBzPxQiEjljCFNihrQh0fNARvyKyuGXKQgj+x0wV2ToD+xZtyoBuApilILKMN3ZNVJGMHrfHFoKV42tAljd0Y0TN4g/dt8p9SVXzDIDSH88GKjSL+4F7cE5mADPjaKsoGWa9+RtmvOnr58ds6z283GGqwL8X1tbUn52aWXXtVeXdXe1GRgPZn2r/zoJ9qPHHnlRz/o6+iQl3MyhTSPIjDZEbCsgckDg9NDo1cynY70euFXq198serJxq7DZldYJBnrIT+p6GNrP9cZaP/rzof31W1v6W7mgk72ccMFT+GSZYWlZ21+4N6mqn0mE+hi24Gm13Yd6+oLTc1MxqIaxCNSFJDBV3fw6W11mw/WH2rsILdZwTM9Ny49ORFdJ4KxiYVm+EhuRadpNCHJMrR3976459hruxuwq21BJk82tZaXsN+F5cmxUqguVi/4iBK4T2HEhzWqn7puQVt3/zcexhHosqegSAbHGZMO1cEKNjYlTU94eul9JWNABm7EjGXnbiwqVn1cQE4uPRLJoBJ6j6Wx1ELkCBdDvQFGZElq2vUzSlCRSCby0BhXVMoYaYWhLgoRoxCZuBuUqGf0RNIoBzCf+cZBPc4btL4IqCd2uhC88T0CxTL9vvfNmZ2fkERA+PrAoGyaWaLFnPhdyMolMa6NCY7PEB/aLl4HqzWHm3u+9bvt03JSrl01lZ8RwI7GOkPFAw+1Vh9afPOHEnzxNnom5URXcPbhza93tzZTn+hP8URFNE0RUASi/81PEixMg9FpsfuO9hSeA8177t/20x5sqoceXlKNn7AsfyGsnp+//IOXDj39h+0PHO2sOTFQXq+3/Nqb2o4crt9ewa5RArrOl/c2/e6VGhAqz9UO0WtqMYGVw1dxqPl7f9rLvY1EAUTTXuPeP7ixOkfG2AHFjw8tHcFHXjn8u5er0XeD/NgbSgfNnPRdUyMgAPo07IVHUCxqvHTllLRE791/3YcChgmEt1jOBztKeAvGXXT6jyOWWU42lJWVfeGLX8nI4Glx8Hl6qYoDkhES/UGaxkKNpTlZ188qpj70LbPZdiaWRbZYWGR8VLwKQwJkKhmrKxQzqpJlsViWQJrvJ9fyvNwrZxR3BLHnM4O0SZpjvio8IY6fWpuIRNXFhlPg0UEtqzzWvqGy8YrlU9IS4pFkfi2oGnPCtz1wn9frx9bKEAEAY4GKCpU75zWE+vsSMzIthAe/nUGF9FERUAQsBCbfxoHScJpUNI/4MCe79AMrb8MNuqFfb/7J9tpNWIqJJSRJ3qSijOLCjGkgs+KsmcjQ0tXQ0FPn2IUsfFzInD7TF+ff89hf2I2K/Ngs7DTRRcKAATFIH4oO7qwZmR+/bB6ywQp48NkDz++qNx0Z9OEUIst4db33vBlryvPve67yxV1NKDorL/X9byuZmp3S2dP36Kajj71eg0FL/g89pnTH5kOBXSo7RM+HL5lTVpRxx882kpDcrrKClE9eu+C/Htmxt7Yd9uba+fnH2nor63iyKYN4F6Hbt1atfu7IkXVFhTANm3t779q+fVdbG8aZF2flfGLRwmAo/OmXXv7ogvlgu0DY/f5nnqHmdMRiPFhMMDY0yv/V1dWguo99/I67vvetzu4utFcqc+GY2FvK589JSU/y+TY1Nv7x4AHUAt4pSk7+8orliWADj/t/z18H2P5QVfVodY2Y1p6chOSPlM4ty8rqDARfOlb3q7178XmyIj/7qhnFaGBpetZfDx2cmZE2JzXrV3v3/K2m2tQ1mlcMUtIZix8XEJ+blnHR9KLZqSmZ8Ymv1h57sKqyPYgDCTxLs7JvmFUyJSkFXzD/umwp9Ll/3/4dHAggeMXJKZdPL1qQlVPX1/unqgOb4Zt1uS6bWpyfHF+QlFickoZmrp1SVJSY8L2KHZXtrfKuPQ/+4+DKOStWzs58cvsxWvYwXPkN5u1pb6mv2pu/cNGO3z9IO3f4xpufHNL7u7sSMzNNRgiPfX3Dl9YURWCyIzBJqRRdrWEavP9jHbUPbv6xzxN/y8pbE33wvqJL4y6vOSn5/7z6014vVm26cIMif6x4sPHgk/zJSHc55G8nZeo0lO08cpRVDAjkM5qY7J9omyARORFqGrrue7bK73V/8II5iZg4GRtsu/mG1dMvXjL171trwKNIT0v0f+bt5T194Qefr1pSkvmuc0saWrtf399iFZVBUfToeDQ8ips91R3nzSuaOyUN3InHtYvyfV5XZS39yXC7ZqYk7KyxeJTqsddl8SlJCR8sm/vbyqrHamo+WDrvS8uWvv/pZ+GR3N/R+dC+yo/ML/3y2cuSPf49re048xXdsXgmSSTSxYsDFlLs0NXV9cP/uevW2+/4l1vvuPPO/+wPWEfAtvYFa9q7nq4mDbxjdsntCxd+/IUX8MHR2NN3d8X2dYVFqwry7qnYAUgPdXSKME+c2/tvy5ak+OPu21s5IyXlyhnT+kLBh6uqknxx8zIyfl91sLqt84ri6X85dHB/W/vVM4qHo1KjZ0Zi5rUL3sOGn0T4w4774ed3MuINGiFAja5XQBd2YSA01evp7u//66GaqSnJMEC7I8H79laBZZv6+p46cvQj88sqGptermtA8QNtbUZaaUbGl5cvx+nufz9Sc3VxyWeXLPnQM892hYIXTS8E9f541+4Fmbm3Llz4k927S+fMnpGWtL/DKtjUyRPmp+UlU5WBP86u+rq82fhQc7jSUXzADfkX3BufgNlGOLXOPELmgEz6oAgoAsMgMFmpNKaPaO9r21G3xZpcE+ORq2478Km/fOjCOZddNf+duGEf5ZQa3vGVXJCPyZiB3k52RsgftUw58ZImC+mNPkkOekGo293SHYAlmuBxf2D9bMN/9suiYYfcly8tunbltKcrjt7/7CGYFui6L1yUD1vty7/ddLS17+9bjvzwY6vfdtZUUCnS0JnCKqQDFSWps9WHvrSv8cMXBc9fkG+odOnMnO2H2mgXunnydqLf09BmzSYL0RRmKXStuD5Rc+Q3Bw7gxuP2frRs7rz09J2tLTheZmdzM74M8uKTP/zsc6sL81LjmBm7/KalZE4vLhZFLMSgRmZmZkuLYXrPSy88t/b8C//l47fe9d93BsMYl+XRN/ft24viCP2h8GeXLSpMSDnaC34IwiybmZa+LJKzqZnfEESVs4698zJT8pMS/3Pzto2Nza5IID858bLiaQ9VVSFPIBz59f796wunQIdf7dm/oiDnyunTKXqogDwGcyhJ1AS0oTJaccjP6bhCPCZKysktBjQxYYrLcnw4BmBzc+uW5ma+a7f78unFJDP52Rzs7OgIIU/4b4eOvNZ0lFOK8JrC7niv5/NLFm9va/r6hs0Yk27o7r1t0YKipJSa7o6C5KQ7t1ZsbWr45/LS72/d8Vr90Q+XleEg21g9cebu1KxkIB4Tid+Pt7uxETHJuXldDfXmpcRkiN5CzzWf+lxyVn440nvguefwqEERUAROHoFJSqWxALEjQwcEWjCBXSv7SulV0WXSHYrAPDEZrPvj/oR7etww9zjKCe6xZUo2kWMvHESaLQ/zRKCBOX+b3MaAXpL77qLXLi1KWV6StelA4y+eqaIEkTKvKB36XLVyOp+4zMY9LScVxditk32hNpaOsIOWXXS51CUUCG8/0rl0ZhbEzshLTPT7ntpWyyIRVx8cksFIHBhVgifsw1AuaB4dOiI6gn0m/mB7O4g8Ky7OqIdIGGAPVVaCCHGO6XO1R8gWLs/MmTPf/q73QD0DrLmaRxSBct4Ij5rJKsgvn3/W1u2bkATE1xdNOXdKTm58CgxNxMSDmI3JCqYB3RsNzFeIEPyMVA647mvtCEf6saSkoqllfnZmshdIIBoo4pg5EgkerfdnSzj+L3LDyvzZKz/g2CReWgxNHp+ZMfhJEGJnkhHj+MLM7CG2Dt5u7/yMtNKM7LKs1Mz4OGC5t4XOWDQNmRdnZeG6s6XBa07SA1Ye18r8XLDpb/dU8ffg9uNHhAUuAL80PQczkLc3Ns9LS0OjKpoaZqXlQNWdra2s2A5et7fTPoPW/LQ4vwm7McfF46CAvh6iCQXs7EP8PbplY86cMoxQZBYVdNfzt6FBEVAEThKByUil5mPeGGumHwdYMiWE9gF5lDSHyTbcbJbdmmzVhhXr1sxSIVrpsocAuf3YMcwoSsrK6m1uQR7TdbKflbzsydDhsi8GW6Gb58ApBm5DZF10sngdJEAzjZO85PFW13dOz3Mvmp6Zmx7f0NJr6o3jjB1Xdmo8rtD2QENncxv6StaDYUrwKKxDCnMH3VgyKsYQqP2ZbTVll5eX5CZdsCC/PxjZcqgVS10xsckX8fdGggUZyUYCEODcFhnURXVeWK0cr/UGsLJRTCjUwnaAhSOR/R3tSPXhNFREyQfHlm2bN2/Zgm5cIqwLISXB8zNl5apzrrn6+oqNm7Zuf128ke6bZs25YVbxY9W1jx7al+j2fPyscigAgSgD5zN04EVoIBAK4WRTCE3EUa1Y8hHu97jjMMc4iEk9EQ8Oa6OLlaqh4bTfWSODucrtUJf8pMJb136BFaHU8C4HU/QHz37jaM8xvLUgjuiDAS9v2fpsMt9hLu/Nc2ZfOWPW36qrnjp8pCwzsyQ1ZUdri3zZsEmLMBTa3d2J02BRFl4EyI1EVuTm94RCuzpb5SMmUJ6egxY19fVeNG3qsa6u7nDgrPzcjt5wZzB0Vm4qDPa2vn4gjyF/j8eH7ya/z324oRuS+NsVxkTzoU56TkE/jpztbHd+hEMBwLj9Tz2x/6nHz//i13IXLDqyaQtAHy6nxisCisAgBCYjlUa7VRkmNF2+bDjDJQdWpw8/IdbwwfLgPB6ZNglykR6KGSzbcRCYfGw7XA06y5pVdrj5ReQCYaJDlL4S3SaP6YahSQ5F1R7aQCiCHhmPEE7BNKIQSV8hWCyMk0QDoS/du/Wb71/ylXcs+uy9m9t7uFJlX13HrIK07/5uZwB9qYiTjpLSaIq5gmHMQYIXMeIDUyIWOoNYNle2RIKhCxbmL5mdtamqDpVi3YvP5Qu4+o809k/LxcIMUVWMPzNgDI2gHtgFmpVmpeMk8MOdlh84iIoNDYCruWiSy3PY/3KqKpASsKCQBDSac2vdIViiV1913aEDlQ/97kGvy48DWVHFuYV5hzs7f7prB3LMSEuDEUaGoPkHc5pyfD7u9Q8by+/lLxZ3+1s5aDonPXNLSz3mGJdlpgbCofZgAE1APEGgSiIJz+TloQMhd7m6+ruf2POnoXMMjIWgtmAH6sBnluFRpLPtcsULRxNmp6VeWTLtJzsrnqg5hh/AOQVFDd1BuMSBALwPcJ8vyMp4ta5evle4MJajCu5QSpy3D9uGAFaPJzMubm1R/mM11f3hyOKc7IrmdjQZU71ebzyGehfl5MPZixv8Wsi74cicaVkAAV9UVJb8zJ8xAkolFk8LypAqqxvwTph3UOCXDY4h6sXKZvw4EQimBkVAEXhDBCYdlaJzQRcDXNCHGvsjzhef4k/1s1NypySkZSZk9/Z3d4e68UxqZX7pUNC90/JBMel9h4G281htR0Pd3EsvPrzhRQgkR5ogbNTY2oP+dN283D21LXG+xMMtpKVkX1xGMjY74mZFmMM6JSO+vTvc2Q/KZLcLKmno6vna77Z99aazvv7uxZ/5+ea+cPCl7XUXLyz83E3lP/n7XhAGRlL//HpNTRONEvhqwYK9wf6ykpycjXW5aXF7jsALSp3xcbCtumVtWR5W7DxV0UDDEXQAvo14//TKwTuuXXB+Wc4zOxtkcxxa5MLu7kunTttU3xTvdd1QUtLd11vT0w0c4jzujLh4UF6qPy7Z68PUGABFTAEsWoKDxi1bCzF0tAqLRIqLZ7zjXe9tbW762U9/DEspyKzs3xt7e2elpuYkJGHe782lcyEETtED3CGAMg92AKXweYWFO1paMMMIU3wB7L62tt5g6L3zZvbtTuyoQgAAPhRJREFUiEzNSFqem/t0tfgkZfMj0rmHh7YSEKiEP8MEskvE0xVqf+7AE04WyGdzhgvmu8fFg+Ptt8uspghwy05IwpLQ+t4+mM7ri4pX5WW9UldPkTCePV7MSIr3+jPi4lLj42ekJuKbAMYovgA6+oIZmfHnFOS3BYIfnDe3Mxj544FDGBHHNOYH9u5P8PqnpSb/YX+V3+WZlZrw+KGDgBTvGgXxC3nP+hmd/b2b9nEyFNTgd5V81mQWz8jMzdv+p99TP3oOoPqwXxUs6w7HJyZ1NLWYjyqIAhQsq0ERUAROiEBsV3DCjBMl0eka0IdKzx9eXLjia5fe9W9vuxNbCV5f/u4vX/Lf6+dcbppLAmB3jB6FEfTJipF0gt4ISdt/+5A/MWXWhZewJ6JlKWXl+urexqOtXR+5dO53/mnlRy+fLXGutfNzvn3zsm+8Zym6uSuXFX/r5hU3rplhklDeI9MpD9W13/nnnRnJ8f/67gVIOtjUfc/f903JTPz2zSv+4+ali2ampSVYR5li4BClfv1CTWFq4p0fXPn5GxbNKkoz0tDBPrO9Hjza2x/acwRrWuTti0tzy6H2g02d71o7MyMBy/ntWcSSoTcY/MbZy760Ykmcx/OdzdtDIe6xsDQ366srl6Nn/vTihV9ZsRTUZVfBrhw8anDGFfogiZES6hvq/ucHd8FqJr/aZe7djTlHnv85b/U969Y29fT+9VD1NTNLJJHgbWtsAJf/S3nZD887946zFuVJS2GAfnPzloy4hK+tWvLR0nmbGpp/tm83MgMwXIEADkCVzx4qFlUODwMDK5BPppjosLgoYiIG3YrnEz8M1ISfkPyK5EYIGC3e2dKMSUBfWLL4FxecvzA7Y0dL67yMTKANHkURwPBUbfWygqwfr1vzhSXLp6Wm8KvF5frlnj0tfX23n7XwX5ct7gkHP/3Ci22B/tK0dCRBwuy0ZBTEPKaZ6anwaVc0N/FFSGPPnZs7LTP5/merwNVGU3wF8sbnX/jO9/Z2dhx++QU8QWGzg6DJM+QV3x/Qv7+9jX4BfgMpjw6Jk0YqAoMRcJcuXDY47oTPOdl5jU31J8xyGhJHtRZ0SYP6CMSQNeVDnh/uIEx2IpaXVdiUjeK4odm0VpJO0M45F1w666KLtz/yu8OvvHh8tqzkOH+ct765Bz3+8QFVQ59ovOiDR/RtZImBITslPhhyt8mkEmhON65dFiOc+VnJLe2BrgCPb0M8Ov2EON8PPnL2M9trf/XcAUcSG+yKZCbFf/PmxZgX+vlfbO3B1gGC0i/Xn491nH+oOpgc50NHP1g3cskbDy46FeEGGMJYjG2IIzMnIbG9rx82N2JgjcFWM+/CFE/weNLi/LBfZRMJW2TEk+7zdodCAQAmk4bshAF/neHnAbEDHxw1UKn9lgfmkCcrm7wUA5GTyZZgvai8+MTmQD8+GpAt3R8H7gf+5o0jJ5qT6PWhvcDC+uHJjwq2fk8whJlclhT77Tu18C3jbeJ3KGPqWJR8x1XzX9pV979PVHJnKyzolR8Vfs+rb/tUUlb2S3f9v67GI5yGZsaPh/rJQbjTlou+8d3elqa9TzzaUFEBt3y0Xr1TBBSB4RGI7dOGzzWxUtAToUHmalrGvom+ROk4jM2BZ+mTHB5FTnPPlCE5MAalvU/9bd9jf5m1Zp0lny63aGju6q9rGZpHkQnSo1lxZ7QaikeRiAWFFo9KztiygYj7cFM3eBQpJn71nJxvfWB5yBX83Us18OCxB5dgrKLWrp7P/nIrJiyVF9MAIj7otSUDenbwqCPHlDLXN5ykE5uZEgbyKGPs9jb29qAi817Iowh223HbGw7DZTqARyVDWwgtRLRFPSx1XDDe5uOiB0Q4akBU7G9jQCZHW1FsUDZbgvXfVH1fD3gUxZENPIob51eDnGhgc38fJkexlNVMciQsUYCAzJaUGAQsTThSwAymUVctm/LsjmP3PFkJ4Yh3qkgpmBqfnvHi97/b3SAzqwWfE7wspy3b7vtluLdn0Y3v9vgTrRr1jyKgCLwRApPRKkWvYXo96T5oer4RSiNPP1EHP3Kpp1wSllG8O/LTW8/Dlkb/9YeK+g5suxM1RBxxYujgKfqB9fP16/5YdQjbDzldrZNZb8YVAsbkxQ8bdr/NzXQ7n+qvmxLEJRP7MxhXLVVlFIFxiMCkplK+j+MdaKfvLTmcffpEjkAS2RyaYDpvHAZeYYrGdK+m34z1f9o9KStilwq7CutrTrU/HoGaWmSkCJifGV4z3hN89eZdjZNvuJG2ScspAmcYAlH74wxT/E2oa7MF5zNy/aUMPr0JecMV5bKQ4dLGMJ6vGE32QR34QTnMZs0JQjzJ0pinGHgTRyti0AubJMw45V542K1hPLRDtNLL8QiYEU3yKGfJ8XXjfcnSF8v7wu/Fkw7m7eNqfg8nXU4zKgKTGoFT+G9sYuBkk4dZdBjkOVZyCPPpah16MdMZGVsQYhFjKj1dVYxMDoyVCFqKlYuuYDBmOgl7TPClPecWwvGb4MRjnlYdx24apWJcviOrXUuNHgJkUPHKYm2MqYWGKb6XJBI/PyFF+1c5vB7MiXnVMq5vfgPOaPrwhTRFEVAEiMCko1J0K9KzsPdB83Pzsk+v9xK9mMEU9AmfKiA2p42+tT83NFboHAvw0WH6sCuQo4/9bTHA8MQEFsSbK9fMHD/5xSmvN285Avb0MfCg86bk503N8IPkAmL8Kt/INmVO+a6yGoTpVyyoQRFQBN4YgWiX+sZ5J0oOQx6mNRgKxGNszOlqJew5ONkQALHTr50u4acmRzzYsERJjgg8AmxwF+kgYFTl1BU70MTRMI4RwLxc5/UNUjPWFOX5tScM/M+ApiwDbk6YVxMVAUVgAAKTkUoNAKPaWUhnxEHJAWC/VQ/S1cqyfb5uw6dYDGPUgaqOXog0sFhWKbvUaKqTTW/GDwIxry/KlM5vm1amFbiVsbOHgx054C9EYaY3olhcLN0Y4QNy6oMioAgMQmDyUqnpJizmiPY4g/AZ4aOINT5kRwJ3ZJeNFiwyG7KfcphLUq3OEfcQiAcn1RGKG5MJSfgX7U3hWI6xLUxduCKD+PFApMxrJIs0PsbuKofiMghnfQ0YCZJTLuIthFaWSsZ5iM0NTF/sdODRAno3KgjIL81Ijv637LysQan0AJ8wOCLMCtSY4icspomKwKRHwPlvZ9IjMeoAcE0J2IqrUYSenH4Ka1GceydJeNca30IqOke8KpMao6lFh0hFEv5xH2HSmExOllJOZsN5yGAyIx5DoE694od28vKG1dlfGJKPx6FDiBUp250bIwbVcQQWwfY0QhPRLPrrklKM06AIKAKKwMRDINrZTby2jasWgUYMk0SwcR4D13eaEMSEWTlEjP43GdcE8WCfN6a6w0sKzl4xdbXJ6RSBKCEnvj4cOkaqs5e1IIZ73siBMFYppMlaUsqH486efoJcJkAUs9jEacXij5wuhyuTIBD7p7OwKYZ7oVtcIj4zwco0kVsJRuRU85hJK6Ke/tii0OqdIqAITCQEtHcbo7eJI2IM1jhYm8zE489QNelVWNODaUERNw4nw2EfFmlx6mzEs27u25YXX0ASJYvRQcc99cX7invk4XoVRpCZkQNi/W4e+MNzQGhHSgYujUAyNyuXk1lpkHK5izAor1gkY2aa2EQrm+bgdDmzJx9FgaERnClLPCUHhVz4EsDG8WgcUlivmQWD/AjUOcYvbVWBKA2KgCKgCEwgBNj3aRgDBJL9iV+8+Ltgl/99+c6zipadW7weJ7t99enP1XcexuLWJYVLryi9riC1qKa95rfb7jvYgpNSXKtnrL1i/k3JcamwM792+Y/Asj956c4DbZUw9pZMXXVd+bv//YlP8kRUl/vT6/99c81rT+1/FMeo3bHmCzlpU5/d+9eWvtYr5l2Xk1r48NZfvHjgyayknE+v/cr9W358dflNhSlFe5p3/XbTL+u6jxp6wzEthllhfQoaZncJz3+sWvls7bH1RYUlqWktvT3f37ZzT1tbJBxcnJ37iSXzsYXDp1586aPlC3BQTCAc+eAzzxgkIXPJouVl5fP//Jc/tLe3y7JUiMUuEPrpNga/Na1CEVAExhoB7drGCPHeUN99G36YGJf07qX/dH7xxbvqtuNIkP5gD/hlXnbpR1Z9qqGn4eebf4gFn7ee9/nUOB6LtrOu4oHX72ntaarvPPrAxh/ev/GHRzuxNTkCzkhJyU7OpdknITepIDWep3FhKPSRXb/v6mlfXbL+5mUfqWk9SAILBzGo6XO7UpOyP7L6jhcOPvWDl749O6fsnNkXmeK0H8XHax7lyh8GIqckJd1SNhdnnN29Y3uc1/Ol5YsxLIqjuA50tv969/7MeP+/rVgyJz11T2s7rVIYoOKDRsFrbrihvLz8orddBsOUW0ox6I9NYNCLIqAITDgE1Codo1eK4zN3NWyLhEJFaSXffPpzPYGuxVNX9AZwWHf4otJruvvbfvLq96FKZd3O71xxT1n+Wa/V/KOlp7G1t+nC3qZgMAhapaIxWyVE3bOym1JY6AocdrB5T1Nv/eLCZb+peODZykdLcua29bZ64e7Ffkah4M9f/8GW2tcgaW/9jnm5ZZQJqaBgLn/BDoFuTtyF7ci1p1wZg8vfag4/XFWJPH6P78Nlc+dmpO9qaWkLhHa0NKJsQXLKh59+4Zwp2alx08CaEfh7Rcs9u3bOnTu3omIrRYV4+ptUpRdFQBFQBCYgAkqlY/pS4fncXr/5SPsh1PrJR94P5sPY5YyMmT2hvusXvAe+WmxXE3AFp2XMApXGjiyC1cJytJajLicBmcFO8B35j0OvlrfW5e0O9L60/wnE/Pvjt7MIE5na2dsG8saiiO7+rsyEbMRAB7AdB1LFDDU8iszGhMQIaaccdxqKhPa3oawrJz5ORm1JtXh8cE9lfyTw7JFjzx+pk8U6jAQlP/DgvbhB4Hiq8qjBQq+KgCIwQRFQKh3TFwveqmmuQpVCovDm0h/q8/g9kUBGYhZIDbNxtx7ZUNNaOUit4MBjPlHcSBC3qjBV7DCkO1zfdRQMN0jIgCm7YiVCiMljcSoeYgxfPpFauQwGDBkImTKcHmxKgfsPdXUaUqXwMM1ZJBmxRkOLR8XSNaX0qggoAorABENAqXTsXqgMI4p5SAMRtGQtMD3UftDv8f9sw38bVZACWqJ9KUep4saHrXNN2kBCInFx1UwQg5fkMIxKYsAyZhl+lCBR3BiglGMJAxE6weFUxBgKtJJg7mJ2r5SZm83h2JquLkkiZYLD6RDGHV27qBpjopbw+WWL5s8vf/zxRzs6acsaih2gD2M1KAKKgCIwERCwOr6J0JTx3QZM1kmKS8VE2QR/Qoo/BY+Ovi9XPTMzo+SiuddgtlFxxsyblt4COxXOW7PjTG3rwZKseVPTpuUlTpmZM8eUOthyADbg0qJz0hJS37HkI4m+RMaDWN2uZH+Szx0f5/VjhrBXVsWYIh6skvFGK0Wk43YFHTKPrRJZXB6F+12XTp8+JzW9PDPj7cUzugIhQ6U+T3yqLx650v2+FJ8fVYs1Gv0ye8e73r146dJLLrmMouwQS9h2nP5VBBQBReCMRyDa953xTRnfDUiMS/z2FT+CjmtnXXrB7Mtv/cP7yCuyPdCGwy9kp+ZfVnbdNaU34rCzfU0VCd74YDjAdLfryT1/Ls9f+n8v+A4yN3XWf+XxO8CB1W0Hdtbv/MCKj0PgjroKTPFl68Vm/cwFX89N5OTeb195z/+8+O2d9VuZgoCD1KLnp3IVKeJ4DWM1q5lkRDaMBiu3p6ev7z9WLQfztgf6v72pAorB5bs8J+NTi8/C8O2nFy853Nn+mZdfodmLk8XFiQwObmxsnJI/pbW1mQKpGKYjDSDyaEV6pwgoAorAGY6Au3ThslNqQk52XmNT/SkVGUHmsakFio1ZReQt2H6yMRHuZVDRuhIf+HJ9ruz43I7+dnCV+Eu5gMSwHUzY1IQUeHnb+jpc3CmBQ6zYrC/ZlxQORXrD3chAu9IwIk/4lv2GHEcxWY6UiQysSwJ1kHMuzWgrBHL158AMKPSL9ev+crj2T5UHk+N8TX19Qr+wbS0mhiSUgT5GT1jSXrcHpjHUufXW/5Ofn/8fX/9yT0+PVaX+UQQUAUVggiKgVulYvVjsUySDk2Qd7kREpnR2DiLFhl3NXQ2GJl1c2UIbDmSGC5ixvbcTPEfCM85X5A67uwMybAniEgokO6IAT/Hm+hbmBxlL+5BE3sa8IfuwGuE8k4htmES0LAw1cGB8VLY+h1Xs94Y9/ZFQf18IZ8bRjEXF5F2xaCMRbBloHMVmOjFb5I7ERTz5eQWVe/b09HRBDiq3xYoA86BXRUARUAQmCgLqcxujN8mhSgk0ELGGE1xkEwyi8UiSgqsVgSOaznuhfcmcdJDCdEUgB7twFirymz1ybVMSRWF1Ug4YVMZNDe+aGFqLMWOlURbnnr1Ra5XCaXRyh0IRGOrHma4SjDTeQk/RH9pAUVPYNmlpsMYlJlRV7nv08b+gIchjirOc6OY86o0ioAgoAhMDAXXwjoW/2vqtiEMXdAJ2MdfY35CJBC2BnExybOrx9ya/DENGidAUN5mPr8KKp0VJVoslOdsMpXPYoXHkF4KUo9lkh3rhzWi6Ux2ZVT4VGGP81o7Ggx6deL1RBBQBRWCiIBDtFidKi06tHRad0LiyAjjGvj3df203LOTG0pipxtRr9ADLvWHdlp62SWryR5sxVBUmj+G8QQoYMxQ8GCsB+Y3xikjYy1J8QLrz4BisjBmo0uBHo4ReFQFFQBGYQAg4neEEatMbNQUmlAQacyAk2GHOdjzCT4y33ZZyqxdFQBFQBBQBRWB4BCYflXKSDvCwhgObmhswHxUmGjyccsWFyfwzeubp8O9DUxQBRUARUATOOAQmH5XCCuVsHU6HAVniat4ZPJycD2Rbo3h0ks64l6oKKwKKgCKgCIwlApOPSmmQhrHPnuFRQ6i+hEQSJw4ii2AbWdikkxGWsfzZaV2KgCKgCEwkBCbjulLwJGfTiDlKL244cuG/fTUUCB7ZvGnXH39DimW6vbhjIr1tbYsioAgoAorAKCAw2c0vLtP0uJ/5xtfrdu0oPnu1LwVnbnPoVOedjsKPTUUqAoqAIjAxEZh0VIoBUudNYqqucfP2d7XVvvYq4n0+H4ZQY/M4mfVGEVAEFAFFQBEYEoFJR6WxSzal8RYCCVnZAKi/vVW2dxe61RHTIX8yGqkIKAKKgCIwEIFJR6UDmx99SszMjISC3EjWOXts0FYD0bx6pwgoAoqAIqAIRBFQKrWwCPX1Y4va5PxCDJQixKyLiYKld4qAIqAIKAKKwPEIKJVamNRs2tDb2bX2k5+76Kvf8rh44AmOCrP3RToeN41RBBQBRUARUAQsBCbjYpghX35abl58clJPa31j5X4cU4bZR86+skPm10hFQBFQBBQBRcAgoFRq/RJyysuxmfvz//Vf4WAvo2TiEaxSJVQLIP2jCCgCioAiMAwC6uC1gAl2dHGMNCA8ijhs1auG6TA/Go1WBBQBRUARiEVAqdRCo7ut0eP2uXzx5hl7IHk8OlYa+1PRe0VAEVAEFIGhEZi8VCrbA0ZBCbR3udzBxEzsdsQAvy4Wxqh316ChV0VAEVAEFIETIDB5x0pBk+Y7An7cvLKFsy68CGOl/Z2doNigC8fE6CFrJ/jZaJIioAgoAopAFIFJaJXKyd4cCg0JDDi41L3wHe/y+n3bfvNAsKcPFAse5Z6C1vFrUbD0ThFQBBQBRUAROB6BSWiV8usB56x5In6eECOm6TNf/mKE55ji7DUhWolV7+7xPxeNUQQUAUVAETgegUlolRIENttmTU7W5dIXnKoWZBrtUYtQzaNeFQFFQBFQBBSBEyAwSakUiET9t26eqsaDS11cAIOkiMsY63Jq6QnA0yRFQBFQBBQBRcCYZ5MKB6FMtpiWqH32CyK5kT1OKcXBMdHDSvX070n109DGKgKKgCIwQgQmnVVq7E6gRR+u4+PFLViU5OrDclKkgEVHiKgWUwQUAUVAEZhkCEw6KsX8XPOK0XLQatTNa1y+4uxFBvh25UqKHfSTOD7G8PKgbEM8ihEcloFaxyB2sokm1hhtrFZOBnNjfQrY9nRsqlFMMgwY63UUHhAbU3K46px46ozN/cVmN0IcmdGbmAnPOPOV+e0Y5EEwBS0dhtLf0cgURBHTWHPFo5Ph+Bs7dbgmHl9CYxQBRUAROG0ITDoqjbjMGhhyJELExR6f/IrJR4bkBFvTmxu6RQR6cxwUY1A3PTvuTUHKiPhOYqZS2BjBHrGHHSGQg+4/xAo4hdhQwQkmD0NnqhFjT/NRgpEpXmlLVUgzwtnSSMRrN8G0zi4XDhmRNldZVaDViJci1NkdpI4iCAXhD7eL8wn/j9UZZ77in4kxVaOs0clcsQGGFCM9x8jhLWKgjyllUs0V9MxXFPE4FSPeJOH1mbZPwgGLQejpoyKgCLwlCFh97ltS91tVqXTrpBZ2xDBDSRghUqw9gxeKIdJ000ZJeH1JdQMD8qBUMMypv/ZMpYE5Yp4ME3MxKzglHPJ4SSaG0rxuN9zKtPzcQbyPk2DlGLk2OyIKCoNvwEPeiCVcpDFHOBxEE8JooxiX5CrJwxSXzyszlknnZtZVJOS0naSITw1mkJ8KZzuT/OQDQmKoi3PDBwQUQUshRG6gAItABOlQqsBXg0gkPTO/RagcrkYe6I94E2kyEDQ32oaPgWiDkYSz2rGwyfk8Yt0aFAFFQBEYcwQGd4JjrsBbUCH6aOO/Nd30jSUlH1s0X7p78hn7f4tRrN4cKiIGwWM7h3Hv6E3+woxf2zPsxA+6AWOjy/d4fCF3wO31BcXPa+w2cFg4RDpyu7DUlfOHY+UPkhP7SGNa6N/kxxVM886Zsz9+VjnYyNiaqJLR7jjOqxL9cYO6QKtyxchwMOT2QTm0gbsQk6o80Mfg8KWlSy6ePt2oRIgM2ZP58MS1Q6Zq0QrkKAGGo4cZQvj6kA8QQZuV4gMCYk1Adaa9KGPbuOBpND9gYIFkfH/IRwxWAbMu8LqHZBwCkhCCGHyCRKCGmKomRjTQiyKgCCgCY4oA+rfJHmampU9LSBZDDd190BVm/21AcXgCWzqgpwb9sH93Y1vBqEeXDIFS9lDicGi6PSFUAc7wRfwgA1CWzTw0IkESKEjrikYyd9IfTg7jjWFGd2eAldtWHQSCZ2akJk5LSIV5azzJojhs4RBpktZzyAj3uPxiF/LijcA6dIciYQqMQKbLi7FRRLm8s9LTMuL8iEQpMiIIFyzM1UPgMw6gIrN8FeCvPTjqDrpDYRiXnnAA3GlMXqMnZcIaFucwqsNXhRRHomkvIYlw00aasBAOmkTmmcnpN86YDYEgeKxXAvxkXOdzx+WH2ihvYlBOgyKgCCgCY4yA6cLGuNJxUR36axAjVAH9gAXYF/MCCuLCGHTosVo6bkXwKLpscCosOWQw3bdYdCCaIUb+YoSAi0jSYkXBNo2mhFgvnaIIsOccnojmGHhHxnW5rrjysttu/6zfG63UvEuoGvIEMehqMRz90mQqw7tQAOyEVoRg6VEsLmgsbxFJpvKyXQFjdXNPKGYKe0D/4FEYm7AKCZHhMzNkyy8JCdi7mH9Bt8gIQvWKeQ06lUB2pBoozuqgCWgeSuLBbVzKKAiEJA8JmL4DmMvupbkZ188qwQ2wMYCTvp0AKWLNOxF6owgoAorAGCPgzcmfckpVJiUld/d0nVKREWQevVrIWKbDd0W86LcjnnMK8lPi4oqSk/5lUdm1M2aCBPa2tzlGI3pwoz9uyCIcjkTfzYWoJB8QH/8HbkOc4Z+hm5udmHjXeee29PR+bsmS982bsywra2NDYx/tLNc7ZpbcsWjRrIzUo109n1684KNl5dNTU16uqxtaEFlEKg6715y7ZtbseRs3bnByIuGcgrxUf0JRStLtCxdeM2MGTM297e3gHih/+6JFN8+a/f7Sectyc2AUHurolIJs4EVFUz+z+KybS2ddMX36zLS0/e3tncEgEq6dOb2uq/fS4qJbFyw8pyC3oaf/aFenAdCpFEAKpjDVYa56P1g2Z2F21oqcvFsXll9bMhNkvKu1FZkhLcnj/diC8o+Vl15VUpIVF7etsRkAIumK4pI7Fi4AIF2B/gSf/7urVuQmJ21raixKSb3z3NULs7N9btclxdOuKpkBwPa1txF6qT4xPumGm96ZkZZWU1PNKuyXJYl6UQQUAUVgjBCYdFSKHp1c5HS77si5+QVlWRndodAvd1b6Pe6rZkz/y8FD8HiCZQexI9gSMfj/9PSS6xe/b1nRqiVTzl5StGrxlOV9of7GzgYKHoZQM/z+q2YWL83Jv3dv5aHOtnMKCmemp/3j2DG859bevkSvb3VBwerCgvZAACZxS2/glfrhqJQ8ilLNLU1N9c2r16ydOqVwy9bNMm5KWoLk+dKcX+ze7fd4riop/vOhQ9x/wu3KT0jY0tz0ZE1tYXLSNSXFj1Uf7hdn69TEpM8vW/zysfpf7Nm3s6l1QW7m1vrGzmAAJuB1JTPnZqa/Xt/wUGXl4uysJbnZjx85gloGkJb5PAGPsvHhS6ZOWzelsCcU+tmu3bBAryqZ/tdD1f0cxnV9btmSBVmZD+/bX93RcfWMkji3u6KlBdIOd/KxPCvjqdraD5WWlmVlfm/Ltr5wpD8cPNjeEef2TU1J+/7Wra/X1W9vae4JBfgiRId1a89fveqc2XPnPffMM9Y8KiRoUAQUAUVgbBEwO+SNbZ1vcW1wWnKWELQAHxiHYVNP37c2boGhVtfXu66ocHZ6WkVzi8njKIsC8Eg6jywrInDhzvicqBNNdbLF3mDOzZ0VWzY0NCJyemrqytwciICQIz3dh7q6wOI7W9u/8fqmT8xf0BHuh9sVR70VFhRk5+Qgv6Mq7jMzM1uEgUKR4J69O+eVll937Y1/fOS3zCZshuZ85/UtQXekoZfNmZMmzXG5/nSoxii5t63tZxecd25h4eM11XCo5iYmoOzutpbdYj6+3GCxuOHLpw8fvW9fJTI8XlN7y/x5RmfghklYnBKMwG8O+rdxNXpCgW9s3Iyolv7QBVMtPKckJS3ITr9n+56na2tRKCshcf30qQ9U7cc9ePc/t2798vKlH5g3F/n/u2JXW4DDqH2h8OamJgxmL4/048aqiE5pBnwG7Ny1a/WadfXHjgKKWIhMBr0qAoqAIjA2CExCKpVjYQRde+DN1RaA1cT5RKEQuQGcZ9AHN4JsDaNgFg98pJhfhLUrNa0HfvbqXejZuXoS9utJBDJQJAJTz+Staus6Oy831RffFux1Sv9ydyXo6O5dOxiD8UiXe935FyxadJahaEMVvMKuplKkL4p1u5atWPnkk3/v7GrHPUqiOeBR3PWDj2OaU5aVfuX0GQVJcTCCEZ/s4YRhUNLOlrYDHZ0fL5//7tmznz9a+2j14Za+HoyGypixq7W/D5lQXT9mL7nDAIdNxmcFHk0w3xD2lwSIrjnQB92Q2C2mrcFzdmY6EJuXllWUnIJKp6SlpPl98V5PH0Za3cGdzc3P1hy9rLhoa1PzC8fItSZIM3Er9GlX4SQdqa352lf+zXwfiIE90Fy2ZOgfRUARUARGF4FJSKWc2OIEx5AUEkI0uQjTU3lHMonOs+UEGfGiIqk0b8G7ln0EGXAPzgD//XXnb189+I/j154igwmQL6QrlUc8AZkoa3GAnedIV4cwI0iI2TC96KFf3/vQr0nXpi47I/8Kn3ne974Pzp9X9uuHH+zqbI/5AHAymm8CtnJuasZXVizb3tzyx6pDNV1d31q1AitMRLIn4Ap//uVX4RZeUzDlsunF+Pfpl18+1g02NaY3FbAkoq3YUAJSMSiKRI4aGwC40sbMh4KumLdr5Qe/eZGbCsR7fJjVmxjviY8kQmBzd+/L3d2AzuXGshw/Zh5NzUhzh30lqWmYSxXAN4sLjlzMzuVaW0hAEU7aojXMKUlGPqYlhyPMSlV1oNSAoldFQBEYcwQmIZUSY/TgcOeia0bfHNsFh12ca4OeHXnIH+QMdtNc2iEmESLxWNdV99SePzOeQ4D+sDtwoLnqBDxqXqvUZpbThOelZ0FSh7gxuaATzC0sBWPSjcUpFnWByb1YReNhDNhdOEVIBVVjQuu1V11bOq/ssace27ptM1KhJVlFNEcDQXGYa4wW8JPA5Vo/dQp47TubtvaE+rDYBdV5wtxwmJlkTu/O1jYQ7cNV++9Zu+a8/ILfHDgAUVKPtWMDjEuWMuJkNi0dysxEpgSP2pUi0nh6Q1Dfi+WlwDPiOdTejeHSvx08jFlIyAzJSOHCF272FLxixozZqclf37Tx84uXfGh22Y/27HDDbU7JnC6M9bikajQHtjggki8OyPTHe6+4/IbDhw9teP1VaqJBEVAEFIG3AoFJR6VgDnbHYkqC1sBOJsaA73FhmQoWh8CXK7aXrBhBBuEM9OMWyTV31z134Al28yQNa8WITXXDvkZsNfSuOWX/s3Pb/IzMs/OyXm9oCpAq3XEed7w/zuUNZXgTen39vdi+wQQsBcGWBLDMwKMRn6EfUotUu27t+uVnr9m6+fV/PPUUKZ8UY7mmQTxoIJpJHqY1zN0YjsEE9HjmpSfvbnNdX1KMNqYlCI+6XG8rKpqTnvGngwe6g6ELphShSG13FxCi+xqToODTlRCEZegOY50MMjAF1ZEOyYXEgXnMdwmeKBlXcCfmSXMdjjtc2dHU3NvzL2fN/86WLW3d/ecUFLQEel+ta8CA69SklA+Uznu4ct+2hpaHK/e/Y87MF+qObm9tNghXt7V73aF1+QXb2hpmJGdsaWqwXAju8Jpz169YsXzp8uWbNr6KDas0KAKKgCLwliAw6agUBCM2kzcEv6IYgthQQPp9Y+uEPCF4JGHGIQ0sRJPIpAqZ0Srie5KJS2ZHIV+EmR335gneIiglPc79g9VrQEiHOjvu3r4DVAS2uHnuvAunTQmHIv97wbl/rq6+b88+S4hYe1ygyfm3Qe52IF5izkEGnwWD+/fs+s1vH4z1CaMgRkmNgxp/wFJe7jxEI/vJw4fPnZL3heUr0XzU/tM9+947e859e/dBFKYQL52dfeHUQi76dIWfqq59ra4RPAprlUtJDUuCrIkI2Jp4QBNkxR2uJpgbxAS58YIZhWUKKR5wQUo4/IVXXvvS8iXfOftsPPaHwj/fvRdmNGb5fnrposbu7kdgB3tcfzxYdWHRlE8tWfjh514IhkPAZ3Nzw6a6tn9eXOaJlGGPif/zwgv1vRy+RThwcG/Y9TboY/EoX5pwuknWqyKgCCgCY4KAu3ThslOqKCc7r7Gp/pSKjCDz2NTiKGY5DK1nYws5icPeMB93sgPRWSbasFldrikJid8775wvb9hS3dEG67Aj0G+qMVWbe7tiESzWMwSCnAx/07tJK4+cRe7AE26E6k02462FQKcUCE9kgqa5sa3b60nz+cA6ZqFLks/XjcWj1IBTmlN88Slxnvrubuy0gMzGrnVqRy7EmOpYhIqhbn5YcBQZETaHma8KSpWvDisDFbFCoteLeU/NMpvJjrP/SuvE0HdI0Xi5IyiVHOdr6sa2ghAlzXK5ZpbM/qdbPrpl06bf/u5BilAqtYHUv4qAIjCWCEw6qxQWmxAAtsGjXWUCrTwwjW1xDjEv1+6jnVI0yJCf3l12+vY0G1vicX8tXnEHu0L9sv2tVTtoCfNijSay1R9uHb0oxdKKRiG5C1sLIhkVG54Ci5uqkASVcG9XBAOWKSKLmtLGjkRkkQkbgdAbxsCwTB4CJi53Z7CvU3zLaA+EeLETr8XUFIThSoinNLc7xRf3oTKsionqifzgzgf3763r6QXNswKjn4AjTeSz4VcsfekNotGIYOuM2hb1wobl8DM804yGHGxgzywuF4r0wCa1CNuquqysHHdPPvU3i0RtOqdoDYqAIqAIjBUC0d5wrGo8uXqkT0RPaowwh05OrvCJcmEA0fBLbMshP1qF9OaDRdh9tFMqNv/gzEM9k62xIR8dkZCBJ0sSJqM6Mo1ipnRUfow00kzM44lvLU6VTANL8QmiYFaCmfjH4mVEI8nKaxRGFFIRkM0RghlbyIZiEGD+UaCwKeKMFFwZBDcUN0/IM/hG6B+RThIz268ANcbKt3nUyCCGWF/73HPPtra0W18/UR2tivSPIqAIKAJjgMD4dvCiZ4TNRpvKWmgxBoiMXhU+DHgK04xeFWMg2TIfjY8VL8j56BESJseOgRLyKeAwtGH6MalWK1EEFAFFYAgExqbfG6Li4aPEFpWTNdFNY3gPOeEzHD7/mZECBjI86hDAmaH38Vqajf5l33kZiqXbFm5YbkCPq22AHl/u9MbEwugY1rGRp7c6laYIKAKKwAkQGIdUKnvMu+MwcxVdM4Y20VGSXc/wAEelaQWaw+1oxa5y3Lzjv3EOS3FlC41RngbDIVaelYamhYJc+skz0camLYRRglEMtxakY1O91qIIKAKKQAwC45BK0S+7GxqP0FMIh6jLjyko41HLGBBP8pZrRGXvAhjbKEIOsIdgT1LCW5iNXGVGImWFKyf9hjE7iATGucFuN1a/4sUZYhuDTwTWxK0bzAJWAmPY9C2ESKtWBBSBSYvAeCUpWYmIKUI4sxp+wzGydEb3V4A1I2iIx7HbzrxGGeLn9w02PsJGFlwPE3FhCBjAYb0NF92KoejMsx1dQFmr7NNkSBS1j3p9WoEioAgoAkMhMF6pVHrteE9CgpuL/cerlkMhOmwcG4EBRavHl7HGYfOO6wQz1YjbLnLuEd8U/mGUlA1E66wGjkkTUJdh0zGpTStRBBQBRWBoBMbjulJYOjR0Ip51sy65av6NNe2Hfv7K9+u7R31fiKEROq2xEewECEK11lKeVtGjL4wcyb0DTU00r2WXCNCnF/EgVU5AsrYIfsN1tqdHXdijA5jbnlF8eqSrFEVAEVAETg6BcXn0t+ms3ZEDTXs2H9lwcenV8f6k7cc2oUUwiNBb04uI7tux8E6uqeMklzTOsM440ehU1LB4lEUGcBji+WZM9Ng5EQbowMqNDqKIXhQBRUARGCsExq7XO8kWmXEvkxn3tR3VB1r2xvviTYzZNwAdqAdLSxC05zxJWDWbIqAIKAKKwKghMO6olFNaOPYmnkKxgbIT8pq66p1JobLnLZJxyld0i5xRw0cFKwKKgCKgCCgCb4DAuKNSmcYiKxy49yq1T0vMaO1pMTvQ4hEnsWC4Tnn0DV6sJisCioAioAiMFQLjj0rZcjPNlWv/sZsBprfMzJvL8VFZho8zPjliCjbVxQ9j9SvRehQBRUARUAROgMC4nHbEQ0y4nwHW/mMmSXtfy2Vzrrt43jW9/f0HW/Z73GGcKhIz/eUErdMkRUARUAQUAUVg1BEYl4th6NkNg0dhesISXVK0KhwObjny2pH2Krh/eTrmqMOiFSgCioAioAgoAieLwHikUuy7i1lFZv0ivLjzcsv/tueRv+3+vWmTzaPcFuBkW6n5FAFFQBFQBBSBUUNg3LGRDIhyHwMETNbFNRAK9AV6JSL2Mu40j1VO7xUBRUARUAQmDwLjjpCwew3Qh1rgVA9GTF2ulu6WzKScyfNKtKWKgCKgCCgCZxYC445KoZAxSbHFK6xSPHYG2zMSM84sWFVbRUARUAQUgcmDwLijUhijOEcaLwDnlGb6cldNW1uSNbult2PyvBJtqSKgCCgCisCZhcC4m3bE1aKyMwO8uwunnrV+5mWvHnzub9sfOrNgVW0VAUVAEVAEJg8C7tKFy06ptTnZeY1No35Ii5ujpCH4eGGberE2BotMzWGZp6SrZlYEFAFFQBFQBEYfgXHn4DVNjrhlhwY6ezn/SHl09H8JWoMioAgoAorACBEYd1Rq9t1la8QMNatL7alII2ykFlMEFAFFQBFQBEYPgXFHpTZ3DmrySespU5YGFR6NR2cH4BCX7+Aw7+MqiWA/fvqmByYMfDR5eBgOg8kspUyEXMeqRTFV6q0ioAgoAorAKSBw0hR1CjLHNCuoSXZ14JX05g5zYHUMgw8QotKBdRpNwLIRnKxqgjCiO+JjkhNQMML9+hGBGyfzAGlinSPHgIKOBL1RBBQBRUAReKsRsDv6t1qPEddvNyDsxTFs2NXB5fZ4LXIdscyTKYi6TDZsru/cg+14+psEpHpkiayVitFfJLqDeHQsU2TmPw+2HJbvAJTBvhS25KgaYfKwYdxopN4pAoqAIqAIjA8EbCYaH9qMVAtwkwemHagKAZN+x9KAAxEaaqSPN4z/Y7d96oG2YOd9XDEPmWphvwlanxJjtxPWJ/6xoJs+XuSPuLD/cGygbLcX85npLo5N0HtFQBFQBBSBcYLAhKBSD1fHur2gKjpax6xJhi9RtakRVeOA1ZA4e0l7EXBqEKkhxNHRi2fug0jijA0RD0q53EEUgRWLPEg0rCk5yaBolzFwTXxsab1XBBQBRUAReMsRGDPeGbWWgqHEOyq2qJm/Y6zEUavRFmwTW7Q6oIl/oECxJTFqK/rQOyuGKf3PWC0bNhksTpXNEU0GCAY9c02tGT0FxYZhY8PIxoUMbK52/fpXEVAEFAFFYFwggL79DA9iBRqOMSfJFKfNvGTutaPeKtKihIgPBqjchadkJvzi9jU/ve2cePHFZqT4771tzdmzuBf/bVeW/vgT5+DGG+b5cavmZP/y9jXFuSmIKcpKRLbVc3ONEKypNbYpHq9aVYykeC/mNql3V+DRiyKgCCgC4w8Bmw/Gn2Ynr5FjFXojfpQqLVh8UdnoU6mz+xJ3kzAq0BmL0U6f27NuYT40MXYnHLy2TQk+9MKda9mjyGDN3aX5iYIMmOJrdqWQJ3wnyF9UMMgvbKL1qggoAoqAIvDWIzDu9uB1IEnyJn3x4u/i8X9fvnPRlKVrZlyQ4k/96tP/t67jCCLPKlxx6bxrCtOn1bQe/N22Xx1sqoQPNS+14PbzvpTgT4xz+79x2d3wiz62+5Hnq/4OoltWdPbbF7zni4/fZuR/Zu1XNx555en9j+LxitK3n1PytgPNux/b+Yd3LP2n6Zkl22o3/mzDXZkJ2Xes/+pDm356dfnb81KmVDZVPrzxx/U9x4yE2CuszNjQ0RO4bFnRk9vqEC+sac0YEjctVpJiqpHN/l56gN10+eL/xjMcwkhprDRzzxFTe1DWSS0qKrpg/cWvvPLSvso9TqTeKAKKgCKgCIwxAuPQKgWvkGl6Qz2/ev1HiXFJ7176T+fPvGRXXQWYKRjqhze1JGvuLStvb+ppvG/D3fCF3rb2i6kJqYhv6Wm8f8OPKo5uxFjjA6/fc//GH287+hpEoZFpcWnpidnO6GZ2cm5afLrB+vXqF7fVbijPX/yxNZ8JRIJNnfUYrkSA5Iy49FvOvu3FqqfvfvHbM7NnnTf7YlPEZkLzNOAKRnxu59Hc1KQZuZQfy7K8FxIFcRpNjLWKTJKNc6ZA/7BhYyQ6L2hwnSh71TU3zJ0//+rrrh+cFlNebxUBRUARUARGGwGnpx7tik5ePoYSufYDLs3djVsjoVBRWvH3/vG1P+38NTylXX3tYKNLS6/uDnT+5NXvv370tR++8B2/ywcihGu1P9i3o2FrbevhoDu0s37rzmNbWntaLbqSRSa8x7im7JOAZSfG0VrXfbS246Df4z/cfuSu579S1VTZ0sX9+k3BX2z47+cP/n1v4859Ddvn5paa+BOgBpfslgPNvcHwNSsLwZe279cFioVAsy8SZh5hbYwkWaxpczzyuLF9vz34itrIkrISVab22lohEkW2bdoYDoa2bt16An2QU4MioAgoAorAqCIwTh28svYDOwFhtk14R/3Ww21VINfb//ABY9XNyJjbHeq8fuG7YN4BHcw2KsqYEal5HvfCjrRqOSQJVoqEuMqTxMM5tKCfENZ+itnHLR3Ep4or0rDRwh+33gsL9lebfwQ6I6dhO0B3pL2vkxNx3eHO/t7MRJqrQnuoYWj+YmrE98qe+rVlefc+V4WRU/P+vGgA5xpz0QtmHmH1Szhi5htjABVSoSM4HtYq5/dGPcBSGMrDUjfaoiVGIIq8/OpLL73youhj4vSqCCgCioAi8BYgMDQfvAWKxFZpCBKbEoA/wu7q5iqQExTFRkDIBRbyebx+b1x6Qm56cmZ6YtaWwxtqWqvAKAhgUM6AxURZ0FKIyzq57YFsIeTx+EA/SPLJbFhYvUJa4CZSLdiytqvWaIGCqAX0SRsRJAuvbDjiwwwgLhU1/Hci3CKuwCOv1oCqzyvNF+GUClVgB4NNIRlKxnnI06R4/jEysceE2KBDDJVCVwoxV94Io+MDgBAN2tSBGTUoAoqAIqAIjB0C484qFfss5HHLFkGYDEsjTGw4l8crewnBBj3UXu13u36+4S7DKEDLuQHFwVRlAXfA547j5kFiU0qekN/lCYAVudoEE2VBRMhMPiPNgbnBSbAMw9h6EM5XcJQYoLIPERLpkSWZke2GtUmRRkFx9Z3tB5u6L1ySD8UQUOJwfec5s/Py0/zH2vphnC4szkDG2uZukyrl+C7IrDZNUhKXqApti4FOs1VWqAosroK8wrXrLnzt1RcPVh+g6hoUAUVAEVAE3goExl3/C7cqiJB0EvGkxie7vd54nz81jsRDZhET7OWqJ0sy514879rUhLTp6SXvXHxLvCdO2IU8V9tRDRJdXbQ2PTGtPH8pth9C5AGYti7PgimrMNvoXUs+luhLBE+Sd93uBG9ivD8ZbJeWmIZ7sWAjqAsKcPske8tcmLtm3SqknRg1WKVel/fPGw5lJiYgsyjmeX1/C+zgT149f+mMzCtXTl82J+doa1cgRN0keEqnpmBp6ao5OefMyysvwpQlVoIi8HWvnJN9TmkOUlfPy52WnWiVcLmuu/6mRYuX3HDTe4yj24nXG0VAEVAEFIGxRGDcWaW0B4W1kuITv3n53WCUC2Zfjn+3/fHmUDjE8U23Z0PNy9nJeZeVXXfl/Bvhvt3buD3en9jf327oZ+exbRXHNrx/5SfAgv2RwDee+ExTd0N124FdDRUfWvkJgLujruJYZy0MPsyVhbP32oXvWTNjPeL/47K7n6589Pfb74M/GdYgOMwYfzh+HPYrAsc4Tyow24a9Tb0XhRJ8XqiBx9qW7h8+tudDb5vzyavLMQWpobX7qw9tiREWXrewcP2CQhMDlv3svZtRu1HgwxfPM/H4wHiy4si9z+w38dXVB4umTe/q6nIcvzEC9VYRUAQUAUVgjBBwly5cdkpV5WTnNTZZE1xNh47iNCLt6TCnJG0EmWGBwcsKA9Eb9mUmZbX1txjbMVYU9MGy1KSElJbuxjBn6nKGEYok+VJDrv5AIIDMUNiQXGzB0bt3IMpMSejp7ccU3zevwxWXX3PuuWvuv//eHTsrRk9zlawIKAKKgCJwYgTelFXq0MOJ6ziNqSRs2niYS0RCbelu5uxbMftia0G2nnBPT3cPIsHyYq1iOyFPb6BrzCg/Vh8qDEXEcd3S2RtNwgltzoGm0dg3vjPIz549u6enR3n0jfHSHIqAIqAIjCYCI6dScBKCoTHcjKaSlmyrOk58tQInAdlPjjJ2IogLDGYUc4Ykeeqn0fZ4AnYKjsYNFsviJHDAbevLSngu3IgqM42tra199tmnRyRACykCioAioAicNgRG7uA9bSqciiBQCGcD2Yd6wmcLWxMChmFHMKg9umlmwEpdhodOpdrTmZfrSzkFeKQhpiHmawDra8b4s2Ckqms5RUARUAQmJgI205whrQNnYJWLo6w/FGfuEY/gxJsbNyYVYa8GiQfpmtm/iHFyGgIeVGr0Hs2yFuwaEWNXn3ptMiHZaI6r8uipI6glFAFFQBE4zQicYVSK1mOdiYNByCObMDjPA2/MMhgfjEBOx4Xlis2PBrTX4dSB5UbryRijtIltr+4IuNzo7Ghuvg9GIGe0GqlyFQFFQBGYfAgMoJaTaX5TU9PJZBu9PBjsPEnhGMhFTmEdNhPF7JPMTlLAqGdzGPHkayITD7C/2bSBMScvTHMqAoqAIqAInAYETplKj++1j485DXoNLwJb98UaYUPWHhtJ4hVjFE015Dq87DMjxWk+msn7gab2mdEG1VIRUAQUgQmEwClTKTZJQPOT/RiGlK145LywWOoabXAwaze2OodXYus1kebKFsr4YmyGiXGPBhKKCdq6ifGOtBWKgCIwGRA49cUw3IzIdfc/n92Hk0l21v386f2AaUg+mwzwaRsVAUVAEVAEFAFvTv6UU0MBROp2PbO9LifNt2Z+4TMVx/oCejTJqUGouRUBRUARUAQmEgKn7OA1jW/v6n+2ohEHk8VHp9NOJFi0LYqAIqAIKAKKwMkicMpUataTYMCyMC0Bs14a2vtPtirNpwgoAoqAIqAITEQETplKuVcfp8J6stPjAuGAs0RyIoKjbVIEFAFFQBFQBN4YgVOmUiMSk3d7+sNxbu+07KQ3rkRzKAKKgCKgCCgCExeBEVIppuy+sKu+rTfwzfcuuedjq97UTngTF1xtmSKgCCgCisBkQOCUF8NYaxldroLMxLREf31Hz66atsmAlLZREVAEFAFFQBEYEoFTplLusBPBadqupbMyXeHIF+7d0hsMjOzQzSEV0khFQBFQBBQBReDMQmCkDt5IpKM7FHCFe4OhsOuU+fjMwki1VQQUAUVAEVAEToDACKhUtjvyeJo6ezDtKN7rcUcCOlZ6Aog1SRFQBBQBRWBiI3DKVAr/LhDxhENt7f1YGJORFu/x+ELuU5YzsWHV1ikCioAioAhMHgRO2TdrtttdNivvyrMLcUhLZxf24sXRJIOP3Z48CGpLFQFFQBFQBCY5AiOwJrlFwy0Xz4rzeH/0xJ6ufj5qUAQUAUVAEVAEJi0C7tKFy0618c56GLsg2HQElGyX1r+KgCKgCCgCisCZjMBIKDD2uFBp+0iEnMmgqe6KgCKgCCgCikAUAWXBKBZ6pwgoAoqAIqAIjAABpdIRgKZFFAFFQBFQBBSBKAJKpVEs9E4RUAQUAUVAERgBAkqlIwBNiygCioAioAgoAlEElEqjWOidIqAIKAKKgCIwAgSUSkcAmhZRBBQBRUARUASiCCiVRrHQO0VAEVAEFAFFYAQIKJWOADQtoggoAoqAIqAIRBFQKo1ioXeKgCKgCCgCisAIEFAqHQFoWkQRUAQUAUVAEYgi8P8BCHJftGOGqDEAAAAASUVORK5CYII=;" parent="1" vertex="1">
          <mxGeometry x="-510" y="240" width="475.04" height="320" as="geometry" />
        </mxCell>
        <mxCell id="d4KqfhxiLh6mlPKJPNHN-36" value="" style="endArrow=classic;html=1;rounded=0;fontSize=14;strokeColor=#3399FF;exitX=1;exitY=0.5;exitDx=0;exitDy=0;entryX=0.5;entryY=1;entryDx=0;entryDy=0;" parent="1" source="d4KqfhxiLh6mlPKJPNHN-35" target="d4KqfhxiLh6mlPKJPNHN-1" edge="1">
          <mxGeometry width="50" height="50" relative="1" as="geometry">
            <mxPoint x="10" y="280" as="sourcePoint" />
            <mxPoint x="100" y="240" as="targetPoint" />
            <Array as="points">
              <mxPoint x="100" y="400" />
            </Array>
          </mxGeometry>
        </mxCell>
        <mxCell id="d4KqfhxiLh6mlPKJPNHN-37" value="" style="endArrow=classic;html=1;rounded=0;fontSize=14;strokeColor=#3399FF;exitX=0.5;exitY=1;exitDx=0;exitDy=0;entryX=0.5;entryY=1;entryDx=0;entryDy=0;" parent="1" source="d4KqfhxiLh6mlPKJPNHN-24" target="d4KqfhxiLh6mlPKJPNHN-10" edge="1">
          <mxGeometry width="50" height="50" relative="1" as="geometry">
            <mxPoint x="110" y="130" as="sourcePoint" />
            <mxPoint x="590" y="130" as="targetPoint" />
            <Array as="points">
              <mxPoint x="580" y="230" />
              <mxPoint x="700" y="230" />
            </Array>
          </mxGeometry>
        </mxCell>
        <mxCell id="d4KqfhxiLh6mlPKJPNHN-38" value="&lt;font style=&quot;font-size: 14px;&quot;&gt;JSShapeProperty::hash_next&lt;/font&gt;" style="text;html=1;strokeColor=none;fillColor=none;align=center;verticalAlign=middle;whiteSpace=wrap;rounded=0;fontFamily=SF Mono;" parent="1" vertex="1">
          <mxGeometry x="520" y="240" width="240" height="30" as="geometry" />
        </mxCell>
        <mxCell id="d4KqfhxiLh6mlPKJPNHN-4" value="" style="rounded=0;whiteSpace=wrap;html=1;fillColor=#d5e8d4;strokeColor=#82b366;" parent="1" vertex="1">
          <mxGeometry x="200" y="120" width="40" height="40" as="geometry" />
        </mxCell>
        <mxCell id="d4KqfhxiLh6mlPKJPNHN-39" value="" style="endArrow=classic;html=1;rounded=0;fontSize=14;strokeColor=#FF99FF;exitX=1;exitY=1;exitDx=0;exitDy=0;" parent="1" source="d4KqfhxiLh6mlPKJPNHN-4" edge="1">
          <mxGeometry width="50" height="50" relative="1" as="geometry">
            <mxPoint x="480" y="430" as="sourcePoint" />
            <mxPoint x="240" y="430" as="targetPoint" />
          </mxGeometry>
        </mxCell>
        <mxCell id="d4KqfhxiLh6mlPKJPNHN-40" value="prop_hash_end" style="text;html=1;strokeColor=none;fillColor=none;align=center;verticalAlign=middle;whiteSpace=wrap;rounded=0;fontSize=14;fontFamily=SF Mono;" parent="1" vertex="1">
          <mxGeometry x="170" y="430" width="140" height="30" as="geometry" />
        </mxCell>
        <mxCell id="d4KqfhxiLh6mlPKJPNHN-41" value="prop_hash_end[-1]" style="text;html=1;strokeColor=none;fillColor=none;align=center;verticalAlign=middle;whiteSpace=wrap;rounded=0;fontSize=14;fontFamily=SF Mono;" parent="1" vertex="1">
          <mxGeometry x="274" y="350" width="140" height="30" as="geometry" />
        </mxCell>
        <mxCell id="d4KqfhxiLh6mlPKJPNHN-42" value="" style="endArrow=classic;html=1;rounded=0;fontSize=14;strokeColor=#FF99FF;exitX=0;exitY=1;exitDx=0;exitDy=0;entryX=0.5;entryY=0;entryDx=0;entryDy=0;" parent="1" source="d4KqfhxiLh6mlPKJPNHN-4" target="d4KqfhxiLh6mlPKJPNHN-41" edge="1">
          <mxGeometry width="50" height="50" relative="1" as="geometry">
            <mxPoint x="250" y="170" as="sourcePoint" />
            <mxPoint x="250" y="440" as="targetPoint" />
            <Array as="points">
              <mxPoint x="200" y="310" />
              <mxPoint x="344" y="310" />
            </Array>
          </mxGeometry>
        </mxCell>
      </root>
    </mxGraphModel>
  </diagram>
</mxfile>
